<svg xmlns="http://www.w3.org/2000/svg" viewBox="0 0 405.27 57.29"><defs><style>.cls-1{fill:#e60012;}.cls-2{fill:#004098;}.cls-3{fill:#fff;}</style></defs><title>アセット 1</title><g id="レイヤー_2" data-name="レイヤー 2"><g id="レイヤー_1-2" data-name="レイヤー 1"><path class="cls-1" d="M49.12,11.49l-6.75,6.62q-6.88-7.48-15.5-7.49a16.4,16.4,0,0,0-12.24,5.11,17.39,17.39,0,0,0-5,12.62,19.18,19.18,0,0,0,2.2,9.27A16.06,16.06,0,0,0,18.09,44a17.68,17.68,0,0,0,9,2.3,18,18,0,0,0,7.68-1.61,27.7,27.7,0,0,0,7.65-5.88l6.54,7a35.76,35.76,0,0,1-10.62,7.83,28.13,28.13,0,0,1-11.4,2.18q-11.83,0-19.36-7.72T0,28.33A27.69,27.69,0,0,1,3.43,14.45a25.86,25.86,0,0,1,9.82-9.76A27,27,0,0,1,27,1,28,28,0,0,1,39.1,3.72,29,29,0,0,1,49.12,11.49Z"/><path class="cls-2" d="M80.25,15.9h9.41V54.53H80.25V50.45a18.55,18.55,0,0,1-5.52,3.89,15.13,15.13,0,0,1-6,1.19,16.5,16.5,0,0,1-12.57-5.81,20.61,20.61,0,0,1-5.3-14.43q0-9,5.13-14.66a16.15,16.15,0,0,1,12.47-5.72,15.53,15.53,0,0,1,6.33,1.31,17.22,17.22,0,0,1,5.47,4Zm-9.89,8A9.38,9.38,0,0,0,63.11,27a11.66,11.66,0,0,0-2.88,8.14,11.8,11.8,0,0,0,2.93,8.24,9.41,9.41,0,0,0,7.24,3.23,9.56,9.56,0,0,0,7.35-3.18,11.84,11.84,0,0,0,2.92-8.32A11.53,11.53,0,0,0,77.75,27,9.69,9.69,0,0,0,70.36,23.86Z"/><path class="cls-2" d="M94.63,15.9H98q0-7.59.24-9a7.49,7.49,0,0,1,2.6-5.06A9.54,9.54,0,0,1,107.1,0a19.13,19.13,0,0,1,6.62,1.38V8.77a12.31,12.31,0,0,0-3.34-.6,3.39,3.39,0,0,0-2.41.71,3.1,3.1,0,0,0-.56,2.2l0,4.82h6v8.21h-6V54.53H98V24.11H94.63Z"/><path class="cls-2" d="M154.66,38H124.43a10.48,10.48,0,0,0,3.5,6.55A10.8,10.8,0,0,0,135.19,47a12.35,12.35,0,0,0,9.06-3.79L152.18,47a18.93,18.93,0,0,1-7.1,6.41,21.71,21.71,0,0,1-9.82,2.08q-8.82,0-14.38-5.74a19.82,19.82,0,0,1-5.55-14.36,20.5,20.5,0,0,1,5.54-14.68,18.3,18.3,0,0,1,13.87-5.84q8.87,0,14.41,5.84t5.55,15.43Zm-9.41-7.63a9.7,9.7,0,0,0-3.67-5.25,10.46,10.46,0,0,0-6.37-2,11.07,11.07,0,0,0-6.91,2.27,12.74,12.74,0,0,0-3.45,5Z"/><path class="cls-1" d="M240.87,2.31h10.24q8.31,0,12,1.58A12.31,12.31,0,0,1,268.88,9,16.18,16.18,0,0,1,271,17.47a14.53,14.53,0,0,1-2.78,9.09,14.41,14.41,0,0,1-7.53,5q-2.79.81-10.17.81V54.53h-9.65Zm9.65,20.41h3.07a16.33,16.33,0,0,0,5-.53,4.55,4.55,0,0,0,2.23-1.77,5.36,5.36,0,0,0,.8-3A4.79,4.79,0,0,0,259.38,13q-1.65-1-6.14-1h-2.72Z"/><path class="cls-2" d="M284.9,2.31h9.79l19.49,52.22h-10l-4-10.76H279.5l-4.13,10.76h-10Zm5,13.84-6.8,17.93h13.56Z"/><path class="cls-2" d="M318.35,2.31h10.23q8.4,0,12,1.54A12.42,12.42,0,0,1,346.27,9a16.05,16.05,0,0,1,2.17,8.49,14.76,14.76,0,0,1-2.4,8.61,14.48,14.48,0,0,1-7.21,5.23l12,23.22H340.28l-11.4-22.12H328V54.53h-9.65ZM328,22.72h3c3.06,0,5.18-.41,6.33-1.24a4.75,4.75,0,0,0,1.74-4.14,5.16,5.16,0,0,0-.86-3,4.81,4.81,0,0,0-2.3-1.82,16.94,16.94,0,0,0-5.29-.55H328Z"/><path class="cls-2" d="M356.68,2.31h9.59V54.53h-9.59Z"/><path class="cls-2" d="M404.37,9.41l-7.15,6.49q-3.77-5.38-7.67-5.39a4.55,4.55,0,0,0-3.1,1.05,3,3,0,0,0-1.21,2.36,4.15,4.15,0,0,0,.86,2.48,66.79,66.79,0,0,0,7.08,6.71c3.68,3.17,5.91,5.18,6.7,6A21,21,0,0,1,404,35,14.93,14.93,0,0,1,405.27,41,14.19,14.19,0,0,1,401,51.66a15.47,15.47,0,0,1-11.25,4.18,16.37,16.37,0,0,1-9.43-2.73,21.33,21.33,0,0,1-6.89-8.59l8.11-5q3.66,6.92,8.43,6.92a6.09,6.09,0,0,0,4.17-1.49,4.46,4.46,0,0,0,1.69-3.44,6,6,0,0,0-1.27-3.55,36.62,36.62,0,0,0-5.63-5.43q-8.29-7-10.7-10.74a13.89,13.89,0,0,1-2.42-7.55,12.51,12.51,0,0,1,4-9.32A13.73,13.73,0,0,1,389.7,1a15.27,15.27,0,0,1,7.23,1.82A26.35,26.35,0,0,1,404.37,9.41Z"/><path class="cls-2" d="M219.75,7.69V1.91H161.41V28.59c0,15.85,13.1,28.7,29.26,28.7a29.21,29.21,0,0,0,28-20.32c.25,0,.51,0,.77,0a14.82,14.82,0,0,0,15-14.67A14.81,14.81,0,0,0,219.75,7.69Zm.11,19.8c0-.67,0-1.34-.11-2V17.19a5.16,5.16,0,0,1,.11,10.3Z"/><path class="cls-3" d="M183.79,9.91h5V39.58h-5V37.31a9.77,9.77,0,0,1-2.91,2.16,7.58,7.58,0,0,1-3.16.66,8.49,8.49,0,0,1-6.62-3.22,11.77,11.77,0,0,1-2.79-8,12.08,12.08,0,0,1,2.7-8.12,8.33,8.33,0,0,1,6.56-3.17,7.87,7.87,0,0,1,3.34.73,9.15,9.15,0,0,1,2.88,2.18Zm-5.21,12.67a4.83,4.83,0,0,0-3.81,1.76,6.62,6.62,0,0,0-1.52,4.51,6.74,6.74,0,0,0,1.54,4.57,4.85,4.85,0,0,0,3.81,1.79,4.92,4.92,0,0,0,3.87-1.76A6.8,6.8,0,0,0,184,28.83a6.57,6.57,0,0,0-1.54-4.52A5,5,0,0,0,178.58,22.58Z"/><path class="cls-3" d="M212,30.43H196.09a5.88,5.88,0,0,0,1.84,3.63,5.48,5.48,0,0,0,3.82,1.34,6.39,6.39,0,0,0,4.78-2.1l4.17,2.12A10.2,10.2,0,0,1,207,39a11,11,0,0,1-5.17,1.15A9.81,9.81,0,0,1,194.22,37a11.34,11.34,0,0,1-2.92-8,11.71,11.71,0,0,1,2.91-8.13,9.43,9.43,0,0,1,7.31-3.24,9.74,9.74,0,0,1,7.58,3.24A12.24,12.24,0,0,1,212,29.4Zm-4.95-4.23a5.4,5.4,0,0,0-1.94-2.91,5.29,5.29,0,0,0-3.35-1.12,5.61,5.61,0,0,0-3.63,1.26,6.9,6.9,0,0,0-1.82,2.77Z"/><rect class="cls-2" x="134.06" y="1.9" width="6.67" height="11.01" transform="translate(89.08 -121.43) rotate(66.36)"/></g></g></svg>