<?xml version="1.0" encoding="utf-8"?>
<svg version="1.1" xmlns="http://www.w3.org/2000/svg" xmlns:xlink="http://www.w3.org/1999/xlink" x="0px"
	 y="0px" width="439.5px" height="621px" viewBox="0 0 439.5 621" style="enable-background:new 0 0 439.5 621;"
	 xml:space="preserve">
<style type="text/css">
	.st0{fill:none;stroke:#005064;stroke-width:5;stroke-linecap:round;stroke-miterlimit:10;}
	.st1{fill:none;stroke:#005064;stroke-linecap:round;stroke-miterlimit:10;}
	.st2{fill:#005064;}
	.st3{fill:none;stroke:#005064;stroke-width:5;stroke-linecap:round;stroke-linejoin:round;stroke-miterlimit:10;}
	.st4{fill:#FFFFFF;}
</style>
<g>
	<path class="st0" d="M3,104.5h308.6c15.9,0,31.2-6.3,42.4-17.6L368.9,72c11.3-11.3,26.5-17.6,42.4-17.6h25.1"/>
</g>
<g>
	<line class="st1" x1="189.5" y1="172.9" x2="436.5" y2="172.9"/>
</g>
<g>
	<line class="st1" x1="3" y1="254.9" x2="436.5" y2="254.9"/>
</g>
<g>
	<path class="st2" d="M113.3,23.4v6.7c0,0.6,0,1.1,0.1,1.4h-1.5c0-0.4,0.1-0.8,0.1-1.4v-3.5c0-0.5,0-0.9,0-1.3
		c-0.3,0.5-0.6,0.9-1,1.3c-0.1-0.5-0.4-1-0.7-1.4c0.8-0.9,1.5-1.9,2-3c0.3-0.7,0.5-1.4,0.6-1.9l1.4,0.4c-0.2,0.4-0.3,0.8-0.4,1.1
		C113.9,22.1,113.6,22.6,113.3,23.4z M121.6,30.6c-0.4,0-0.9-0.1-1.5-0.1h-4.5c-0.6,0-1.1,0-1.6,0.1v-1.5c0.4,0.1,0.9,0.1,1.6,0.1
		h4.5c0.6,0,1.1,0,1.5-0.1V30.6z M114.5,23.3v-1.5c0.4,0,0.9,0.1,1.4,0.1h3.6c0.6,0,1,0,1.4-0.1v1.5c-0.4,0-0.9-0.1-1.4-0.1H116
		C115.4,23.3,114.9,23.3,114.5,23.3z"/>
	<path class="st2" d="M115.3,34.4h-2.5c-0.7,0-1.2,0-1.6,0.1v-1.4c0.3,0.1,0.8,0.1,1.6,0.1h6.7c0.7,0,1.3,0,1.6-0.1v1.4
		c-0.4,0-0.9-0.1-1.6-0.1h-2.7v2.7h2.2c0.6,0,1,0,1.5-0.1v1.4c-0.4,0-0.9-0.1-1.5-0.1h-2.2v3.2h3.2c0.7,0,1.3,0,1.6-0.1v1.4
		c-0.3-0.1-0.9-0.1-1.6-0.1h-7.6c-0.6,0-1.2,0-1.6,0.1v-1.4c0.4,0,0.9,0.1,1.6,0.1h3v-3.2h-2c-0.6,0-1.1,0-1.5,0.1V37
		c0.3,0,0.8,0.1,1.5,0.1h2L115.3,34.4L115.3,34.4z"/>
	<path class="st2" d="M116,46.8c0-0.1-0.1-0.2-0.2-0.5l-0.3-0.6l-0.1-0.3c-0.1-0.2-0.2-0.4-0.2-0.5l1.6-0.2c0,0.2,0.1,0.3,0.1,0.4
		c0,0.1,0.2,0.5,0.4,1.1c0.1,0.2,0.1,0.3,0.2,0.4c1.4-0.2,2.4-0.5,2.9-0.7l0.2,1.4c-0.2,0-0.5,0.1-0.8,0.2c-0.5,0.1-1.1,0.2-1.6,0.3
		h-0.1L118,48c0.4,0.8,0.8,1.5,1.2,2.1c0.3,0.5,0.6,0.9,0.8,1.2l-1.4,0.6c-0.2-0.2-0.3-0.3-0.5-0.4c-0.5-0.3-1.3-0.4-2.3-0.4
		c-0.9,0-1.6,0.1-2,0.4c-0.2,0.1-0.3,0.3-0.4,0.5c-0.1,0.1-0.1,0.3-0.1,0.5c0,0.4,0.2,0.7,0.6,0.9c0.5,0.2,1.1,0.4,2,0.4
		s1.8-0.1,2.7-0.4c0.3-0.1,0.6-0.2,0.9-0.4l0.2,1.5c-0.1,0-0.3,0.1-0.5,0.1c-0.8,0.2-1.4,0.3-1.8,0.4c-0.5,0.1-1,0.1-1.5,0.1
		c-0.8,0-1.5-0.1-2.1-0.3c-0.7-0.2-1.3-0.6-1.6-1.1c-0.2-0.4-0.3-0.8-0.3-1.2c0-0.7,0.3-1.3,0.9-1.8c0.7-0.6,1.7-0.9,3-0.9
		c0.8,0,1.5,0.1,2.1,0.4c-0.3-0.5-0.8-1.2-1.2-2.1l-0.1-0.1c-0.4,0.1-1,0.1-1.8,0.2c-0.3,0-0.9,0-1.7,0.1c-0.4,0-0.6,0-0.7,0
		c-0.2,0-0.4,0-0.5,0l-0.1-1.4c0.3,0,0.7,0.1,1.1,0.1c0.7,0,1.5,0,2.5-0.1C115.5,46.9,115.8,46.8,116,46.8z"/>
	<path class="st2" d="M120.1,62.3c0.2,0.2,0.5,0.4,0.7,0.6c0.1,0.1,0.3,0.2,0.6,0.3c-0.5,2.5-1.7,3.7-3.5,3.7c-1,0-1.6-0.3-1.9-1
		c-0.1-0.3-0.2-0.8-0.2-1.3v-0.1c0-0.4,0-0.7,0-0.9c0-0.3,0-0.5-0.1-0.7s-0.3-0.3-0.5-0.3c-0.4,0-0.7,0.2-1.1,0.5
		c-0.4,0.4-0.7,0.9-1,1.5c-0.2,0.5-0.4,1-0.6,1.7c-0.1,0.2-0.1,0.5-0.2,0.7l-1.5-0.5c0.1-0.2,0.2-0.4,0.3-0.7c0.1-0.3,0.5-1.3,1.1-3
		c1-2.7,1.6-4.4,1.8-5.2c0.1-0.3,0.2-0.5,0.2-0.7c0-0.1,0-0.2,0.1-0.3l1.6,0.4c-0.1,0.2-0.3,0.7-0.6,1.4c-0.7,1.9-1.2,2.9-1.3,3.3
		c-0.1,0.1-0.1,0.2-0.1,0.3l0,0c0.1-0.1,0.1-0.1,0.2-0.3c0.2-0.2,0.3-0.3,0.5-0.4c0.3-0.2,0.7-0.3,1-0.3s0.5,0.1,0.8,0.2
		c0.4,0.2,0.7,0.6,0.8,1.2c0,0.2,0.1,0.7,0.1,1.5c0,0.5,0,0.8,0.1,0.9c0.1,0.3,0.3,0.4,0.5,0.5c0.1,0,0.2,0,0.3,0
		c0.7,0,1.2-0.4,1.5-1.3c0.2-0.4,0.3-0.8,0.4-1.4C120.1,62.7,120.1,62.5,120.1,62.3z"/>
	<path class="st2" d="M110.6,74.4V73c0.3,0,0.6,0.1,0.9,0.1h0.8c0.4,0,0.7,0,0.9-0.1c0,0.3-0.1,0.7-0.1,1.3v2.6
		c0.2,0.3,0.4,0.5,0.6,0.7s0.4,0.3,0.6,0.3c0.5,0.1,1.3,0.2,2.4,0.2c1,0,1.8,0,2.3-0.1s1.5-0.1,2.7-0.3c-0.1,0.2-0.1,0.4-0.2,0.7
		c-0.1,0.3-0.1,0.5-0.1,0.8c-1.4,0.1-3,0.1-4.8,0.1c-1.3,0-2.2-0.1-2.7-0.3c-0.4-0.2-0.8-0.4-1.1-0.7c-0.1-0.1-0.2-0.2-0.3-0.3
		c-0.1,0.1-0.1,0.1-0.2,0.2c-0.3,0.3-0.8,0.7-1.3,1.2l-0.7-1.3c0.2-0.1,0.5-0.3,0.8-0.5s0.6-0.5,0.8-0.7v-2.6h-0.6
		C111,74.3,110.8,74.3,110.6,74.4z M110.5,69.5l1-0.9c0.4,0.3,0.7,0.7,1.1,1.1s0.7,0.8,1,1.1l-1,1C112,70.9,111.3,70.2,110.5,69.5z
		 M116.3,71L116.3,71c-0.5-0.3-0.8-0.5-1-0.6l0.9-0.5H115c-0.5,0-0.9,0-1.2,0.1v-1.2c0.3,0,0.8,0.1,1.4,0.1h3.9c0.8,0,1.2,0,1.4-0.1
		l0.6,0.7c-0.1,0.1-0.3,0.2-0.6,0.5c-0.3,0.2-0.6,0.5-1.1,0.8c-0.2,0.1-0.3,0.2-0.5,0.3h1c0.6,0,1,0,1.2-0.1c0,0.3,0,0.7,0,1.4v3.7
		c0,0.4,0,0.6-0.1,0.8c-0.1,0.2-0.2,0.4-0.5,0.5c-0.2,0.1-0.5,0.1-1,0.1c-0.1,0-0.3,0-0.5,0c0-0.5-0.1-0.8-0.3-1.1
		c0.3,0.1,0.6,0.1,0.8,0.1c0.1,0,0.2,0,0.2,0s0-0.1,0.1-0.1V76v-0.5H118V76c0,0.6,0,1,0.1,1.3h-1.3c0-0.3,0.1-0.7,0.1-1.3v-0.5h-1.6
		v0.6c0,0.6,0,1.1,0.1,1.3H114c0-0.3,0.1-0.7,0.1-1.3v-3.8c0-0.6,0-1.1-0.1-1.4c0.3,0,0.8,0.1,1.3,0.1C115.3,71,116.3,71,116.3,71z
		 M116.9,72.1h-1.6v0.8h1.6V72.1z M115.3,73.8v0.8h1.6v-0.8H115.3z M116.3,69.9c0.3,0.2,0.6,0.4,1.1,0.8l0.1,0.1l0.1-0.1
		c0.5-0.4,0.9-0.6,1.1-0.8H116.3z M118.1,72.1v0.8h1.8v-0.8H118.1z M119.9,74.6v-0.8h-1.8v0.8H119.9z"/>
	<path class="st2" d="M112.8,80.7l1.5,0.1c-0.2,0.4-0.3,1.4-0.5,3c0,0.2,0,0.3-0.1,0.5l0,0c0-0.1,0-0.1,0.1-0.3
		c0.1-0.2,0.1-0.4,0.3-0.7c0.3-0.6,0.7-1.1,1.3-1.5c0.5-0.3,0.9-0.5,1.5-0.5s1.2,0.2,1.6,0.6c0.5,0.4,0.8,1,1.1,1.7
		c0.2,0.5,0.3,1.2,0.3,1.9c0,1.1-0.2,2-0.6,2.7c-0.5,1-1.2,1.7-2.2,2.2c-0.7,0.4-1.6,0.6-2.7,0.8c-0.1-0.3-0.2-0.6-0.3-0.8
		c-0.1-0.2-0.2-0.4-0.4-0.6c0.5-0.1,0.9-0.1,1.2-0.2c1.2-0.3,2.1-0.8,2.7-1.6c0.5-0.6,0.7-1.5,0.7-2.6c0-1-0.2-1.7-0.6-2.2
		c-0.3-0.3-0.6-0.5-1-0.5s-0.7,0.1-0.9,0.3c-0.4,0.3-0.8,0.8-1.2,1.5c-0.5,0.8-0.7,1.7-0.7,2.7c0,0.1,0,0.2,0,0.3h-1.4
		c0-0.1,0-0.1,0-0.2s0-0.1,0-0.2c0-0.6,0-1.1,0-1.5c0-0.8,0-1.6,0.1-2.5c0-0.2,0.1-0.8,0.2-1.8C112.8,81,112.8,80.8,112.8,80.7z"/>
</g>
<g>
	<path class="st2" d="M387.5,24v-0.5c0-0.3,0-0.6-0.1-0.8h1.5c0,0.2-0.1,0.5-0.1,0.8V24h2.2c0.7,0,1.2,0,1.4-0.1v1.3
		c-0.3,0-0.8-0.1-1.4-0.1h-2.3V27h3.3c0.6,0,1.1,0,1.5-0.1v1.3c-0.4,0-0.9-0.1-1.5-0.1h-7.8c-0.6,0-1.1,0-1.5,0.1V27
		c0.4,0,0.9,0.1,1.5,0.1h3.1v-1.9h-2.1c-0.6,0-1.1,0-1.4,0.1V24c0.3,0,0.8,0.1,1.4,0.1h2.3V24z M386.5,19.2h-1.9
		c-0.6,0-1.1,0-1.5,0.1V18c0.3,0,0.8,0.1,1.5,0.1h7.4c0.6,0,1.1,0,1.5-0.1v1.3c-0.4,0-0.8-0.1-1.4-0.1H388c-0.2,0.4-0.3,0.7-0.6,1.1
		c-0.2,0.4-0.4,0.7-0.6,1h0.4c1,0,1.7-0.1,2-0.1s0.8-0.1,1.3-0.1c-0.3-0.3-0.7-0.6-1.1-1l1-0.6c1.1,1,2.1,1.9,2.8,2.8l-1.1,0.8
		c-0.3-0.4-0.5-0.7-0.7-1h-0.2c-1.6,0.2-3.7,0.3-6.1,0.4c-0.4,0-0.8,0-1,0s-0.4,0-0.5,0l-0.2-1.3c0.2,0,0.5,0,0.8,0c0,0,0.4,0,1,0
		C385.8,20.8,386.2,20.1,386.5,19.2z"/>
	<path class="st2" d="M400.6,26.1c-0.1-0.2-0.3-0.4-0.6-0.7c-0.3,0.3-0.5,0.5-0.8,0.6c-0.2-0.2-0.3-0.4-0.5-0.6v2
		c0,0.4-0.1,0.7-0.2,0.8c-0.1,0.2-0.3,0.3-0.6,0.3c-0.2,0-0.3,0-0.6,0c-0.1,0-0.4,0-0.8,0c0-0.4-0.1-0.8-0.2-1.2
		c0.4,0.1,0.6,0.1,0.8,0.1c0.1,0,0.2,0,0.3-0.1c0,0,0.1-0.1,0.1-0.2v-1.5h-1.2c-0.1,1.3-0.4,2.4-0.8,3.1c-0.3-0.4-0.6-0.7-1-0.9
		c0.2-0.4,0.4-0.8,0.5-1.3c0.2-1,0.4-2.4,0.4-4.3c0-0.8,0-1.4-0.1-1.9c0.3,0,0.7,0.1,1.2,0.1h1.2c0.5,0,0.8,0,1,0c0,0.3,0,0.6,0,1.1
		V25c0.6-0.4,1-0.8,1.3-1.2c-0.5,0-0.9,0-1.1,0v-1.1c0.2,0,0.6,0,1.1,0h0.6c0.1-0.2,0.2-0.5,0.3-0.7h-0.7c-0.5,0-0.9,0-1.1,0v-1.1
		c0.2,0,0.5,0,0.8,0c-0.2-0.3-0.4-0.7-0.5-0.9l0.9-0.4c0.3,0.4,0.5,0.9,0.6,1.3h0.3c0.1-0.5,0.2-0.8,0.2-1.1h1.2
		c-0.1,0.2-0.1,0.5-0.2,0.9c0,0,0,0.1-0.1,0.2h0.7c0.3-0.4,0.5-0.9,0.6-1.3l1,0.3c-0.2,0.3-0.4,0.7-0.5,0.9c0.5,0,0.9,0,1.2,0v1.1
		c-0.3,0-0.6,0-1.1,0h-0.9c0.1,0.2,0.2,0.4,0.3,0.7h0.8c0.5,0,0.9,0,1.1,0v1.1c-0.3,0-0.7,0-1.1,0h-0.1c0.4,0.5,0.9,0.8,1.5,1.1
		c-0.3,0.3-0.5,0.6-0.7,1c-0.3-0.2-0.6-0.4-0.8-0.7c-0.2,0.2-0.4,0.4-0.7,0.7c0.5,0.6,1.2,1.1,1.9,1.4c-0.2,0.2-0.5,0.5-0.8,0.9
		c-0.4-0.3-0.7-0.5-1-0.8s-0.6-0.6-1-1l0.5-0.5l-0.5-0.6c0.3-0.2,0.6-0.5,0.9-0.9c-0.2-0.2-0.3-0.4-0.5-0.7h-1.9
		c-0.2,0.3-0.4,0.6-0.6,0.8c0.2,0.3,0.5,0.5,0.7,0.8l-0.5,0.4l0.5,0.8c-0.3,0.3-0.6,0.5-0.9,0.8c0.3,0.1,0.6,0.1,0.8,0.1
		c0.1,0,0.2,0,0.2-0.1c0,0,0.1-0.1,0.1-0.3v-2.3c0-0.3,0-0.5-0.1-0.7h1.2c0,0.2-0.1,0.4,0,0.7V27c0,0.4,0,0.7-0.1,0.8
		s-0.2,0.3-0.4,0.3c-0.2,0.1-0.4,0.1-0.8,0.1c-0.2,0-0.5,0-0.8,0c0-0.4-0.1-0.7-0.2-1l-0.2,0.2c-0.4,0.3-0.6,0.4-0.7,0.5l-0.7-1
		C399.3,26.9,400,26.6,400.6,26.1z M397.7,18.3L397.7,18.3c0-0.3,0-0.5,0-0.7h1.3c0,0.2,0,0.4,0,0.6v0.1h2.5v-0.1c0-0.2,0-0.4,0-0.6
		h1.3c0,0.2,0,0.4,0,0.6v0.1h1.6c0.6,0,1,0,1.3-0.1v1.2c-0.3,0-0.7-0.1-1.3-0.1h-1.6c0,0.1,0,0.2,0,0.3h-1.3c0-0.1,0-0.2,0-0.3H399
		c0,0.2,0,0.4,0,0.5h-1.3c0-0.1,0-0.3,0-0.5h-1.5c-0.5,0-1,0-1.3,0.1v-1.2c0.3,0,0.8,0.1,1.3,0.1H397.7z M396.5,24.6h1.1v-1.1h-1.1
		C396.5,23.9,396.5,24.3,396.5,24.6z M396.5,22.5h1.1v-1.1h-1.1v0.8C396.5,22.3,396.5,22.4,396.5,22.5z M401.8,22.8h0.9
		c-0.1-0.2-0.2-0.4-0.3-0.7h-0.3l-0.1,0.2l-0.1,0.2C401.9,22.7,401.9,22.8,401.8,22.8z"/>
	<path class="st2" d="M417.1,22c0.3,0,0.6,0,0.8-0.1v1.3c-0.2,0-0.5,0-0.8-0.1v4.4c0,0.5-0.1,0.8-0.4,0.9c-0.1,0.1-0.3,0.1-0.5,0.1
		s-0.5,0-0.8,0c-0.1,0-0.4,0-0.8,0c0-0.4-0.1-0.8-0.3-1.2c0.4,0.1,0.8,0.1,1.2,0.1c0.2,0,0.3,0,0.4,0s0.1-0.1,0.1-0.2v-4h-4.7v3.1
		c0,0.5,0,1,0,1.4h-1V27h-2v1h-1.1c0-0.4,0.1-0.8,0.1-1.4v-5.9c0-0.5,0-0.9-0.1-1.3h1.1c0,0.3,0,0.7,0,1.2v5.2h0.5v-6.7
		c0-0.6,0-1.1-0.1-1.4h1.2c0,0.3-0.1,0.8-0.1,1.4v6.8h0.4v-5.2c0-0.5,0-0.9,0-1.3h1.1c0,0.3,0,0.7,0,1.3V22h0.7
		c-0.2-0.3-0.4-0.7-0.6-1c0.6-0.1,1.1-0.3,1.5-0.6c0.3-0.2,0.5-0.4,0.7-0.7h-0.8c-0.4,0-0.8,0-1.1,0.1v-1.2c0.3,0,0.7,0.1,1.2,0.1
		h1.1c0-0.2,0-0.5,0-0.6c0-0.2,0-0.3,0-0.4h1.3c0,0.1,0,0.1,0,0.2s0,0.2,0,0.4c0,0.1,0,0.2,0,0.4h1.3c0.6,0,1,0,1.2-0.1v1.2
		c-0.4,0-0.8,0-1.2-0.1h-1.1c0.3,0.3,0.5,0.6,0.8,0.7c0.4,0.2,1,0.4,1.7,0.5C417.5,21.2,417.3,21.6,417.1,22z M415.1,27
		c-0.2,0-0.5,0-0.8,0h-1.4v0.7h-1.1c0-0.3,0-0.6,0-0.9v-2.1c0-0.4,0-0.7,0-0.9c0.2,0,0.5,0,0.9,0h1.5c0.4,0,0.7,0,0.9,0
		c0,0.2,0,0.5,0,0.9v1.5C415.1,26.6,415.1,26.9,415.1,27z M416.7,22c-0.4-0.1-0.8-0.3-1.2-0.5c-0.5-0.3-0.8-0.7-1.1-1
		c-0.5,0.7-1.2,1.3-2,1.6h4.3V22z M412.9,24.8V26h1.1v-1.2H412.9z"/>
	<path class="st2" d="M423.5,18.6v-0.2c0-0.3,0-0.5-0.1-0.8h1.5c0,0.2-0.1,0.5-0.1,0.8v0.2h3.3c0.6,0,1,0,1.3,0c0,0.2,0,0.5,0,0.9
		v1.1c0,0.4,0,0.7,0.1,0.9h-1.3v-1.7h-7.8v1.7h-1.3c0-0.3,0.1-0.6,0.1-0.9v-1.1c0-0.4,0-0.7,0-0.9c0.3,0,0.8,0,1.3,0H423.5z
		 M423.5,23.6H422c-0.6,0-1,0-1.3,0c0-0.2,0-0.6,0-1.1v-1.3c0-0.4,0-0.7,0-0.9c0.2,0,0.5,0,0.9,0h5.3c0.4,0,0.6,0,0.9,0
		c0,0.1,0,0.5,0,0.9v1.2c0,0.5,0,0.9,0,1.1c-0.3,0-0.7,0-1.3,0h-1.7c-0.1,0.4-0.3,0.7-0.4,0.9h3.1c0.5,0,0.9,0,1.1,0
		c0,0.3-0.1,0.7-0.1,1.2v1.8c0,0.4,0,0.8,0.1,1.2h-1.3v-0.5h-6.2v0.5h-1.3c0-0.4,0.1-0.8,0.1-1.2v-1.8c0-0.5,0-0.9-0.1-1.1
		c0.3,0,0.7,0,1.1,0h2.1C423.3,24.3,423.4,24,423.5,23.6z M421.2,25.7V27h6.2v-1.3H421.2z M422.1,21.5v1h4.4v-1H422.1z"/>
</g>
<g>
	<g>
		<path class="st2" d="M103.9,22v1.4l-3,2.3h3v1.5h-5.6v-1.4l3.1-2.4h-3.1V22H103.9z"/>
		<path class="st2" d="M102.6,28.2v1.5h-4.3v-1.5H102.6z M104.1,28.2v1.6H103v-1.6H104.1z"/>
		<path class="st2" d="M100.5,30.4L100.5,30.4c1.2,0,2.3,1,2.3,2.4c0,1.4-1,2.4-2.2,2.4l0,0c-1.2,0-2.3-1-2.3-2.4
			C98.2,31.4,99.2,30.4,100.5,30.4z M100.5,33.7L100.5,33.7c0.5,0,1-0.4,1-0.9c0-0.6-0.4-0.9-1-0.9l0,0c-0.5,0-1,0.4-1,0.9
			C99.5,33.4,99.9,33.7,100.5,33.7z"/>
		<path class="st2" d="M104.1,35.8v1.5H102c0.4,0.3,0.7,0.7,0.7,1.3c0,0.9-0.6,1.5-1.6,1.5h-2.8v-1.5h2.3c0.5,0,0.7-0.2,0.7-0.6
			c0-0.4-0.3-0.6-0.7-0.6h-2.3v-1.5h5.8V35.8z"/>
		<path class="st2" d="M98.9,40.6l0.9,0.6c-0.3,0.5-0.5,1-0.5,1.5c0,0.3,0.1,0.4,0.2,0.4l0,0c0.2,0,0.2-0.2,0.4-0.7
			c0.2-0.9,0.5-1.5,1.4-1.5l0,0c0.9,0,1.4,0.7,1.4,1.7c0,0.6-0.2,1.3-0.5,1.8l-1-0.5c0.2-0.4,0.4-0.9,0.4-1.3c0-0.2-0.1-0.4-0.2-0.4
			l0,0c-0.2,0-0.2,0.2-0.4,0.7c-0.2,0.9-0.5,1.5-1.4,1.5l0,0c-1,0-1.4-0.7-1.4-1.8C98.2,41.9,98.4,41.2,98.9,40.6z"/>
		<path class="st2" d="M99.5,44.8L99.5,44.8c0.9,0,1.4,0.7,1.4,1.7c0,0.4-0.1,0.8-0.2,1h0.1c0.4,0,0.7-0.3,0.7-0.9
			c0-0.5-0.1-0.8-0.2-1.2l1.1-0.3c0.2,0.5,0.3,1,0.3,1.8s-0.2,1.3-0.5,1.6s-0.8,0.5-1.4,0.5h-2.5v-1.5h0.4c-0.3-0.3-0.5-0.7-0.5-1.3
			C98.2,45.4,98.7,44.8,99.5,44.8z M99.9,47.6h0.2c0.1-0.2,0.1-0.4,0.1-0.6c0-0.4-0.2-0.7-0.5-0.7l0,0c-0.3,0-0.5,0.2-0.5,0.5
			C99.2,47.2,99.4,47.6,99.9,47.6z"/>
		<path class="st2" d="M102.6,49.8v1.5H102c0.4,0.3,0.7,0.7,0.7,1.3c0,0.9-0.6,1.5-1.6,1.5h-2.8v-1.5h2.3c0.5,0,0.7-0.2,0.7-0.6
			c0-0.4-0.3-0.6-0.7-0.6h-2.3v-1.5h4.3V49.8z"/>
		<path class="st2" d="M99.1,56.8l1,0.9c-0.4,0.6-0.7,1.2-0.7,1.8c0,0.4,0.1,0.6,0.4,0.6l0,0c0.2,0,0.4-0.2,0.5-0.9
			c0.3-1.2,0.6-2.1,1.8-2.1l0,0c1,0,1.8,0.8,1.8,2.2c0,1-0.3,1.7-0.7,2.3l-1.1-0.8c0.4-0.5,0.6-1.1,0.6-1.6c0-0.4-0.2-0.6-0.4-0.6
			l0,0c-0.3,0-0.4,0.2-0.5,1c-0.3,1.3-0.7,2.1-1.7,2.1l0,0c-1.1,0-1.8-0.9-1.8-2.3C98.2,58.4,98.5,57.5,99.1,56.8z"/>
		<path class="st2" d="M99.7,62.6h1.8v-0.5h1.2v0.5h1.1v1.5h-1.1v1h-1.2v-1H100c-0.3,0-0.4,0.1-0.4,0.4c0,0.2,0.1,0.4,0.1,0.6h-1.2
			c-0.2-0.3-0.2-0.6-0.2-1.1C98.2,63.1,98.6,62.6,99.7,62.6z"/>
		<path class="st2" d="M99.9,65.7v1.6h-1.6v-1.6H99.9z"/>
	</g>
</g>
<g>
	<path class="st2" d="M169.2,269.3c-0.3-0.7-0.7-1.3-1.2-1.8l1.2-0.5c0.5,0.6,0.9,1.3,1.2,1.8L169.2,269.3h2.8
		c0.5-0.8,0.9-1.5,1.1-2.3l1.4,0.4c-0.4,0.7-0.7,1.2-0.8,1.4c-0.1,0.1-0.2,0.3-0.3,0.4h1.8c0.6,0,1.1,0,1.4-0.1v1.4
		c-0.3,0-0.8-0.1-1.4-0.1h-2v5.8h2.2c0.6,0,1.1,0,1.4-0.1v1.4c-0.3,0-0.8-0.1-1.4-0.1h-8c-0.6,0-1.1,0-1.4,0.1v-1.4
		c0.3,0,0.8,0.1,1.4,0.1h2.1v-5.8h-1.9c-0.6,0-1,0-1.4,0.1v-1.4c0.3,0,0.8,0.1,1.4,0.1h1.6V269.3z M166.5,271.7l1.2-0.4
		c0.5,1.1,1,2.4,1.3,3.7l-1.2,0.5c-0.2-0.8-0.3-1.4-0.5-2C167,272.9,166.8,272.3,166.5,271.7z M170.7,276.3h1.2v-5.8h-1.2V276.3z
		 M175,271.3l1.3,0.5c-0.5,1.4-1,2.6-1.6,3.7l-1.2-0.5C174.1,274,174.6,272.7,175,271.3z"/>
	<path class="st2" d="M172.4,282.6c0.2,0.4,0.5,0.8,0.8,1.3c0.4,0.5,0.7,1,1.1,1.3c0.6,0.6,1.1,1,1.7,1.4c0.4,0.2,0.7,0.5,1.1,0.7
		c-0.2,0.2-0.4,0.4-0.5,0.6s-0.3,0.4-0.4,0.7c-1-0.7-1.8-1.3-2.3-1.9c-0.4-0.4-0.8-0.9-1.2-1.4c-0.2-0.4-0.5-0.8-0.8-1.3
		c0.1,0.5,0.1,0.9,0.1,1.3v3.4c0,0.6,0,1.1,0.1,1.5h-1.6c0.1-0.4,0.1-0.9,0.1-1.5v-3.3c0-0.5,0-0.9,0.1-1.3
		c-0.2,0.5-0.5,0.9-0.7,1.3c-0.9,1.3-2,2.4-3.4,3.4c-0.3-0.5-0.6-0.9-0.9-1.2c1.1-0.6,2.1-1.4,2.9-2.3c0.5-0.5,0.9-1.1,1.3-1.9
		c0.1-0.2,0.2-0.3,0.3-0.5h-2.6c-0.6,0-1.1,0-1.4,0.1v-1.4c0.4,0.1,0.9,0.1,1.4,0.1h3.1v-1.1c0-0.4,0-0.8-0.1-1.1h1.5
		c-0.1,0.3-0.1,0.7-0.1,1.1v1.1h3.2c0.6,0,1.1,0,1.5-0.1v1.4c-0.4-0.1-0.9-0.1-1.5-0.1h-2.8V282.6z"/>
	<path class="st2" d="M167.4,294.2v-1.7c0-0.5,0-0.9-0.1-1.3h1.4c0,0.3-0.1,0.7-0.1,1.3v1.8h0.4c0.4,0,0.6,0,0.8,0v1.3
		c-0.2,0-0.5,0-0.8,0h-0.4v2.8c0.3-0.1,0.6-0.3,1-0.5v1.3c-0.6,0.4-1.6,0.8-2.9,1.2c-0.3,0.1-0.4,0.2-0.5,0.2l-0.3-1.4
		c0.4-0.1,0.9-0.2,1.5-0.4v-3.3h-0.5c-0.4,0-0.7,0-0.9,0.1v-1.3c0.2,0,0.5,0.1,0.9,0.1h0.5V294.2z M171.5,294.4h3.4
		c0.5,0,0.8,0,1-0.1l0.6,0.7c0,0.1-0.1,0.2-0.1,0.3c-0.2,0.7-0.4,1.4-0.7,1.9c-0.3,0.7-0.7,1.4-1.1,1.9c0.2,0.2,0.5,0.5,0.8,0.7
		c0.6,0.4,1.1,0.7,1.7,1c-0.3,0.4-0.6,0.8-0.8,1.3c-1-0.5-1.9-1.2-2.6-1.9c-0.7,0.8-1.6,1.4-2.7,1.9c-0.2-0.4-0.5-0.8-0.8-1.1
		c1.1-0.4,2-1,2.8-1.8c-0.4-0.6-0.8-1.3-1.1-2.1c-0.2-0.5-0.3-1-0.4-1.5c-0.1,1.7-0.3,3-0.7,4c-0.2,0.5-0.5,1.1-0.8,1.6
		c-0.1,0.2-0.3,0.5-0.5,0.7c-0.3-0.3-0.6-0.6-1.1-0.9c0.3-0.4,0.6-0.7,0.8-1c0.4-0.6,0.6-1.2,0.8-1.9c0.3-1.2,0.4-2.8,0.4-4.9
		c0-0.8,0-1.4,0-1.8c0.3,0,0.8,0.1,1.3,0.1h4c0.6,0,1,0,1.3-0.1v1.4c-0.3,0-0.8-0.1-1.3-0.1h-4v1.3
		C171.5,294.2,171.5,294.3,171.5,294.4z M172.7,295.6c0.1,0.4,0.3,0.9,0.5,1.4s0.4,0.9,0.6,1.2c0.5-0.8,0.9-1.6,1.1-2.6H172.7z"/>
</g>
<g>
	<g>
		<path class="st2" d="M159.2,268.5v1.4l-3,2.3h3v1.5h-5.6v-1.4l3.1-2.4h-3.1v-1.5h5.6V268.5z"/>
		<path class="st2" d="M154.8,274.5L154.8,274.5c0.9,0,1.4,0.7,1.4,1.7c0,0.4-0.1,0.8-0.2,1h0.1c0.4,0,0.7-0.3,0.7-0.9
			c0-0.5-0.1-0.8-0.2-1.2l1.1-0.3c0.2,0.5,0.3,1,0.3,1.8s-0.2,1.3-0.5,1.6c-0.3,0.3-0.8,0.5-1.4,0.5h-2.5v-1.5h0.4
			c-0.3-0.3-0.5-0.7-0.5-1.3C153.5,275.1,154,274.5,154.8,274.5z M155.2,277.3h0.2c0.1-0.2,0.1-0.4,0.1-0.6c0-0.4-0.2-0.7-0.5-0.7
			l0,0c-0.3,0-0.5,0.2-0.5,0.5C154.5,276.9,154.7,277.3,155.2,277.3z"/>
		<path class="st2" d="M157.9,279.5v1.5h-0.6c0.4,0.3,0.7,0.7,0.7,1.3c0,0.6-0.3,1-0.7,1.2c0.4,0.4,0.7,0.8,0.7,1.4
			c0,0.9-0.6,1.5-1.6,1.5h-2.8V285h2.4c0.5,0,0.7-0.2,0.7-0.6s-0.2-0.6-0.7-0.6h-2.4v-1.5h2.4c0.5,0,0.7-0.2,0.7-0.6
			s-0.2-0.6-0.7-0.6h-2.4v-1.5L157.9,279.5L157.9,279.5z"/>
		<path class="st2" d="M157.9,287.3v1.5h-4.3v-1.5H157.9z M159.4,287.3v1.6h-1.1v-1.6H159.4z"/>
		<path class="st2" d="M159.4,289.7v1.5h-3l1.4,1.2v1.7l-1.7-1.5l-2.6,1.5v-1.7l1.5-0.9l-0.5-0.4h-1v-1.5L159.4,289.7L159.4,289.7z"
			/>
		<path class="st2" d="M157.9,294.5v1.5h-4.3v-1.5H157.9z M159.4,294.5v1.6h-1.1v-1.6H159.4z"/>
		<path class="st2" d="M156.8,296.8v2.6h-1.3v-2.6H156.8z"/>
		<path class="st2" d="M154.6,300l2.1,2v-1.9h1.2v3.9h-1l-2.1-2v2h-1.2v-4H154.6z"/>
		<path class="st2" d="M154.8,304.5L154.8,304.5c0.9,0,1.4,0.7,1.4,1.7c0,0.4-0.1,0.8-0.2,1h0.1c0.4,0,0.7-0.3,0.7-0.9
			c0-0.5-0.1-0.8-0.2-1.2l1.1-0.3c0.2,0.5,0.3,1,0.3,1.8s-0.2,1.3-0.5,1.6c-0.3,0.3-0.8,0.5-1.4,0.5h-2.5v-1.5h0.4
			c-0.3-0.3-0.5-0.7-0.5-1.3C153.5,305.1,154,304.5,154.8,304.5z M155.2,307.2h0.2c0.1-0.2,0.1-0.4,0.1-0.6c0-0.4-0.2-0.7-0.5-0.7
			l0,0c-0.3,0-0.5,0.2-0.5,0.5C154.5,306.9,154.7,307.2,155.2,307.2z"/>
		<path class="st2" d="M159.4,309.5v1.5h-3l1.4,1.2v1.7l-1.7-1.5l-2.6,1.5v-1.7l1.5-0.9l-0.5-0.4h-1v-1.5L159.4,309.5L159.4,309.5z"
			/>
		<path class="st2" d="M154.8,314.1L154.8,314.1c0.9,0,1.4,0.7,1.4,1.7c0,0.4-0.1,0.8-0.2,1h0.1c0.4,0,0.7-0.3,0.7-0.9
			c0-0.5-0.1-0.8-0.2-1.2l1.1-0.3c0.2,0.5,0.3,1,0.3,1.8s-0.2,1.3-0.5,1.6c-0.3,0.3-0.8,0.5-1.4,0.5h-2.5v-1.5h0.4
			c-0.3-0.3-0.5-0.7-0.5-1.3C153.5,314.7,154,314.1,154.8,314.1z M155.2,316.8h0.2c0.1-0.2,0.1-0.4,0.1-0.6c0-0.4-0.2-0.7-0.5-0.7
			l0,0c-0.3,0-0.5,0.2-0.5,0.5C154.5,316.5,154.7,316.8,155.2,316.8z"/>
	</g>
</g>
<g>
	<path class="st2" d="M171.8,518.3v4.4h3.5c0.7,0,1.2,0,1.6-0.1v1.4c-0.4-0.1-0.9-0.1-1.6-0.1h-7.6c-0.6,0-1.2,0-1.7,0.1v-1.4
		c0.4,0.1,0.9,0.1,1.7,0.1h2.7V515c0-0.5,0-1-0.1-1.4h1.6c-0.1,0.4-0.1,0.8-0.1,1.4v2h2.8c0.5,0,1,0,1.4-0.1v1.4
		c-0.4,0-0.8-0.1-1.4-0.1L171.8,518.3L171.8,518.3z"/>
	<path class="st2" d="M165.9,531.3V530c0.3,0,0.6,0.1,0.9,0.1h0.8c0.4,0,0.7,0,0.9-0.1c0,0.3-0.1,0.7-0.1,1.3v2.6
		c0.2,0.3,0.4,0.5,0.6,0.7c0.2,0.2,0.4,0.3,0.6,0.3c0.5,0.1,1.3,0.2,2.4,0.2c1,0,1.8,0,2.3-0.1s1.5-0.1,2.7-0.3
		c-0.1,0.2-0.1,0.4-0.2,0.7c-0.1,0.3-0.1,0.5-0.1,0.8c-1.4,0.1-3,0.1-4.8,0.1c-1.3,0-2.2-0.1-2.7-0.3c-0.4-0.2-0.8-0.4-1.1-0.7
		c-0.1-0.1-0.2-0.2-0.3-0.3c-0.1,0.1-0.1,0.1-0.2,0.2c-0.3,0.3-0.8,0.7-1.3,1.2l-0.7-1.3c0.2-0.1,0.5-0.3,0.8-0.5s0.6-0.5,0.8-0.7
		v-2.6h-0.6C166.3,531.2,166.1,531.3,165.9,531.3z M165.8,526.5l1-0.9c0.4,0.3,0.7,0.7,1.1,1.1c0.4,0.4,0.7,0.8,1,1.1l-1,1
		C167.3,527.9,166.6,527.1,165.8,526.5z M171.6,528L171.6,528c-0.5-0.3-0.8-0.5-1-0.6l0.9-0.5h-1.2c-0.5,0-0.9,0-1.2,0.1v-1.2
		c0.3,0,0.8,0.1,1.4,0.1h3.9c0.8,0,1.2,0,1.4-0.1l0.6,0.7c-0.1,0.1-0.3,0.2-0.6,0.5c-0.3,0.2-0.6,0.5-1.1,0.8
		c-0.2,0.1-0.3,0.2-0.5,0.3h1c0.6,0,1,0,1.2-0.1c0,0.3,0,0.7,0,1.4v3.7c0,0.4,0,0.6-0.1,0.8s-0.2,0.4-0.5,0.5
		c-0.2,0.1-0.5,0.1-1,0.1c-0.1,0-0.3,0-0.5,0c0-0.5-0.1-0.8-0.3-1.1c0.3,0.1,0.6,0.1,0.8,0.1c0.1,0,0.2,0,0.2,0s0-0.1,0.1-0.1V533
		v-0.5h-1.8v0.5c0,0.6,0,1,0.1,1.3h-1.3c0-0.3,0.1-0.7,0.1-1.3v-0.5h-1.6v0.6c0,0.6,0,1.1,0.1,1.3h-1.4c0-0.3,0.1-0.7,0.1-1.3v-3.8
		c0-0.6,0-1.1-0.1-1.4c0.3,0,0.8,0.1,1.3,0.1L171.6,528L171.6,528z M172.2,529h-1.6v0.8h1.6V529z M170.6,530.7v0.8h1.6v-0.8H170.6z
		 M171.6,526.8c0.3,0.2,0.6,0.4,1.1,0.8l0.1,0.1l0.1-0.1c0.5-0.4,0.9-0.6,1.1-0.8H171.6z M173.4,529v0.8h1.8V529H173.4z
		 M175.2,531.5v-0.8h-1.8v0.8H175.2z"/>
</g>
<g>
	<g>
		<path class="st2" d="M159.2,514.9v1.6h-2.3l2.3,1.9v1.8l-2.4-2.1l-3.2,2.2v-1.9l2.1-1.4l-0.6-0.6h-1.4v-1.6L159.2,514.9
			L159.2,514.9z"/>
		<path class="st2" d="M154.8,520.5L154.8,520.5c0.9,0,1.4,0.7,1.4,1.7c0,0.4-0.1,0.8-0.2,1h0.1c0.4,0,0.7-0.3,0.7-0.9
			c0-0.5-0.1-0.8-0.2-1.2l1.1-0.3c0.2,0.5,0.3,1,0.3,1.8s-0.2,1.3-0.5,1.6s-0.8,0.5-1.4,0.5h-2.5v-1.5h0.4c-0.3-0.3-0.5-0.7-0.5-1.3
			C153.5,521.1,154,520.5,154.8,520.5z M155.2,523.2h0.2c0.1-0.2,0.1-0.4,0.1-0.6c0-0.4-0.2-0.7-0.5-0.7l0,0c-0.3,0-0.5,0.2-0.5,0.5
			C154.5,522.9,154.7,523.2,155.2,523.2z"/>
		<path class="st2" d="M157.9,525.5v1.5h-0.6c0.4,0.3,0.7,0.7,0.7,1.3s-0.3,1-0.7,1.2c0.4,0.4,0.7,0.8,0.7,1.4
			c0,0.9-0.6,1.5-1.6,1.5h-2.8v-1.5h2.4c0.5,0,0.7-0.2,0.7-0.6s-0.2-0.6-0.7-0.6h-2.4v-1.5h2.4c0.5,0,0.7-0.2,0.7-0.6
			c0-0.4-0.2-0.6-0.7-0.6h-2.4v-1.5L157.9,525.5L157.9,525.5z"/>
		<path class="st2" d="M157.9,533.3v1.5h-4.3v-1.5H157.9z M159.4,533.3v1.6h-1.1v-1.6H159.4z"/>
		<path class="st2" d="M154.9,535.9h1.8v-0.5h1.2v0.5h1.1v1.5h-1.1v1h-1.2v-1h-1.5c-0.3,0-0.4,0.1-0.4,0.4c0,0.2,0.1,0.4,0.1,0.6
			h-1.2c-0.2-0.3-0.2-0.6-0.2-1.1C153.5,536.5,153.9,535.9,154.9,535.9z"/>
		<path class="st2" d="M155.7,538.9L155.7,538.9c1.2,0,2.3,1,2.3,2.4s-1,2.4-2.2,2.4l0,0c-1.2,0-2.3-1-2.3-2.4
			S154.5,538.9,155.7,538.9z M155.7,542.2L155.7,542.2c0.5,0,1-0.4,1-0.9c0-0.6-0.4-0.9-1-0.9l0,0c-0.5,0-1,0.4-1,0.9
			C154.8,541.9,155.2,542.2,155.7,542.2z"/>
		<path class="st2" d="M157.9,544.3v1.5H157c0.6,0.2,1,0.6,0.9,1.4h-1.6v-0.1c0-0.8-0.5-1.2-1.5-1.2h-1.3v-1.5h4.4V544.3z"/>
		<path class="st2" d="M157.9,547.8v1.5h-4.3v-1.5H157.9z M159.4,547.8v1.6h-1.1v-1.6H159.4z"/>
	</g>
</g>
<g>
	<path class="st2" d="M377.7,36.4H376V35h4.9v1.4h-1.7v4.2h-1.6v-4.2H377.7z"/>
	<path class="st2" d="M381.4,38.5L381.4,38.5c0-1.2,1-2.3,2.4-2.3s2.4,1,2.4,2.2l0,0c0,1.2-1,2.3-2.4,2.3
		C382.4,40.8,381.4,39.8,381.4,38.5z M384.7,38.5L384.7,38.5c0-0.5-0.4-1-0.9-1c-0.6,0-0.9,0.4-0.9,1l0,0c0,0.5,0.4,1,0.9,1
		C384.3,39.5,384.7,39.1,384.7,38.5z"/>
	<path class="st2" d="M389.1,35.1h4.5v1.4h-2.9v1h2.6v1.3h-2.6v2h-1.6V35.1z"/>
	<path class="st2" d="M394.2,39.2v-2.8h1.5v2.3c0,0.5,0.2,0.7,0.6,0.7s0.6-0.3,0.6-0.7v-2.3h1.5v4.3h-1.5v-0.6
		c-0.3,0.4-0.7,0.7-1.3,0.7C394.7,40.8,394.2,40.2,394.2,39.2z"/>
	<path class="st2" d="M398.7,41.9v-1c0.1,0,0.1,0,0.2,0c0.3,0,0.4-0.1,0.4-0.5v-4.1h1.5v4.1c0,1.1-0.6,1.5-1.5,1.5
		C399,42,398.8,41.9,398.7,41.9z M399.3,34.8h1.6V36h-1.6V34.8z"/>
	<path class="st2" d="M401.7,34.8h1.6V36h-1.6V34.8z M401.7,36.3h1.5v4.3h-1.5V36.3z"/>
	<path class="st2" d="M403.8,40.1l0.6-0.9c0.5,0.3,1,0.5,1.5,0.5c0.3,0,0.4-0.1,0.4-0.2l0,0c0-0.2-0.2-0.2-0.7-0.4
		c-0.9-0.2-1.5-0.5-1.5-1.4l0,0c0-0.9,0.7-1.4,1.7-1.4c0.6,0,1.3,0.2,1.8,0.5l-0.5,1c-0.4-0.2-0.9-0.4-1.3-0.4
		c-0.2,0-0.4,0.1-0.4,0.2l0,0c0,0.2,0.2,0.2,0.7,0.4c0.9,0.2,1.5,0.5,1.5,1.4l0,0c0,1-0.7,1.4-1.8,1.4
		C405.1,40.8,404.4,40.6,403.8,40.1z"/>
	<path class="st2" d="M408,39.4L408,39.4c0-0.9,0.7-1.4,1.7-1.4c0.4,0,0.8,0.1,1,0.2v-0.1c0-0.4-0.3-0.7-0.9-0.7
		c-0.5,0-0.8,0.1-1.2,0.2l-0.3-1.1c0.5-0.2,1-0.3,1.8-0.3s1.3,0.2,1.6,0.5c0.3,0.3,0.5,0.8,0.5,1.4v2.5h-1.5v-0.4
		c-0.3,0.3-0.7,0.5-1.3,0.5C408.6,40.8,408,40.3,408,39.4z M410.7,39.1v-0.2c-0.2-0.1-0.4-0.1-0.6-0.1c-0.4,0-0.7,0.2-0.7,0.5l0,0
		c0,0.3,0.2,0.5,0.5,0.5C410.4,39.8,410.7,39.5,410.7,39.1z"/>
	<path class="st2" d="M413,34.8h1.5v3l1.2-1.4h1.7l-1.5,1.7l1.5,2.6h-1.7l-0.9-1.5l-0.4,0.5v1H413V34.8z"/>
	<path class="st2" d="M417.8,34.8h1.6V36h-1.6V34.8z M417.9,36.3h1.5v4.3h-1.5V36.3z"/>
	<path class="st2" d="M420.2,41.5l0.5-1c0.5,0.3,0.9,0.4,1.5,0.4c0.8,0,1.1-0.4,1.1-1.1v-0.2c-0.3,0.4-0.7,0.6-1.3,0.6
		c-1.1,0-1.9-0.8-1.9-2l0,0c0-1.2,0.9-2,1.9-2c0.6,0,1,0.3,1.4,0.6v-0.5h1.5v3.3c0,0.8-0.2,1.3-0.6,1.7s-1,0.6-1.9,0.6
		C421.5,42,420.8,41.8,420.2,41.5z M423.3,38.3L423.3,38.3c0-0.5-0.4-0.8-0.9-0.8s-0.9,0.4-0.9,0.8l0,0c0,0.5,0.4,0.8,0.9,0.8
		S423.3,38.8,423.3,38.3z"/>
	<path class="st2" d="M425.6,39.2v-2.8h1.5v2.3c0,0.5,0.2,0.7,0.6,0.7s0.6-0.3,0.6-0.7v-2.3h1.5v4.3h-1.5v-0.6
		c-0.3,0.4-0.7,0.7-1.3,0.7C426.1,40.8,425.6,40.2,425.6,39.2z"/>
</g>
<g>
	<path class="st2" d="M224,440.8h-1.2c0,0.7-0.1,1.1-0.1,1.3c-0.1,0.7-0.2,1.3-0.4,1.7c-0.1,0.2-0.2,0.5-0.4,0.9
		c-0.1-0.1-0.2-0.2-0.2-0.3c-0.2-0.2-0.3-0.4-0.5-0.5c-0.1-0.1-0.2-0.2-0.4-0.3c0.2-0.3,0.4-0.7,0.5-1.1c0.2-0.6,0.3-1.3,0.3-2.1
		c0.1-1.1,0.1-2.5,0.1-4.3c0-1,0-1.8-0.1-2.2c0.3,0,0.7,0.1,1.1,0.1h1.5c0.4,0,0.7,0,0.9-0.1c0,0.2,0,0.6,0,1.1v8.2
		c0,0.4,0,0.6-0.1,0.8c-0.1,0.2-0.3,0.3-0.6,0.4c-0.2,0-0.5,0.1-0.8,0.1c-0.2,0-0.3,0-0.6,0c0-0.2-0.1-0.4-0.1-0.7
		c-0.1-0.2-0.1-0.5-0.2-0.7c0.4,0.1,0.6,0.1,0.8,0.1s0.3,0,0.3-0.1c0.1,0,0.1-0.1,0.1-0.3L224,440.8L224,440.8z M224,438h-1.1
		c0,0.4,0,0.6,0,0.7c0,0.4,0,0.7,0,1h1.2L224,438L224,438z M224,436.9v-1.7h-1.1v1.6v0.1H224z M232,441.5c-0.1,0.9-0.2,1.5-0.3,1.9
		s-0.3,0.7-0.5,0.8c-0.2,0.1-0.6,0.2-1.1,0.2c-0.4,0-1,0-1.6,0c-1,0-1.7-0.1-2.1-0.2c-0.2-0.1-0.4-0.2-0.4-0.4
		c-0.1-0.1-0.1-0.3-0.1-0.6v-8.1c0-0.4,0-0.8,0-1c0.3,0,0.7,0,1.1,0h3.4c0.5,0,0.8,0,1.1,0c0,0.3-0.1,0.7-0.1,1.1v3.3
		c0,0.5,0,0.9,0.1,1.1c-0.3,0-0.7,0-1.1,0h-3.3v3.1c0,0.2,0,0.3,0.1,0.3c0.1,0.1,0.3,0.1,0.6,0.2c0.3,0,0.6,0,1,0
		c0.8,0,1.3,0,1.5-0.1c0.1-0.1,0.2-0.2,0.3-0.3c0.1-0.2,0.1-0.8,0.2-1.7c0.2,0.1,0.5,0.2,0.7,0.3C231.7,441.4,231.9,441.5,232,441.5
		z M228.1,438.5v-3.2h-0.9v3.2H228.1z M229.3,435.3v3.2h1v-3.2H229.3z"/>
	<path class="st2" d="M234.2,439.6c-0.2,0.2-0.5,0.5-0.9,0.9c-0.2-0.5-0.4-0.9-0.6-1.3c0.4-0.3,0.8-0.6,1.2-1c0.5-0.5,0.9-1,1.3-1.6
		c0.1-0.2,0.2-0.4,0.3-0.5l1.1,0.7c-0.1,0.1-0.2,0.3-0.4,0.5l-0.1,0.2l-0.2,0.3c-0.2,0.2-0.3,0.4-0.4,0.5v4.9c0,0.6,0,1.1,0.1,1.4
		h-1.4c0.1-0.3,0.1-0.7,0.1-1.3v-2.2v-0.5C234.2,440.4,234.2,440.1,234.2,439.6z M233.6,436.9c-0.2-0.4-0.4-0.8-0.7-1.1
		c0.4-0.2,0.9-0.5,1.3-0.9c0.5-0.5,0.9-1,1.2-1.5l1.1,0.8l-0.1,0.1C235.5,435.4,234.6,436.3,233.6,436.9z M239.4,436.6
		c1-1.1,1.6-1.8,1.8-2.3l1.2,0.7c0,0.1-0.1,0.1-0.2,0.2l-0.1,0.1c-0.2,0.3-0.6,0.7-1.1,1.3c-0.4,0.5-0.9,0.9-1.3,1.3l-0.1,0.1
		c0.7,0,1.3-0.1,1.9-0.1h0.4c-0.1-0.2-0.4-0.5-0.6-0.8l1-0.6c0.6,0.7,1.2,1.6,1.9,2.6l-1.1,0.7c-0.2-0.4-0.4-0.7-0.5-0.9l-0.5,0.1
		c-0.8,0.1-1.5,0.2-2.1,0.2h-0.2c-0.1,0.2-0.2,0.4-0.4,0.6h1.9c0.5,0,0.8,0,1,0l0.7,0.7c-0.1,0.1-0.1,0.2-0.2,0.3
		c-0.5,0.7-1.1,1.3-1.8,1.9c0.5,0.2,1,0.4,1.7,0.6c0.5,0.1,1,0.2,1.5,0.3c-0.2,0.4-0.4,0.8-0.6,1.3c-0.8-0.1-1.6-0.4-2.4-0.7
		c-0.5-0.2-1-0.4-1.3-0.7c-0.5,0.3-1.1,0.6-1.6,0.8c-0.7,0.3-1.4,0.5-2,0.6c-0.1-0.3-0.2-0.5-0.3-0.6c-0.1-0.2-0.2-0.4-0.3-0.6
		c1.2-0.2,2.2-0.5,3.2-1c-0.4-0.4-0.8-0.7-1-1c-0.4,0.3-0.9,0.7-1.4,1c-0.2-0.3-0.3-0.5-0.4-0.6s-0.2-0.3-0.4-0.5
		c0.6-0.3,1.2-0.6,1.7-1s0.8-0.8,1-1.2h-0.5h-0.5c-0.6,0-1,0.1-1.1,0.1L236,438c0.2,0,0.5,0,0.7,0c0.1,0,0.4,0,0.8,0h0.4l0.2-0.2
		l0.2-0.2l0.1-0.1c-0.2-0.2-0.4-0.4-0.6-0.6c-0.4-0.3-0.9-0.7-1.6-1.2l0.8-0.9c0.3,0.2,0.5,0.3,0.6,0.5c0.3-0.3,0.6-0.7,0.9-1.1
		c0.2-0.3,0.3-0.5,0.4-0.7l1.2,0.6c-0.1,0.1-0.2,0.2-0.3,0.4c-0.2,0.2-0.5,0.6-0.9,1.1c-0.1,0.1-0.2,0.2-0.4,0.4
		C238.9,436.2,239.2,436.4,239.4,436.6z M238.7,440.7c0.3,0.4,0.7,0.8,1.1,1.1c0.5-0.4,0.9-0.7,1.2-1.1H238.7z"/>
	<path class="st2" d="M253.4,439.3c0.1,0.6,0.2,1.1,0.4,1.5c0.7-0.5,1.2-0.9,1.4-1.3l0.8,0.9c-0.1,0.1-0.4,0.3-0.7,0.6
		c-0.3,0.2-0.6,0.5-1,0.7c0.4,0.6,1,1.2,1.9,1.7c-0.3,0.3-0.5,0.7-0.8,1.2c-0.9-0.7-1.6-1.4-2.1-2.2v1.1c-1.1,0.4-2.3,0.7-3.6,1
		c-0.1,0-0.3,0.1-0.4,0.1l-0.2-1c-0.9,0.3-1.9,0.5-3,0.7l-0.4,0.1c-0.3,0-0.4,0.1-0.5,0.1l-0.2-1.3c0.4,0,1-0.1,1.9-0.2h0.1v-3.4
		h-0.7c-0.5,0-0.9,0-1.2,0.1v-1.2c0.3,0,0.7,0.1,1.2,0.1h0.7v-0.9h-0.3c-0.3,0-0.5,0-0.7,0v-0.5c-0.2,0.2-0.4,0.3-0.6,0.5
		c-0.2-0.4-0.3-0.8-0.6-1.2c1.1-0.7,1.8-1.6,2.2-2.6h1.3c0.2,0.4,0.3,0.7,0.5,0.9c0.3,0.4,0.8,0.8,1.3,1.2v-0.5c0-0.6,0-1-0.1-1.3
		c0.3,0,0.7,0,1.2,0h3c0.5,0,0.9,0,1.1-0.1c0,0.2,0,0.7,0,1.3v2.6c0,0.7,0,1.1,0,1.2c-0.2,0-0.5,0-0.9,0L253.4,439.3L253.4,439.3z
		 M246.7,442.3l-1,0.3c-0.1-0.9-0.3-1.6-0.5-2.4l1-0.3C246.5,440.8,246.7,441.6,246.7,442.3z M246.6,436.6h0.2h1.9
		c0.2,0,0.3,0,0.4,0c-0.6-0.5-1-1.1-1.3-1.7C247.4,435.6,247,436.1,246.6,436.6z M248.2,442.7c0.4-0.1,0.9-0.2,1.5-0.4v1
		c0.2,0,0.4-0.1,0.5-0.1V436c-0.3,0.4-0.6,0.7-0.7,1l-0.2-0.1v0.8c-0.2,0-0.5,0-0.7,0h-0.4v0.9h0.6c0.5,0,0.8,0,1-0.1v1.2
		c-0.2,0-0.6-0.1-1-0.1h-0.6L248.2,442.7L248.2,442.7z M249.2,442.2l-0.8-0.3c0.2-0.6,0.4-1.2,0.6-2l0.9,0.3
		C249.7,441,249.5,441.7,249.2,442.2z M251.5,435.3v0.9h2.8v-0.9H251.5z M251.5,437.3v0.9h2.8v-0.9H251.5z M252.2,439.3h-0.7v3.6
		c0.6-0.1,1.2-0.3,1.8-0.5c-0.3-0.5-0.5-0.9-0.7-1.4C252.5,440.6,252.3,440,252.2,439.3z"/>
	<path class="st2" d="M258.6,439.6c-0.1,0.2-0.3,0.4-0.5,0.6s-0.4,0.3-0.6,0.5c-0.2-0.5-0.4-0.9-0.6-1.3c0.5-0.3,0.9-0.7,1.3-1.1
		c0.8-0.8,1.3-1.5,1.6-2.1l1.1,0.7c-0.1,0.1-0.2,0.3-0.4,0.5c-0.2,0.3-0.5,0.6-0.7,0.9v4.7c0,0.7,0,1.2,0.1,1.5h-1.5
		c0-0.3,0.1-0.8,0.1-1.5v-2C258.6,440.7,258.6,440.2,258.6,439.6z M257.7,437.1c-0.2-0.4-0.5-0.8-0.8-1.1c0.8-0.4,1.5-1,2.1-1.6
		c0.3-0.3,0.5-0.6,0.6-0.8l1.1,0.8c-0.1,0.1-0.2,0.2-0.4,0.4C259.7,435.7,258.7,436.5,257.7,437.1z M264.8,438.4h-2.3
		c-0.6,0-1.1,0-1.5,0.1v-1.3c0.4,0.1,0.8,0.1,1.5,0.1h4.1c0.7,0,1.2,0,1.5-0.1v1.3c-0.4-0.1-0.9-0.1-1.4-0.1h-0.5v4.8
		c0,0.4-0.1,0.6-0.2,0.8c-0.1,0.2-0.3,0.3-0.6,0.4c-0.2,0.1-0.6,0.1-1,0.1s-0.8,0-1.3,0c0-0.5-0.2-0.9-0.3-1.3
		c0.7,0.1,1.2,0.1,1.6,0.1c0.3,0,0.4,0,0.5-0.1c0.1,0,0.1-0.1,0.1-0.2v-4.6H264.8z M261.5,435.5v-1.3c0.3,0,0.7,0.1,1.4,0.1h3.2
		c0.6,0,1.1,0,1.4-0.1v1.3c-0.4,0-0.8-0.1-1.3-0.1h-3.3C262.3,435.4,261.8,435.4,261.5,435.5z"/>
</g>
<g>
	<path class="st2" d="M221.9,452.5h1.6v2.1h2v-2.1h1.6v5.6h-1.6V456h-2v2.1h-1.6V452.5z"/>
	<path class="st2" d="M227.9,452.3h1.6v1.1h-1.6V452.3z M228,453.8h1.5v4.3H228V453.8z"/>
	<path class="st2" d="M230.3,458.9l0.5-1c0.5,0.3,0.9,0.4,1.5,0.4c0.8,0,1.1-0.4,1.1-1.1V457c-0.3,0.4-0.7,0.6-1.3,0.6
		c-1.1,0-1.9-0.8-1.9-2l0,0c0-1.2,0.9-2,1.9-2c0.6,0,1,0.3,1.4,0.6v-0.5h1.5v3.3c0,0.8-0.2,1.3-0.6,1.7c-0.4,0.4-1,0.6-1.9,0.6
		C231.6,459.4,230.9,459.2,230.3,458.9z M233.4,455.7L233.4,455.7c0-0.5-0.4-0.8-0.9-0.8s-0.9,0.4-0.9,0.8l0,0
		c0,0.5,0.4,0.8,0.9,0.8C233.1,456.6,233.4,456.2,233.4,455.7z"/>
	<path class="st2" d="M235.6,456L235.6,456c0-1.2,1-2.3,2.4-2.3s2.4,1,2.4,2.2l0,0c0,1.2-1,2.3-2.4,2.3S235.6,457.2,235.6,456z
		 M238.9,456L238.9,456c0-0.5-0.4-1-0.9-1c-0.6,0-0.9,0.4-0.9,1l0,0c0,0.5,0.4,1,0.9,1C238.5,456.9,238.9,456.5,238.9,456z"/>
	<path class="st2" d="M243.3,452.5h2.9c0.7,0,1.2,0.2,1.5,0.5c0.2,0.2,0.4,0.5,0.4,0.9l0,0c0,0.6-0.4,1-0.9,1.2
		c0.7,0.2,1.1,0.6,1.1,1.4l0,0c0,1-0.8,1.5-2.1,1.5h-2.9V452.5z M245.8,454.8c0.5,0,0.7-0.2,0.7-0.5l0,0c0-0.3-0.2-0.5-0.7-0.5h-1v1
		H245.8z M246,456.9c0.5,0,0.7-0.2,0.7-0.5l0,0c0-0.3-0.2-0.5-0.8-0.5h-1.2v1H246z"/>
	<path class="st2" d="M248.7,456.9L248.7,456.9c0-0.9,0.7-1.4,1.7-1.4c0.4,0,0.8,0.1,1,0.2v-0.1c0-0.4-0.3-0.7-0.9-0.7
		c-0.5,0-0.8,0.1-1.2,0.2L249,454c0.5-0.2,1-0.3,1.8-0.3s1.3,0.2,1.6,0.5s0.5,0.8,0.5,1.4v2.5h-1.5v-0.4c-0.3,0.3-0.7,0.5-1.3,0.5
		C249.4,458.2,248.7,457.8,248.7,456.9z M251.5,456.6v-0.2c-0.2-0.1-0.4-0.1-0.6-0.1c-0.4,0-0.7,0.2-0.7,0.5l0,0
		c0,0.3,0.2,0.5,0.5,0.5C251.2,457.3,251.5,457,251.5,456.6z"/>
	<path class="st2" d="M253.7,453.8h1.5v0.6c0.3-0.4,0.7-0.7,1.3-0.7c0.9,0,1.5,0.6,1.5,1.6v2.8h-1.5v-2.3c0-0.5-0.2-0.7-0.6-0.7
		s-0.6,0.3-0.6,0.7v2.3h-1.5L253.7,453.8L253.7,453.8z"/>
	<path class="st2" d="M258.8,452.3h1.5v3l1.2-1.4h1.7l-1.5,1.7l1.5,2.6h-1.7l-0.9-1.5l-0.4,0.5v1h-1.5L258.8,452.3L258.8,452.3z"/>
</g>
<g>
	<line class="st1" x1="3" y1="325.6" x2="436.5" y2="325.6"/>
</g>
<g>
	<path class="st3" d="M436.5,470H202.3c-7,0-12.8-5.7-12.8-12.8V104.4"/>
</g>
<path class="st3" d="M189.5,602V477.8"/>
<circle class="st2" cx="207.1" cy="454.6" r="5.2"/>
<g>
	<path class="st2" d="M171.4,185.8c-1.2,0-2.3-0.5-3.1-1.4c-5.1-6.2-13.7-18-13.7-27.1c0-9.3,7.5-16.8,16.8-16.8s16.8,7.5,16.8,16.8
		c0,8.4-7.7,19.4-12.2,25.2l-1.5,1.9C173.7,185.2,172.5,185.8,171.4,185.8z"/>
	<path class="st4" d="M171.4,142c8.4,0,15.3,6.9,15.3,15.3c0,8-7.4,18.6-11.9,24.3l-1.5,1.8c-0.5,0.6-1.2,0.9-1.9,0.9
		s-1.4-0.3-1.9-0.9c-4.1-5-13.4-17.2-13.4-26.1C156.1,148.8,163,142,171.4,142 M171.4,139c-10.1,0-18.3,8.2-18.3,18.3
		c0,9.6,8.8,21.7,14,28c1,1.3,2.6,2,4.2,2c1.6,0,3.2-0.7,4.2-2l1.5-1.8l0,0l0,0c5.7-7.3,12.5-17.7,12.5-26.2
		C189.7,147.2,181.5,139,171.4,139L171.4,139z"/>
</g>
<circle class="st4" cx="171.3" cy="157.4" r="5.7"/>
<g>
	<path class="st3" d="M134.5,104.5V20"/>
</g>
<g>
	<path class="st2" d="M221.4,220.3h2.3v6.4h4.1v2h-6.4L221.4,220.3L221.4,220.3z"/>
	<path class="st2" d="M231.9,220.3h2.2l3.6,8.5h-2.5l-0.6-1.5h-3.2l-0.6,1.5h-2.4L231.9,220.3z M234,225.4l-1-2.4l-0.9,2.4H234z"/>
	<path class="st2" d="M237.3,220.3h2.5l1.5,4.9l1.6-4.9h2l1.6,4.9l1.5-4.9h2.4l-2.8,8.5h-2l-1.7-4.8l-1.7,4.8h-2L237.3,220.3z"/>
	<path class="st2" d="M250.5,227.5l1.3-1.5c0.8,0.7,1.8,1,2.7,1c0.6,0,1-0.2,1-0.6l0,0c0-0.3-0.3-0.5-1.4-0.8
		c-1.8-0.4-3.2-0.9-3.2-2.6l0,0c0-1.6,1.2-2.7,3.3-2.7c1.4,0,2.5,0.4,3.5,1.1l-1.2,1.6c-0.8-0.5-1.6-0.8-2.4-0.8
		c-0.6,0-0.8,0.2-0.8,0.5l0,0c0,0.4,0.3,0.6,1.5,0.8c1.9,0.4,3.1,1,3.1,2.6l0,0c0,1.7-1.4,2.7-3.4,2.7
		C252.9,228.9,251.5,228.4,250.5,227.5z"/>
	<path class="st2" d="M258.6,224.6L258.6,224.6c0-2.4,1.9-4.4,4.5-4.4s4.5,1.9,4.5,4.3l0,0c0,2.4-1.9,4.4-4.5,4.4
		C260.5,228.9,258.6,227,258.6,224.6z M265.3,224.6L265.3,224.6c0-1.2-0.9-2.3-2.2-2.3c-1.3,0-2.1,1-2.1,2.2l0,0
		c0,1.2,0.9,2.3,2.1,2.3C264.4,226.8,265.3,225.8,265.3,224.6z"/>
	<path class="st2" d="M269,220.3h2.2l3.5,4.4v-4.4h2.3v8.4h-2l-3.6-4.6v4.6H269V220.3z"/>
</g>
<circle class="st2" cx="207.1" cy="224.6" r="5.2"/>
<g>
	<path class="st2" d="M220.7,551.3l1.3-1.5c0.8,0.7,1.8,1,2.7,1c0.6,0,1-0.2,1-0.6l0,0c0-0.3-0.3-0.5-1.4-0.8
		c-1.8-0.4-3.2-0.9-3.2-2.6l0,0c0-1.6,1.2-2.7,3.3-2.7c1.4,0,2.5,0.4,3.5,1.1l-1.2,1.6c-0.8-0.5-1.6-0.8-2.4-0.8
		c-0.6,0-0.8,0.2-0.8,0.5l0,0c0,0.4,0.3,0.6,1.5,0.8c1.9,0.4,3.1,1,3.1,2.6l0,0c0,1.7-1.4,2.7-3.4,2.7
		C223.2,552.6,221.8,552.2,220.7,551.3z"/>
	<path class="st2" d="M229.3,544.1h6.8v2h-4.5v1.3h4v1.8h-4v1.3h4.5v2h-6.8V544.1z"/>
	<path class="st2" d="M236.8,544.1h2.6l1.9,5.3l1.9-5.3h2.6l-3.4,8.5h-2.2L236.8,544.1z"/>
	<path class="st2" d="M246.7,544.1h6.8v2H249v1.3h4v1.8h-4v1.3h4.5v2h-6.8V544.1z"/>
	<path class="st2" d="M255,544.1h2.2l3.5,4.4v-4.4h2.3v8.4h-2l-3.6-4.6v4.6H255V544.1z"/>
	<path class="st2" d="M264.5,547.8h3.9v2h-3.9V547.8z"/>
	<path class="st2" d="M270,544.1h6.8v2h-4.5v1.3h4v1.8h-4v1.3h4.5v2H270V544.1z"/>
	<path class="st2" d="M278.3,544.1h2.3v6.4h4.1v2h-6.4V544.1z"/>
	<path class="st2" d="M285.6,544.1h6.8v2h-4.5v1.3h4v1.8h-4v1.3h4.5v2h-6.8V544.1z"/>
	<path class="st2" d="M293.1,544.1h2.6l1.9,5.3l1.9-5.3h2.6l-3.4,8.5h-2.2L293.1,544.1z"/>
	<path class="st2" d="M303,544.1h6.8v2h-4.5v1.3h4v1.8h-4v1.3h4.5v2H303V544.1z"/>
	<path class="st2" d="M311.2,544.1h2.2l3.5,4.4v-4.4h2.3v8.4h-2l-3.6-4.6v4.6h-2.3v-8.4H311.2z"/>
</g>
<circle class="st2" cx="207.1" cy="547.4" r="5.2"/>
<g>
	<path class="st1" d="M100.2,560.6l17.3-153.7c0.7-6.5,6.2-11.3,12.7-11.3h306.4"/>
</g>
<g>
	<path class="st2" d="M221.9,183.4c0.4-0.6,0.7-1.2,0.9-1.7l1.3,0.2c0,0.1-0.1,0.2-0.2,0.3c-0.2,0.4-0.5,0.8-0.7,1.2
		c0.6,0,1.1-0.1,1.5-0.1h0.2c-0.1-0.2-0.3-0.4-0.5-0.7l0.9-0.5c0.3,0.4,0.6,0.7,0.7,1c0.2,0.2,0.4,0.6,0.7,1.2l-1,0.6
		c-0.1-0.2-0.2-0.4-0.3-0.6c-0.9,0.1-2.2,0.2-3.7,0.3c-0.3,0-0.5,0-0.7,0.1l-0.1-1.2C221.1,183.4,221.4,183.4,221.9,183.4z
		 M222,192.8l-1.1-0.8c0.4-0.3,0.7-0.6,0.9-0.9c0.2-0.3,0.4-0.6,0.6-1l1.2,0.5C223.2,191.4,222.7,192.1,222,192.8z M222.7,188.4v0.5
		c0,0.6,0,0.9,0,1h-1.3c0-0.3,0.1-0.7,0.1-1.3v-2.9c0-0.4,0-0.8,0-0.9c0.2,0,0.5,0,0.9,0h2.7c0.5,0,0.8,0,0.9,0c0,0.2,0,0.5,0,1.1
		v2.8c0,0.3,0,0.5,0,0.5c-0.1,0.2-0.2,0.4-0.4,0.5s-0.5,0.1-0.9,0.1c-0.3,0-0.6,0-0.9,0c0-0.4-0.1-0.7-0.2-1c0.4,0.1,0.7,0.1,1,0.1
		c0.1,0,0.2,0,0.3,0c0,0,0.1-0.1,0.1-0.2v-0.2h-2.3V188.4z M222.7,186.2h2.2v-0.5h-2.2V186.2z M222.7,187.5h2.2V187h-2.2V187.5z
		 M225.8,192.6l-1.3,0.1c0-0.2,0-0.4,0-0.5c0-0.5-0.1-1.2-0.2-1.8l1.2-0.1C225.7,191,225.8,191.8,225.8,192.6z M228.6,192.4
		l-1.3,0.3c-0.1-0.8-0.3-1.6-0.6-2.3l1.2-0.3c0.2,0.4,0.3,0.8,0.4,1C228.3,191.5,228.5,191.9,228.6,192.4z M228,186.8
		c0.7-0.1,1.3-0.3,1.9-0.5c0.2-0.1,0.5-0.2,0.7-0.3l0.9,1c-0.1,0-0.2,0.1-0.3,0.1h-0.1c-1.1,0.4-2.1,0.6-3,0.8v0.4
		c0,0.1,0,0.2,0.1,0.2c0.1,0.1,0.4,0.1,1.1,0.1c0.6,0,0.9,0,1-0.1c0.1,0,0.2-0.1,0.2-0.2c0-0.1,0.1-0.3,0.1-0.8
		c0.4,0.2,0.8,0.3,1.2,0.3c-0.1,0.6-0.1,1-0.2,1.2c-0.1,0.3-0.4,0.4-0.7,0.5s-0.9,0.1-1.8,0.1c-1,0-1.7-0.1-1.9-0.3
		c-0.1-0.1-0.2-0.2-0.3-0.3c0-0.1-0.1-0.2-0.1-0.4v-1.8c0-0.4,0-0.7-0.1-1h1.4C228,186.2,228,186.5,228,186.8z M228.1,182.8
		c0.7-0.1,1.3-0.3,2-0.5c0.2-0.1,0.5-0.2,0.7-0.3l0.9,0.9c-0.1,0-0.3,0.1-0.4,0.1c-1,0.4-2,0.6-3.1,0.8v0.3c0,0.1,0,0.2,0.1,0.2
		c0.1,0.1,0.4,0.1,1,0.1c0.5,0,0.8,0,1-0.1c0.2,0,0.2-0.1,0.3-0.3s0.1-0.4,0.1-0.7c0.2,0.1,0.4,0.2,0.6,0.2c0.2,0.1,0.4,0.1,0.6,0.1
		c0,0.5-0.1,0.8-0.2,1c-0.1,0.3-0.3,0.6-0.7,0.7c-0.3,0.1-0.8,0.1-1.6,0.1c-0.7,0-1.2,0-1.5-0.1c-0.4-0.1-0.7-0.2-0.8-0.3
		s-0.2-0.3-0.2-0.6v-1.9c0-0.4,0-0.7-0.1-0.9h1.4c0,0.2-0.1,0.5-0.1,0.8V182.8z M231.9,192.1l-1.2,0.7c-0.2-0.5-0.5-0.9-0.7-1.2
		s-0.5-0.7-0.8-1.1l1.1-0.6C230.9,190.6,231.4,191.4,231.9,192.1z"/>
	<path class="st2" d="M237,185h-2.3c-0.5,0-1,0-1.4,0.1v-1.5c0.4,0.1,0.9,0.1,1.4,0.1h3.1v-0.9c0-0.4,0-0.8-0.1-1.1h1.5
		c-0.1,0.3-0.1,0.7-0.1,1.1v0.9h3.2c0.7,0,1.1,0,1.4-0.1v1.5c-0.4,0-0.9-0.1-1.4-0.1h-2.6c0.5,1,1.1,1.8,1.8,2.5
		c0.4,0.5,0.9,0.9,1.5,1.3c0.3,0.3,0.7,0.5,1.1,0.7c-0.3,0.4-0.6,0.8-0.8,1.3c-0.6-0.4-1.3-1-2-1.7v1.3c-0.3,0-0.7-0.1-1.2-0.1H239
		v0.8c0,0.6,0,1.1,0.1,1.5h-1.5c0.1-0.4,0.1-0.9,0.1-1.5v-0.8h-1c-0.5,0-0.9,0-1.2,0.1v-1.3c-0.7,0.7-1.3,1.2-1.9,1.7
		c-0.2-0.5-0.5-0.9-0.8-1.3c0.5-0.3,1-0.7,1.4-1.1c0.8-0.7,1.4-1.4,2-2.3C236.5,185.8,236.8,185.4,237,185z M237.7,189.2v-1.9
		c0-0.4,0-0.9,0.1-1.3c-0.5,1.1-1.3,2.2-2.2,3.2c0.2,0,0.6,0,1.1,0H237.7z M241.2,189.2c-0.4-0.4-0.8-0.8-1.2-1.4
		c-0.3-0.5-0.7-1.1-1.1-1.8c0.1,0.4,0.1,0.9,0.1,1.3v1.9h1.2C240.7,189.2,241,189.2,241.2,189.2z"/>
	<path class="st2" d="M249.8,190.2c-0.5,0.5-1.1,1-1.9,1.5c-0.8,0.5-1.5,0.8-2.3,1c-0.2-0.4-0.5-0.8-0.8-1.1
		c0.8-0.2,1.6-0.5,2.3-0.8s1.3-0.7,1.8-1.2h-2.1c0,0.2-0.1,0.4-0.2,0.6h-1.4c0.3-0.7,0.5-1.4,0.7-2.2c0.1-0.7,0.2-1.1,0.2-1.3
		c0.2,0,0.6,0,1.1,0h2.5v-0.8H247c-0.5,0-0.8,0-1.1,0v-1.1c-0.1,0.1-0.2,0.2-0.4,0.3c-0.1-0.2-0.2-0.4-0.4-0.5
		c-0.1-0.2-0.3-0.3-0.4-0.4c1-0.7,1.6-1.5,1.9-2.4l1.3,0.2c-0.1,0.3-0.2,0.5-0.4,0.7h1.5c0.5,0,0.9,0,1.2-0.1v1
		c0.5-0.5,0.8-1.1,1-1.8l1.3,0.2c-0.1,0.2-0.2,0.4-0.3,0.7h2.3c0.6,0,1,0,1.3-0.1v1.2c-0.3,0-0.7-0.1-1.3-0.1h-0.9
		c0.2,0.3,0.4,0.6,0.5,0.8l-1,0.3h0.6c0.5,0,0.9,0,1.1,0c0,0.2,0,0.5,0,0.8v1.2c0,0.4,0,0.7,0,0.9c-0.3,0-0.6,0-1.1,0h-2.8v0.8h3.4
		c0.4,0,0.8,0,1,0c0,0.2-0.1,0.4-0.1,0.8c-0.1,1-0.2,1.6-0.2,1.7c-0.1,0.3-0.2,0.6-0.3,0.7c-0.1,0.2-0.4,0.3-0.7,0.3
		c-0.2,0-0.4,0-0.7,0s-0.7,0-1.1,0c-0.1-0.4-0.2-0.8-0.3-1.2c0.5,0.1,1,0.1,1.3,0.1s0.5-0.1,0.6-0.2c0.1-0.1,0.1-0.5,0.2-1.2h-3.1v2
		c0,0.6,0,1,0.1,1.3h-1.4c0-0.3,0.1-0.7,0.1-1.1c0-0.1,0-0.2,0-0.2L249.8,190.2z M248.1,184.8c-0.1-0.3-0.3-0.7-0.5-1.1h-0.7
		c-0.3,0.4-0.6,0.7-0.9,1.1c0.2,0,0.6,0.1,1.1,0.1h1V184.8z M249.8,188.5v-0.8h-2.5c0,0.2-0.1,0.5-0.2,0.8H249.8z M248.3,184.8h2.2
		c-0.2-0.2-0.4-0.5-0.8-0.7c0.2-0.1,0.3-0.3,0.4-0.4c-0.2,0-0.4,0-0.7,0h-0.7c0.1,0.2,0.3,0.4,0.5,0.8L248.3,184.8z M253,184.8
		c-0.1-0.3-0.3-0.6-0.6-1.1h-0.7c-0.3,0.4-0.6,0.8-1,1.1H253z M251,185.8v0.8h2.6v-0.8H251z"/>
	<path class="st2" d="M267.8,187.9c-0.5-0.1-1.1-0.1-1.8-0.1h-7.1c-0.8,0-1.4,0-1.8,0.1v-1.6c0.4,0.1,1,0.1,1.8,0.1h7.1
		c0.9,0,1.5,0,1.8-0.1V187.9z"/>
	<path class="st2" d="M271.4,184.6v6.9c0,0.5,0,1,0.1,1.4H270c0-0.4,0.1-0.9,0.1-1.4v-3.6c0-0.4,0-0.8,0-1.3
		c-0.1,0.3-0.3,0.5-0.4,0.7s-0.3,0.3-0.4,0.6c-0.1-0.5-0.3-1-0.5-1.4c0.8-0.8,1.4-1.8,1.8-3.1c0.2-0.6,0.4-1.2,0.4-1.7l1.3,0.5
		c0,0.1-0.1,0.3-0.2,0.6C271.9,183.4,271.6,184,271.4,184.6z M272,183.8c0.3,0,0.6,0.1,1,0.1h5.8c0.5,0,0.8,0,1.1-0.1v1.2
		c-0.3,0-0.7-0.1-1.1-0.1H273c-0.4,0-0.7,0-1,0.1V183.8z M273.9,192.3v0.6h-1.3c0-0.3,0.1-0.6,0.1-1.1V190c0-0.4,0-0.8,0-1
		c0.2,0,0.6,0,1,0h4.5c0.5,0,0.8,0,1,0c0,0.3,0,0.6,0,1v1.7c0,0.4,0,0.8,0.1,1.1H278v-0.6h-4.1V192.3z M279.1,186.7
		c-0.2,0-0.5,0-0.9,0h-4.6c-0.4,0-0.6,0-0.9,0v-1.1c0.2,0,0.5,0,0.9,0h4.6c0.4,0,0.7,0,0.9,0V186.7z M279.1,188.4
		c-0.3,0-0.6,0-0.9,0h-4.6c-0.4,0-0.6,0-0.9,0v-1.1c0.2,0,0.5,0,0.9,0h4.6c0.4,0,0.7,0,0.9,0V188.4z M279.1,183.3
		c-0.3,0-0.6,0-1.2,0h-4c-0.5,0-0.8,0-1.1,0v-1.1c0.3,0,0.7,0.1,1.2,0.1h3.8c0.6,0,1,0,1.3-0.1L279.1,183.3L279.1,183.3z
		 M273.9,191.1h3.9v-1h-3.9V191.1z"/>
	<path class="st2" d="M285.9,189.1h-2.8c-0.1,1.5-0.6,2.8-1.2,3.8c-0.4-0.4-0.8-0.7-1.2-0.9c0.4-0.6,0.7-1.3,0.9-2
		c0.1-0.6,0.2-1.2,0.2-1.8c0.1-1.1,0.1-2.5,0.1-4.2c0-0.7,0-1.2-0.1-1.7c0.3,0,0.8,0,1.4,0h6.7c0.6,0,1.1,0,1.4,0
		c0,0.3-0.1,0.8-0.1,1.4v7.9c0,0.3,0,0.6-0.1,0.8s-0.3,0.3-0.6,0.4c-0.2,0.1-0.6,0.1-1,0.1c-0.5,0-0.9,0-1.3,0
		c0-0.4-0.2-0.8-0.3-1.3c0.6,0.1,1.1,0.1,1.5,0.1c0.2,0,0.4,0,0.5-0.1c0.1,0,0.1-0.1,0.1-0.3v-2.1h-2.9v2c0,0.7,0,1.2,0.1,1.4h-1.4
		c0-0.3,0.1-0.8,0.1-1.4L285.9,189.1L285.9,189.1z M285.9,187.9v-1.6h-2.6c0,0.4,0,0.6,0,0.8c0,0.4,0,0.7,0,0.9L285.9,187.9
		L285.9,187.9z M285.9,185.1v-1.6h-2.6v1.2v0.3h2.6V185.1z M287.2,185.1h2.9v-1.6h-2.9V185.1z M287.2,187.9h2.9v-1.6h-2.9V187.9z"/>
	<path class="st2" d="M297.7,186.2h-1.1c-0.5,0-0.9,0-1.2,0.1v-0.6c-0.6,0.4-1.3,0.7-2,1c-0.1-0.3-0.3-0.5-0.3-0.7
		c-0.1-0.2-0.2-0.3-0.4-0.6c0.6-0.2,1.2-0.5,1.9-0.8c0.9-0.5,1.6-1,2.3-1.7c0.3-0.3,0.5-0.6,0.7-0.9h1.5c0.4,0.6,1,1.2,1.9,1.9
		c1,0.7,2,1.2,3.2,1.6c-0.3,0.4-0.5,0.9-0.7,1.3c-0.8-0.3-1.5-0.7-2.1-1.1v0.6c-0.3,0-0.7-0.1-1.2-0.1H299v1.2h3c0.6,0,1,0,1.3-0.1
		v1.3c-0.3,0-0.7-0.1-1.3-0.1h-3v2.7h3.3c0.6,0,1.1,0,1.4-0.1v1.4c-0.4,0-0.9-0.1-1.4-0.1h-7.6c-0.6,0-1.1,0-1.5,0.1v-1.4
		c0.4,0,0.9,0.1,1.5,0.1h3v-2.7h-2.8c-0.6,0-1,0-1.3,0.1v-1.3c0.3,0,0.7,0.1,1.3,0.1h2.8L297.7,186.2L297.7,186.2z M294.6,189.1
		l1.2-0.5c0.4,0.6,0.7,1.3,1,2l-1.2,0.5c-0.1-0.3-0.2-0.6-0.4-0.9C295,189.8,294.8,189.4,294.6,189.1z M296.3,185.1h0.1h0.1h3.7
		c0.1,0,0.2,0,0.3,0c-0.9-0.7-1.6-1.3-2.2-2C297.9,183.7,297.2,184.4,296.3,185.1z M301,188.7l1.3,0.5c-0.1,0.2-0.3,0.6-0.6,1.2
		c0,0.1-0.2,0.4-0.5,0.8l-1.1-0.4c0.2-0.3,0.3-0.6,0.5-0.9C300.8,189.4,300.9,189,301,188.7z"/>
	<path class="st2" d="M310.8,183.7H307c0,1.9,0,3.4-0.1,4.5c-0.1,1.3-0.3,2.3-0.6,3.2c-0.2,0.5-0.4,1-0.6,1.3
		c-0.3-0.5-0.7-0.9-1-1.1c0.2-0.4,0.4-0.7,0.5-1.1c0.2-0.7,0.4-1.7,0.5-2.7c0.1-0.9,0.1-2.3,0.1-4c0-0.4,0-0.8-0.1-1.2
		c0.4,0,0.9,0.1,1.5,0.1h2.9v-0.2c0-0.3,0-0.5-0.1-0.7h1.4c0,0.2-0.1,0.4-0.1,0.7v0.2h3.1c0.6,0,1.1,0,1.4-0.1v1.2
		c-0.3,0-0.7-0.1-1.3-0.1H312v0.6h2.6c0.5,0,0.8,0,1.1-0.1v1.1c-0.3,0-0.6-0.1-1.1-0.1H312v0.6h2c0.5,0,0.8,0,1.1,0c0,0.2,0,0.6,0,1
		v1.9c0,0.5,0,0.8,0,1c-0.3,0-0.6,0-1.1,0h-2v0.7h2.6c0.6,0,1.1,0,1.3-0.1v1.2c-0.3,0-0.8-0.1-1.4-0.1H312v0.2c0,0.5,0,0.9,0.1,1.2
		h-1.4c0-0.3,0.1-0.7,0.1-1.2v-0.1h-2.3c-0.6,0-1,0-1.4,0.1v-1.2c0.3,0,0.7,0.1,1.2,0.1h2.5v-0.7H309c-0.5,0-0.9,0-1.2,0
		c0-0.2,0-0.6,0-1v-1.9c0-0.4,0-0.7,0-1c0.3,0,0.7,0,1.2,0h1.8v-0.6h-2.2c-0.5,0-0.8,0-1.1,0.1v-1.1c0.3,0,0.6,0.1,1.1,0.1h2.2
		L310.8,183.7L310.8,183.7z M310.8,186.9H309v0.5h1.8V186.9z M310.8,188.3H309v0.6h1.8V188.3z M312,186.9v0.5h1.9v-0.5H312z
		 M312,188.3v0.6h1.9v-0.6H312z"/>
</g>
<g>
	<path class="st2" d="M222.4,199.8h1.6v2.3l1.9-2.3h1.8l-2.1,2.4l2.2,3.2H226l-1.4-2.1l-0.6,0.6v1.4h-1.6V199.8z"/>
	<path class="st2" d="M228.2,203.9V201h1.5v2.3c0,0.5,0.2,0.7,0.6,0.7c0.4,0,0.6-0.3,0.6-0.7V201h1.5v4.3h-1.5v-0.6
		c-0.3,0.4-0.7,0.7-1.3,0.7C228.7,205.4,228.2,204.8,228.2,203.9z"/>
	<path class="st2" d="M233.3,201h1.5v0.6c0.3-0.4,0.7-0.7,1.3-0.7s1,0.3,1.2,0.7c0.4-0.4,0.8-0.7,1.4-0.7c0.9,0,1.5,0.6,1.5,1.6v2.8
		h-1.5V203c0-0.5-0.2-0.7-0.6-0.7c-0.4,0-0.6,0.2-0.6,0.7v2.4H236V203c0-0.5-0.2-0.7-0.6-0.7c-0.4,0-0.6,0.2-0.6,0.7v2.4h-1.5
		L233.3,201L233.3,201z"/>
	<path class="st2" d="M240.8,204.1L240.8,204.1c0-0.9,0.7-1.4,1.7-1.4c0.4,0,0.8,0.1,1,0.2v-0.1c0-0.4-0.3-0.7-0.9-0.7
		c-0.5,0-0.8,0.1-1.2,0.2l-0.3-1.1c0.5-0.2,1-0.3,1.8-0.3s1.3,0.2,1.6,0.5s0.5,0.8,0.5,1.4v2.5h-1.5v-0.4c-0.3,0.3-0.7,0.5-1.3,0.5
		C241.5,205.4,240.8,205,240.8,204.1z M243.6,203.8v-0.2c-0.2-0.1-0.4-0.1-0.6-0.1c-0.4,0-0.7,0.2-0.7,0.5l0,0
		c0,0.3,0.2,0.5,0.5,0.5C243.3,204.5,243.6,204.2,243.6,203.8z"/>
	<path class="st2" d="M245.8,201h1.5v0.6c0.3-0.4,0.7-0.7,1.3-0.7s1,0.3,1.2,0.7c0.4-0.4,0.8-0.7,1.4-0.7c0.9,0,1.5,0.6,1.5,1.6v2.8
		h-1.5V203c0-0.5-0.2-0.7-0.6-0.7c-0.4,0-0.6,0.2-0.6,0.7v2.4h-1.5V203c0-0.5-0.2-0.7-0.6-0.7c-0.4,0-0.6,0.2-0.6,0.7v2.4h-1.5
		L245.8,201L245.8,201z"/>
	<path class="st2" d="M253.4,203.2L253.4,203.2c0-1.2,1-2.3,2.4-2.3s2.4,1,2.4,2.2l0,0c0,1.2-1,2.3-2.4,2.3
		C254.4,205.5,253.4,204.4,253.4,203.2z M256.7,203.2L256.7,203.2c0-0.5-0.4-1-0.9-1c-0.6,0-0.9,0.4-0.9,1l0,0c0,0.5,0.4,1,0.9,1
		C256.4,204.2,256.7,203.7,256.7,203.2z"/>
	<path class="st2" d="M259.1,204v-1.8h-0.5V201h0.5v-1.1h1.5v1.1h1v1.2h-1v1.5c0,0.3,0.1,0.4,0.4,0.4c0.2,0,0.4-0.1,0.6-0.1v1.2
		c-0.3,0.2-0.6,0.2-1.1,0.2C259.7,205.4,259.1,205,259.1,204z"/>
	<path class="st2" d="M262.1,203.2L262.1,203.2c0-1.2,1-2.3,2.4-2.3s2.4,1,2.4,2.2l0,0c0,1.2-1,2.3-2.4,2.3
		C263.1,205.5,262.1,204.4,262.1,203.2z M265.4,203.2L265.4,203.2c0-0.5-0.4-1-0.9-1c-0.6,0-0.9,0.4-0.9,1l0,0c0,0.5,0.4,1,0.9,1
		C265.1,204.2,265.4,203.7,265.4,203.2z"/>
	<path class="st2" d="M269.8,199.8h2.2c2,0,3.2,1.2,3.2,2.8l0,0c0,1.6-1.2,2.8-3.2,2.8h-2.1v-5.6H269.8z M272,204
		c0.9,0,1.5-0.5,1.5-1.4l0,0c0-0.9-0.6-1.4-1.5-1.4h-0.6v2.8L272,204L272,204z"/>
	<path class="st2" d="M275.7,204.1L275.7,204.1c0-0.9,0.7-1.4,1.7-1.4c0.4,0,0.8,0.1,1,0.2v-0.1c0-0.4-0.3-0.7-0.9-0.7
		c-0.5,0-0.8,0.1-1.2,0.2l-0.3-1.1c0.5-0.2,1-0.3,1.8-0.3s1.3,0.2,1.6,0.5c0.3,0.3,0.5,0.8,0.5,1.4v2.5h-1.5v-0.4
		c-0.3,0.3-0.7,0.5-1.3,0.5C276.3,205.4,275.7,205,275.7,204.1z M278.4,203.8v-0.2c-0.2-0.1-0.4-0.1-0.6-0.1c-0.4,0-0.7,0.2-0.7,0.5
		l0,0c0,0.3,0.2,0.5,0.5,0.5C278.1,204.5,278.4,204.2,278.4,203.8z"/>
	<path class="st2" d="M280.7,199.5h1.6v1.1h-1.6V199.5z M280.7,201h1.5v4.3h-1.5V201z"/>
	<path class="st2" d="M283,202.2h2.6v1.3H283V202.2z"/>
	<path class="st2" d="M286.3,199.5h1.6v1.1h-1.6V199.5z M286.4,201h1.5v4.3h-1.5V201z"/>
	<path class="st2" d="M288.6,203.2L288.6,203.2c0-1.2,1-2.3,2.3-2.3c0.9,0,1.5,0.4,1.8,1l-1,0.8c-0.2-0.3-0.4-0.5-0.8-0.5
		c-0.5,0-0.8,0.4-0.8,1l0,0c0,0.6,0.4,1,0.9,1c0.4,0,0.6-0.2,0.8-0.4l1,0.7c-0.4,0.6-1,1-1.9,1C289.5,205.5,288.6,204.4,288.6,203.2
		z"/>
	<path class="st2" d="M293.3,199.5h1.5v2.1c0.3-0.4,0.7-0.7,1.3-0.7c0.9,0,1.5,0.6,1.5,1.6v2.8h-1.5V203c0-0.5-0.2-0.7-0.6-0.7
		s-0.6,0.3-0.6,0.7v2.3h-1.5L293.3,199.5L293.3,199.5z"/>
	<path class="st2" d="M298.4,199.5h1.6v1.1h-1.6V199.5z M298.4,201h1.5v4.3h-1.5V201z"/>
	<path class="st2" d="M302.6,204.5l0.9-1c0.6,0.4,1.2,0.7,1.8,0.7c0.4,0,0.6-0.1,0.6-0.4l0,0c0-0.2-0.2-0.4-0.9-0.5
		c-1.2-0.3-2.1-0.6-2.1-1.8l0,0c0-1,0.8-1.8,2.2-1.8c1,0,1.7,0.3,2.3,0.7l-0.8,1.1c-0.5-0.4-1.1-0.6-1.6-0.6c-0.4,0-0.6,0.2-0.6,0.4
		l0,0c0,0.3,0.2,0.4,1,0.5c1.3,0.3,2.1,0.7,2.1,1.7l0,0c0,1.1-0.9,1.8-2.3,1.8C304.3,205.4,303.3,205.1,302.6,204.5z"/>
	<path class="st2" d="M308.2,199.5h1.5v2.1c0.3-0.4,0.7-0.7,1.3-0.7c0.9,0,1.5,0.6,1.5,1.6v2.8H311V203c0-0.5-0.2-0.7-0.6-0.7
		s-0.6,0.3-0.6,0.7v2.3h-1.5L308.2,199.5L308.2,199.5z"/>
	<path class="st2" d="M313.3,199.5h1.6v1.1h-1.6V199.5z M313.3,201h1.5v4.3h-1.5V201z"/>
	<path class="st2" d="M315.7,201h1.5v0.6c0.3-0.4,0.7-0.7,1.3-0.7c0.9,0,1.5,0.6,1.5,1.6v2.8h-1.5V203c0-0.5-0.2-0.7-0.6-0.7
		s-0.6,0.3-0.6,0.7v2.3h-1.5L315.7,201L315.7,201z"/>
	<path class="st2" d="M320.7,199.5h1.5v3l1.2-1.4h1.7l-1.5,1.7l1.5,2.6h-1.7l-0.9-1.5l-0.4,0.5v1h-1.5L320.7,199.5L320.7,199.5z"/>
	<path class="st2" d="M325.6,199.5h1.6v1.1h-1.6V199.5z M325.6,201h1.5v4.3h-1.5V201z"/>
	<path class="st2" d="M328,201h1.5v0.6c0.3-0.4,0.7-0.7,1.3-0.7c0.9,0,1.5,0.6,1.5,1.6v2.8h-1.5V203c0-0.5-0.2-0.7-0.6-0.7
		s-0.6,0.3-0.6,0.7v2.3H328V201z"/>
	<path class="st2" d="M335.3,199.8h2.9c0.7,0,1.2,0.2,1.5,0.5c0.2,0.2,0.4,0.5,0.4,0.9l0,0c0,0.6-0.4,1-0.9,1.2
		c0.7,0.2,1.1,0.6,1.1,1.4l0,0c0,1-0.8,1.5-2.1,1.5h-2.9V199.8z M337.8,202c0.5,0,0.7-0.2,0.7-0.5l0,0c0-0.3-0.2-0.5-0.7-0.5h-1v1
		H337.8z M338,204.1c0.5,0,0.7-0.2,0.7-0.5l0,0c0-0.3-0.2-0.5-0.8-0.5h-1.2v1H338z"/>
	<path class="st2" d="M340.8,204.1L340.8,204.1c0-0.9,0.7-1.4,1.7-1.4c0.4,0,0.8,0.1,1,0.2v-0.1c0-0.4-0.3-0.7-0.9-0.7
		c-0.5,0-0.8,0.1-1.2,0.2l-0.3-1.1c0.5-0.2,1-0.3,1.8-0.3s1.3,0.2,1.6,0.5c0.3,0.3,0.5,0.8,0.5,1.4v2.5h-1.5v-0.4
		c-0.3,0.3-0.7,0.5-1.3,0.5C341.4,205.4,340.8,205,340.8,204.1z M343.5,203.8v-0.2c-0.2-0.1-0.4-0.1-0.6-0.1c-0.4,0-0.7,0.2-0.7,0.5
		l0,0c0,0.3,0.2,0.5,0.5,0.5C343.2,204.5,343.5,204.2,343.5,203.8z"/>
	<path class="st2" d="M345.8,201h1.5v0.6c0.3-0.4,0.7-0.7,1.3-0.7c0.9,0,1.5,0.6,1.5,1.6v2.8h-1.5V203c0-0.5-0.2-0.7-0.6-0.7
		s-0.6,0.3-0.6,0.7v2.3h-1.5L345.8,201L345.8,201z"/>
	<path class="st2" d="M350.8,199.5h1.5v3l1.2-1.4h1.7l-1.5,1.7l1.5,2.6h-1.7l-0.9-1.5l-0.4,0.5v1h-1.5L350.8,199.5L350.8,199.5z"/>
</g>
<circle class="st2" cx="207.1" cy="188.1" r="5.2"/>
<g>
	<line class="st1" x1="3" y1="560.6" x2="436.5" y2="560.6"/>
</g>
<g>
	<path class="st2" d="M359.6,452.5h1.6v2.3l1.9-2.3h1.8l-2.1,2.4l2.2,3.2h-1.9l-1.4-2.1l-0.6,0.6v1.4h-1.6v-5.5H359.6z"/>
	<path class="st2" d="M365.3,456.6v-2.8h1.5v2.3c0,0.5,0.2,0.7,0.6,0.7s0.6-0.3,0.6-0.7v-2.3h1.5v4.3H368v-0.6
		c-0.3,0.4-0.7,0.7-1.3,0.7C365.8,458.2,365.3,457.6,365.3,456.6z"/>
	<path class="st2" d="M370.1,457.6l0.6-0.9c0.5,0.3,1,0.5,1.5,0.5c0.3,0,0.4-0.1,0.4-0.2l0,0c0-0.2-0.2-0.2-0.7-0.4
		c-0.9-0.2-1.5-0.5-1.5-1.4l0,0c0-0.9,0.7-1.4,1.7-1.4c0.6,0,1.3,0.2,1.8,0.5l-0.5,1c-0.4-0.2-0.9-0.4-1.3-0.4
		c-0.2,0-0.4,0.1-0.4,0.2l0,0c0,0.2,0.2,0.2,0.7,0.4c0.9,0.2,1.5,0.5,1.5,1.4l0,0c0,1-0.7,1.4-1.8,1.4
		C371.4,458.2,370.7,458,370.1,457.6z"/>
	<path class="st2" d="M374.3,456.9L374.3,456.9c0-0.9,0.7-1.4,1.7-1.4c0.4,0,0.8,0.1,1,0.2v-0.1c0-0.4-0.3-0.7-0.9-0.7
		c-0.5,0-0.8,0.1-1.2,0.2l-0.3-1.1c0.5-0.2,1-0.3,1.8-0.3s1.3,0.2,1.6,0.5c0.3,0.3,0.5,0.8,0.5,1.4v2.5H377v-0.4
		c-0.3,0.3-0.7,0.5-1.3,0.5C374.9,458.2,374.3,457.8,374.3,456.9z M377,456.6v-0.2c-0.2-0.1-0.4-0.1-0.6-0.1c-0.4,0-0.7,0.2-0.7,0.5
		l0,0c0,0.3,0.2,0.5,0.5,0.5C376.7,457.3,377,457,377,456.6z"/>
	<path class="st2" d="M380.8,457.6v0.5h-1.5v-5.8h1.5v2.1c0.3-0.4,0.7-0.7,1.3-0.7c1,0,1.9,0.9,1.9,2.2l0,0c0,1.4-0.9,2.3-1.9,2.3
		C381.5,458.2,381.1,457.9,380.8,457.6z M382.6,456L382.6,456c0-0.6-0.4-1-0.9-1s-0.9,0.4-0.9,1l0,0c0,0.6,0.4,1,0.9,1
		S382.6,456.6,382.6,456z"/>
	<path class="st2" d="M384.5,456.9L384.5,456.9c0-0.9,0.7-1.4,1.7-1.4c0.4,0,0.8,0.1,1,0.2v-0.1c0-0.4-0.3-0.7-0.9-0.7
		c-0.5,0-0.8,0.1-1.2,0.2l-0.3-1.1c0.5-0.2,1-0.3,1.8-0.3s1.3,0.2,1.6,0.5c0.3,0.3,0.5,0.8,0.5,1.4v2.5h-1.5v-0.4
		c-0.3,0.3-0.7,0.5-1.3,0.5C385.1,458.2,384.5,457.8,384.5,456.9z M387.2,456.6v-0.2c-0.2-0.1-0.4-0.1-0.6-0.1
		c-0.4,0-0.7,0.2-0.7,0.5l0,0c0,0.3,0.2,0.5,0.5,0.5C386.9,457.3,387.2,457,387.2,456.6z"/>
	<path class="st2" d="M389.3,456L389.3,456c0-1.2,1-2.3,2.3-2.3c0.9,0,1.5,0.4,1.8,1l-1,0.8c-0.2-0.3-0.4-0.5-0.8-0.5
		c-0.5,0-0.8,0.4-0.8,1l0,0c0,0.6,0.4,1,0.9,1c0.4,0,0.6-0.2,0.8-0.4l1,0.7c-0.4,0.6-1,1-1.9,1C390.3,458.2,389.3,457.2,389.3,456z"
		/>
	<path class="st2" d="M394.1,452.3h1.5v2.1c0.3-0.4,0.7-0.7,1.3-0.7c0.9,0,1.5,0.6,1.5,1.6v2.8h-1.5v-2.3c0-0.5-0.2-0.7-0.6-0.7
		s-0.6,0.3-0.6,0.7v2.3h-1.5L394.1,452.3L394.1,452.3z"/>
	<path class="st2" d="M398.9,456L398.9,456c0-1.2,1-2.3,2.4-2.3s2.4,1,2.4,2.2l0,0c0,1.2-1,2.3-2.4,2.3S398.9,457.2,398.9,456z
		 M402.3,456L402.3,456c0-0.5-0.4-1-0.9-1c-0.6,0-0.9,0.4-0.9,1l0,0c0,0.5,0.4,1,0.9,1C401.9,456.9,402.3,456.5,402.3,456z"/>
	<path class="st2" d="M404.2,456L404.2,456c0-1.4,0.9-2.3,1.9-2.3c0.7,0,1,0.3,1.3,0.6v-2h1.5v5.8h-1.5v-0.6
		c-0.3,0.4-0.7,0.7-1.3,0.7C405.1,458.2,404.2,457.4,404.2,456z M407.5,456L407.5,456c0-0.6-0.4-1-0.9-1s-0.9,0.4-0.9,1l0,0
		c0,0.6,0.4,1,0.9,1S407.5,456.5,407.5,456z"/>
	<path class="st2" d="M409.6,456L409.6,456c0-1.2,1-2.3,2.4-2.3s2.4,1,2.4,2.2l0,0c0,1.2-1,2.3-2.4,2.3S409.6,457.2,409.6,456z
		 M412.9,456L412.9,456c0-0.5-0.4-1-0.9-1c-0.6,0-0.9,0.4-0.9,1l0,0c0,0.5,0.4,1,0.9,1C412.6,456.9,412.9,456.5,412.9,456z"/>
	<path class="st2" d="M415,453.8h1.5v0.9c0.2-0.6,0.6-1,1.4-0.9v1.6h-0.1c-0.8,0-1.2,0.5-1.2,1.5v1.3H415V453.8z"/>
	<path class="st2" d="M418.5,452.3h1.6v1.1h-1.6V452.3z M418.5,453.8h1.5v4.3h-1.5V453.8z"/>
	<path class="st2" d="M422.7,457.3l0.9-1c0.6,0.4,1.2,0.7,1.8,0.7c0.4,0,0.6-0.1,0.6-0.4l0,0c0-0.2-0.2-0.4-0.9-0.5
		c-1.2-0.3-2.1-0.6-2.1-1.8l0,0c0-1,0.8-1.8,2.2-1.8c1,0,1.7,0.3,2.3,0.7l-0.8,1.1c-0.5-0.4-1.1-0.6-1.6-0.6c-0.4,0-0.6,0.2-0.6,0.4
		l0,0c0,0.3,0.2,0.4,1,0.5c1.3,0.3,2.1,0.7,2.1,1.7l0,0c0,1.1-0.9,1.8-2.3,1.8C424.4,458.2,423.4,457.9,422.7,457.3z"/>
	<path class="st2" d="M428.5,456.8V455H428v-1.2h0.5v-1.1h1.5v1.1h1v1.2h-1v1.5c0,0.3,0.1,0.4,0.4,0.4c0.2,0,0.4-0.1,0.6-0.1v1.2
		c-0.3,0.2-0.6,0.2-1.1,0.2C429.1,458.2,428.5,457.8,428.5,456.8z"/>
	<path class="st2" d="M431.7,456.6h1.6v1.6h-1.6V456.6z"/>
</g>
<g>
	<path class="st2" d="M377,434.5v-0.2c0-0.2,0-0.4-0.1-0.7h1.4c0,0.2,0,0.4-0.1,0.7v0.2h2.5v-0.2c0-0.2,0-0.4-0.1-0.7h1.4
		c0,0.2-0.1,0.4-0.1,0.7v0.2h1.6c0.6,0,1.1,0,1.4-0.1v1.3c-0.3,0-0.8-0.1-1.3-0.1H382c0,0.2,0,0.4,0,0.6h-1.3c0-0.2,0-0.4,0-0.6
		h-2.5c0,0.2,0,0.4,0,0.6H377c0-0.2,0-0.4,0-0.6h-1.5c-0.6,0-1,0-1.3,0.1v-1.3c0.3,0,0.8,0.1,1.4,0.1H377z M378.8,440.9h-2.2
		c-0.4,0-0.8,0-1.1,0c0-0.3,0-0.6,0-0.9v-2.5c0-0.3,0-0.7,0-1c0.2,0,0.6,0,1.1,0h6c0.5,0,0.9,0,1.1,0c0,0.3,0,0.6,0,1v2.5
		c0,0.3,0,0.6,0,0.9c-0.3,0-0.7,0-1.1,0h-2.4v0.7h3.4c0.6,0,1.1,0,1.4-0.1v1.4c-0.3,0-0.8-0.1-1.4-0.1h-3.4v0.5c0,0.5,0,0.9,0.1,1.3
		h-1.5c0.1-0.4,0.1-0.8,0.1-1.3v-0.5h-3.2c-0.6,0-1.1,0-1.4,0.1v-1.4c0.3,0,0.8,0.1,1.4,0.1h3.2v-0.7H378.8z M376.8,437.6v0.6h5.5
		v-0.6H376.8z M376.8,439.3v0.6h5.5v-0.6H376.8z"/>
	<path class="st2" d="M392.2,440.3v0.6h3.5c0.6,0,1.1,0,1.4-0.1v1.2c-0.3,0-0.8-0.1-1.4-0.1h-2.4c0.9,0.7,2.3,1.1,4.1,1.4
		c-0.3,0.3-0.5,0.7-0.7,1.2c-0.9-0.2-1.7-0.5-2.3-0.7c-0.9-0.4-1.6-0.8-2.2-1.4c0,0.1,0,0.2,0,0.3v0.2v0.2v0.4c0,0.4,0,0.8,0.1,1
		h-1.4c0-0.3,0.1-0.6,0.1-1v-0.4v-0.3c0-0.2,0-0.4,0-0.5c-0.5,0.4-0.9,0.8-1.4,1c-0.8,0.4-1.7,0.8-2.9,1.1c-0.2-0.4-0.4-0.8-0.7-1.1
		c0.7-0.1,1.5-0.3,2.3-0.6c0.6-0.2,1.2-0.5,1.7-0.9h-2.3c-0.6,0-1.1,0-1.4,0.1v-1.2c0.3,0,0.8,0.1,1.4,0.1h3.3v-0.6h-2
		c-0.4,0-0.8,0-1.1,0c0-0.3,0-0.6,0-1v-1.8h-0.3c-0.6,0-1,0-1.4,0.1v-1.2c0.3,0,0.7,0.1,1.2,0.1h0.5c0-0.3,0-0.5-0.1-0.7h1.2
		c0-0.2,0-0.3,0-0.5h-1.5c-0.6,0-1.1,0-1.4,0.1v-1.2c0.4,0,0.8,0.1,1.4,0.1h1.5v-0.1c0-0.2,0-0.4-0.1-0.7h1.3c0,0.2,0,0.4,0,0.7v0.1
		h2.4v-0.1c0-0.2,0-0.4,0-0.7h1.3c0,0.2-0.1,0.4-0.1,0.7v0.1h1.6c0.6,0,1.1,0,1.4-0.1v1.2c-0.3,0-0.8-0.1-1.4-0.1H394
		c0,0.2,0,0.4,0,0.6h1.3c0,0.2-0.1,0.4-0.1,0.7h0.4c0.6,0,1.1,0,1.4-0.1v1.2c-0.3,0-0.8-0.1-1.4-0.1h-0.4v0.6c0,0.4,0,0.6,0,0.8
		c-0.3,0-0.6,0-1.1,0h-2.3c-0.4,0-0.7,0-1.1,0c0-0.2,0-0.4,0-0.7v-0.7H389v1.8h6c0.6,0,1.1,0,1.3-0.1v1.1c-0.3,0-0.7-0.1-1.3-0.1
		h-2.8V440.3z M389.1,436c0,0.2,0,0.3,0,0.6h1.7c0-0.2,0-0.4,0-0.7h1.3c0,0.2,0,0.4,0,0.7h2.1c0-0.2,0-0.4,0-0.6h-1.3
		c0-0.2,0-0.4,0-0.6h-2.4c0,0.2,0,0.5,0,0.6H389.1z M392,437.6v0.4h2.1v-0.4H392z"/>
	<path class="st2" d="M404.2,436.2v5.6c0,0.5,0,0.8,0.1,1.1H403v-0.6h-3.1v1h-1.3c0-0.4,0.1-1,0.1-1.6v-6.5c0-0.5,0-0.9,0-1.2
		c0.3,0,0.7,0,1.3,0h3.1c0.5,0,0.9,0,1.3,0c0,0.2,0,0.5,0,1h3.5c0.7,0,1.2,0,1.5-0.1v1.4c-0.3,0-0.8-0.1-1.4-0.1v6.9
		c0,0.3,0,0.5-0.1,0.7c-0.1,0.3-0.3,0.5-0.5,0.5c-0.2,0.1-0.6,0.1-1,0.1s-0.9,0-1.3,0c0-0.4-0.1-0.9-0.3-1.3c0.5,0.1,1,0.1,1.5,0.1
		c0.2,0,0.3,0,0.3,0c0.1,0,0.1-0.1,0.1-0.1V443v-6.8H404.2z M399.8,435.2v2.3h1v-2.3H399.8z M399.8,438.7v2.4h1v-2.4H399.8z
		 M401.9,435.2v2.3h1v-2.3H401.9z M401.9,438.7v2.4h1v-2.4H401.9z"/>
	<path class="st2" d="M410.1,439.5v-1.3c0.3,0,0.6,0.1,0.9,0.1h0.8c0.4,0,0.7,0,0.9-0.1c0,0.3-0.1,0.7-0.1,1.3v2.6
		c0.2,0.3,0.4,0.5,0.6,0.7s0.4,0.3,0.6,0.3c0.5,0.1,1.3,0.2,2.4,0.2c1,0,1.8,0,2.3-0.1s1.5-0.1,2.7-0.3c-0.1,0.2-0.1,0.4-0.2,0.7
		c-0.1,0.3-0.1,0.5-0.1,0.8c-1.4,0.1-3,0.1-4.8,0.1c-1.3,0-2.2-0.1-2.7-0.3c-0.4-0.2-0.8-0.4-1.1-0.7c-0.1-0.1-0.2-0.2-0.3-0.3
		c-0.1,0.1-0.1,0.1-0.2,0.2c-0.3,0.3-0.8,0.7-1.3,1.2l-0.7-1.3c0.2-0.1,0.5-0.3,0.8-0.5s0.6-0.5,0.8-0.7v-2.6h-0.6
		C410.5,439.4,410.3,439.4,410.1,439.5z M410,434.6l1-0.9c0.4,0.3,0.7,0.7,1.1,1.1s0.7,0.8,1,1.1l-1,1
		C411.5,436,410.8,435.3,410,434.6z M415.8,436.2L415.8,436.2c-0.5-0.3-0.8-0.5-1-0.6l0.9-0.5h-1.2c-0.5,0-0.9,0-1.2,0.1V434
		c0.3,0,0.8,0.1,1.4,0.1h3.9c0.8,0,1.2,0,1.4-0.1l0.6,0.7c-0.1,0.1-0.3,0.2-0.6,0.5c-0.3,0.2-0.6,0.5-1.1,0.8
		c-0.2,0.1-0.3,0.2-0.5,0.3h1c0.6,0,1,0,1.2-0.1c0,0.3,0,0.7,0,1.4v3.7c0,0.4,0,0.6-0.1,0.8c-0.1,0.2-0.2,0.4-0.5,0.5
		c-0.2,0.1-0.5,0.1-1,0.1c-0.1,0-0.3,0-0.5,0c0-0.5-0.1-0.8-0.3-1.1c0.3,0.1,0.6,0.1,0.8,0.1c0.1,0,0.2,0,0.2,0s0-0.1,0.1-0.1v-0.2
		v-0.5h-1.8v0.5c0,0.6,0,1,0.1,1.3h-1.3c0-0.3,0.1-0.7,0.1-1.3v-0.5h-1.6v0.6c0,0.6,0,1.1,0.1,1.3h-1.4c0-0.3,0.1-0.7,0.1-1.3v-3.8
		c0-0.6,0-1.1-0.1-1.4c0.3,0,0.8,0.1,1.3,0.1h1V436.2z M416.4,437.2h-1.6v0.8h1.6V437.2z M414.8,438.9v0.8h1.6v-0.8H414.8z
		 M415.8,435c0.3,0.2,0.6,0.4,1.1,0.8l0.1,0.1l0.1-0.1c0.5-0.4,0.9-0.6,1.1-0.8H415.8z M417.6,437.2v0.8h1.8v-0.8H417.6z
		 M419.4,439.7v-0.8h-1.8v0.8H419.4z"/>
	<path class="st2" d="M424.3,433.8l1.5,0.1c-0.2,0.4-0.3,1.4-0.5,3c0,0.2,0,0.3-0.1,0.5l0,0c0-0.1,0-0.1,0.1-0.3
		c0.1-0.2,0.1-0.4,0.3-0.7c0.3-0.6,0.7-1.1,1.3-1.5c0.5-0.3,0.9-0.5,1.5-0.5s1.2,0.2,1.6,0.6c0.5,0.4,0.8,1,1.1,1.7
		c0.2,0.5,0.3,1.2,0.3,1.9c0,1.1-0.2,2-0.6,2.7c-0.5,1-1.2,1.7-2.2,2.2c-0.7,0.4-1.6,0.6-2.7,0.8c-0.1-0.3-0.2-0.6-0.3-0.8
		c-0.1-0.2-0.2-0.4-0.4-0.6c0.5-0.1,0.9-0.1,1.2-0.2c1.2-0.3,2.1-0.8,2.7-1.6c0.5-0.6,0.7-1.5,0.7-2.6c0-1-0.2-1.7-0.6-2.2
		c-0.3-0.3-0.6-0.5-1-0.5s-0.7,0.1-0.9,0.3c-0.4,0.3-0.8,0.8-1.2,1.5c-0.5,0.8-0.7,1.7-0.7,2.7c0,0.1,0,0.2,0,0.3H424
		c0-0.1,0-0.1,0-0.2s0-0.1,0-0.2c0-0.6,0-1.1,0-1.5c0-0.8,0-1.6,0.1-2.5c0-0.2,0.1-0.8,0.2-1.8C424.3,434.2,424.3,433.9,424.3,433.8
		z"/>
</g>
<g>
	<path class="st2" d="M374.2,243.5l0.9-1c0.6,0.4,1.2,0.7,1.8,0.7c0.4,0,0.6-0.1,0.6-0.4l0,0c0-0.2-0.2-0.4-0.9-0.5
		c-1.2-0.3-2.1-0.6-2.1-1.8l0,0c0-1,0.8-1.8,2.2-1.8c1,0,1.7,0.3,2.3,0.7l-0.8,1.1c-0.5-0.4-1.1-0.6-1.6-0.6c-0.4,0-0.6,0.2-0.6,0.4
		l0,0c0,0.3,0.2,0.4,1,0.5c1.3,0.3,2.1,0.7,2.1,1.7l0,0c0,1.1-0.9,1.8-2.3,1.8C375.8,244.4,374.8,244.1,374.2,243.5z"/>
	<path class="st2" d="M379.5,242.2L379.5,242.2c0-1.3,0.9-2.3,2.2-2.3c1.5,0,2.2,1.1,2.2,2.4c0,0.1,0,0.2,0,0.3H381
		c0.1,0.5,0.5,0.7,0.9,0.7s0.6-0.1,1-0.4l0.8,0.7c-0.4,0.5-1,0.9-1.9,0.9C380.5,244.4,379.5,243.5,379.5,242.2z M382.5,241.8
		c-0.1-0.5-0.3-0.8-0.8-0.8c-0.4,0-0.7,0.3-0.8,0.8H382.5z"/>
	<path class="st2" d="M384.5,238.5h1.5v3l1.2-1.4h1.7l-1.5,1.7l1.5,2.6h-1.7l-0.9-1.5l-0.4,0.5v1h-1.5L384.5,238.5L384.5,238.5z"/>
	<path class="st2" d="M389.4,238.5h1.6v1.1h-1.6V238.5z M389.4,240h1.5v4.3h-1.5V240z"/>
	<path class="st2" d="M391.6,242.2L391.6,242.2c0-1.4,0.9-2.3,1.9-2.3c0.7,0,1,0.3,1.3,0.6v-2h1.5v5.8h-1.5v-0.6
		c-0.3,0.4-0.7,0.7-1.3,0.7C392.5,244.4,391.6,243.5,391.6,242.2z M394.9,242.1L394.9,242.1c0-0.6-0.4-1-0.9-1s-0.9,0.4-0.9,1l0,0
		c0,0.6,0.4,1,0.9,1S394.9,242.7,394.9,242.1z"/>
	<path class="st2" d="M397,243.1L397,243.1c0-0.9,0.7-1.4,1.7-1.4c0.4,0,0.8,0.1,1,0.2v-0.1c0-0.4-0.3-0.7-0.9-0.7
		c-0.5,0-0.8,0.1-1.2,0.2l-0.3-1.1c0.5-0.2,1-0.3,1.8-0.3s1.3,0.2,1.6,0.5c0.3,0.3,0.5,0.8,0.5,1.4v2.5h-1.5v-0.4
		c-0.3,0.3-0.7,0.5-1.3,0.5C397.6,244.4,397,243.9,397,243.1z M399.7,242.7v-0.2c-0.2-0.1-0.4-0.1-0.6-0.1c-0.4,0-0.7,0.2-0.7,0.5
		l0,0c0,0.3,0.2,0.5,0.5,0.5C399.4,243.4,399.7,243.2,399.7,242.7z"/>
	<path class="st2" d="M402,238.5h1.6v1.1H402V238.5z M402,240h1.5v4.3H402V240z"/>
	<path class="st2" d="M404.2,242.2L404.2,242.2c0-1.4,0.9-2.3,1.9-2.3c0.7,0,1,0.3,1.3,0.6v-2h1.5v5.8h-1.5v-0.6
		c-0.3,0.4-0.7,0.7-1.3,0.7C405.1,244.4,404.2,243.5,404.2,242.2z M407.5,242.1L407.5,242.1c0-0.6-0.4-1-0.9-1s-0.9,0.4-0.9,1l0,0
		c0,0.6,0.4,1,0.9,1S407.5,242.7,407.5,242.1z"/>
	<path class="st2" d="M409.6,242.2L409.6,242.2c0-1.2,1-2.3,2.4-2.3s2.4,1,2.4,2.2l0,0c0,1.2-1,2.3-2.4,2.3S409.6,243.4,409.6,242.2
		z M412.9,242.2L412.9,242.2c0-0.5-0.4-1-0.9-1c-0.6,0-0.9,0.4-0.9,1l0,0c0,0.5,0.4,1,0.9,1C412.6,243.1,412.9,242.7,412.9,242.2z"
		/>
	<path class="st2" d="M415,240h1.5v0.9c0.2-0.6,0.6-1,1.4-0.9v1.6h-0.1c-0.8,0-1.2,0.5-1.2,1.5v1.3H415V240z"/>
	<path class="st2" d="M418.5,238.5h1.6v1.1h-1.6V238.5z M418.5,240h1.5v4.3h-1.5V240z"/>
	<path class="st2" d="M422.7,243.5l0.9-1c0.6,0.4,1.2,0.7,1.8,0.7c0.4,0,0.6-0.1,0.6-0.4l0,0c0-0.2-0.2-0.4-0.9-0.5
		c-1.2-0.3-2.1-0.6-2.1-1.8l0,0c0-1,0.8-1.8,2.2-1.8c1,0,1.7,0.3,2.3,0.7l-0.8,1.1c-0.5-0.4-1.1-0.6-1.6-0.6c-0.4,0-0.6,0.2-0.6,0.4
		l0,0c0,0.3,0.2,0.4,1,0.5c1.3,0.3,2.1,0.7,2.1,1.7l0,0c0,1.1-0.9,1.8-2.3,1.8C424.4,244.4,423.4,244.1,422.7,243.5z"/>
	<path class="st2" d="M428.5,243v-1.8H428V240h0.5v-1.1h1.5v1.1h1v1.2h-1v1.5c0,0.3,0.1,0.4,0.4,0.4c0.2,0,0.4-0.1,0.6-0.1v1.2
		c-0.3,0.2-0.6,0.2-1.1,0.2C429.1,244.4,428.5,244,428.5,243z"/>
	<path class="st2" d="M431.7,242.7h1.6v1.6h-1.6V242.7z"/>
</g>
<g>
	<path class="st2" d="M390.1,230h-0.9v-0.5h-1.1v1.1h-1.3c0-0.3,0.1-0.7,0.1-1.2V227l0,0c0,0,0-0.1,0-0.2v-0.2c0-0.1,0-0.3,0-0.5
		c-0.2,0.3-0.3,0.6-0.4,0.7c-0.1,0.1-0.2,0.2-0.4,0.5c-0.1-0.4-0.1-0.8-0.2-1c0-0.1-0.1-0.3-0.2-0.5c0.5-0.6,1-1.3,1.3-2.4
		c0.2-0.6,0.4-1.2,0.5-1.9h-0.4c-0.4,0-0.7,0-1,0.1v-1.3c0.3,0,0.7,0.1,1.2,0.1h2c0.4,0,0.8,0,1.1-0.1v1.3c-0.3,0-0.7-0.1-1-0.1
		h-0.6c-0.1,0.8-0.3,1.7-0.7,2.6h1.5c0.3,0,0.5,0,0.7,0c0,0.2,0,0.5,0,0.9v4.2c0,0.3,0,0.5,0,0.7c0.6-0.2,1-0.5,1.4-0.8
		c0.1-0.1,0.3-0.3,0.5-0.4H392c-0.4,0-0.7,0-0.9,0c0-0.2,0-0.6,0-1.1v-4.3c0-0.4,0-0.7-0.1-1.1c0.2,0,0.6,0,1,0h0.7
		c0.1-0.3,0.2-0.6,0.3-0.8h-1c-0.6,0-1,0-1.3,0.1v-1.3c0.3,0,0.8,0.1,1.3,0.1h3.7c0.5,0,1,0,1.3-0.1v1.3c-0.3,0-0.7,0-1.3-0.1h-1.5
		c-0.1,0.3-0.2,0.6-0.3,0.8h1.3c0.6,0,0.9,0,1.2,0c0,0.3,0,0.7,0,1.2v4.1c0,0.5,0,0.9,0,1.2c-0.3,0-0.7,0-1.1,0h-0.4
		c0.2,0.2,0.4,0.3,0.6,0.5c0.4,0.3,0.9,0.6,1.6,0.8c-0.3,0.2-0.5,0.6-0.8,1c-0.5-0.3-0.9-0.5-1.3-0.8s-0.7-0.6-1.2-1l0.8-0.6h-2.3
		l0.9,0.5c-0.8,0.8-1.7,1.4-2.7,1.8C390.6,230.6,390.3,230.2,390.1,230z M388.2,225.1v3.2h1.1v-3.2H388.2z M392.3,223.2v0.8h3v-0.8
		H392.3z M392.3,224.9v0.8h3v-0.8H392.3z M392.3,226.7v0.8h3v-0.8H392.3z"/>
	<path class="st2" d="M400,223.4c0.3-0.4,0.6-0.9,1-1.5s0.7-1.2,1-1.8c0.1-0.1,0.1-0.3,0.1-0.4l1.5,0.4c-0.1,0.1-0.1,0.2-0.3,0.5
		c-0.3,0.5-0.6,1-0.9,1.6c-0.3,0.4-0.5,0.8-0.8,1.1c1.9,0,3.4-0.1,4.6-0.2c-0.5-0.6-1.1-1.2-1.7-1.7l1.2-0.7
		c1.2,1.1,2.3,2.4,3.4,3.8l-1.2,0.8c-0.3-0.5-0.6-0.9-0.8-1.2h-0.3c-0.6,0.1-1.5,0.1-2.6,0.2c-1.1,0.1-2.2,0.1-3.5,0.2h-0.5
		c-0.8,0-1.3,0.1-1.6,0.1l-0.2-1.4C398.6,223.4,399.2,223.4,400,223.4z M399.5,230.8c0-0.4,0.1-0.8,0.1-1.4v-2.7
		c0-0.5,0-0.8-0.1-1.1c0.2,0,0.6,0,1.3,0h5.7c0.7,0,1.1,0,1.3,0c0,0.3-0.1,0.6-0.1,1.1v2.7c0,0.6,0,1,0.1,1.4h-1.4v-0.6h-5.5v0.6
		H399.5z M400.8,226.8v2.2h5.6v-2.2H400.8z"/>
	<path class="st2" d="M410.1,225.6v-1.3c0.3,0,0.6,0.1,0.9,0.1h0.8c0.4,0,0.7,0,0.9-0.1c0,0.3-0.1,0.7-0.1,1.3v2.6
		c0.2,0.3,0.4,0.5,0.6,0.7s0.4,0.3,0.6,0.3c0.5,0.1,1.3,0.2,2.4,0.2c1,0,1.8,0,2.3-0.1s1.5-0.1,2.7-0.3c-0.1,0.2-0.1,0.4-0.2,0.7
		s-0.1,0.5-0.1,0.8c-1.4,0.1-3,0.1-4.8,0.1c-1.3,0-2.2-0.1-2.7-0.3c-0.4-0.2-0.8-0.4-1.1-0.7c-0.1-0.1-0.2-0.2-0.3-0.3
		c-0.1,0.1-0.1,0.1-0.2,0.2c-0.3,0.3-0.8,0.7-1.3,1.2l-0.7-1.3c0.2-0.1,0.5-0.3,0.8-0.5s0.6-0.5,0.8-0.7v-2.6h-0.6
		C410.5,225.6,410.3,225.6,410.1,225.6z M410,220.8l1-0.9c0.4,0.3,0.7,0.7,1.1,1.1c0.4,0.4,0.7,0.8,1,1.1l-1,1
		C411.5,222.2,410.8,221.4,410,220.8z M415.8,222.3L415.8,222.3c-0.5-0.3-0.8-0.5-1-0.6l0.9-0.5h-1.2c-0.5,0-0.9,0-1.2,0.1V220
		c0.3,0,0.8,0.1,1.4,0.1h3.9c0.8,0,1.2,0,1.4-0.1l0.6,0.7c-0.1,0.1-0.3,0.2-0.6,0.5c-0.3,0.2-0.6,0.5-1.1,0.8
		c-0.2,0.1-0.3,0.2-0.5,0.3h1c0.6,0,1,0,1.2-0.1c0,0.3,0,0.7,0,1.4v3.7c0,0.4,0,0.6-0.1,0.8s-0.2,0.4-0.5,0.5
		c-0.2,0.1-0.5,0.1-1,0.1c-0.1,0-0.3,0-0.5,0c0-0.5-0.1-0.8-0.3-1.1c0.3,0.1,0.6,0.1,0.8,0.1c0.1,0,0.2,0,0.2,0s0-0.1,0.1-0.1v-0.2
		v-0.5h-1.8v0.5c0,0.6,0,1,0.1,1.3h-1.3c0-0.3,0.1-0.7,0.1-1.3v-0.5h-1.6v0.6c0,0.6,0,1.1,0.1,1.3h-1.4c0-0.3,0.1-0.7,0.1-1.3v-3.8
		c0-0.6,0-1.1-0.1-1.4c0.3,0,0.8,0.1,1.3,0.1h1V222.3z M416.4,223.4h-1.6v0.8h1.6V223.4z M414.8,225.1v0.8h1.6v-0.8H414.8z
		 M415.8,221.2c0.3,0.2,0.6,0.4,1.1,0.8l0.1,0.1l0.1-0.1c0.5-0.4,0.9-0.6,1.1-0.8H415.8z M417.6,223.4v0.8h1.8v-0.8H417.6z
		 M419.4,225.9v-0.8h-1.8v0.8H419.4z"/>
	<path class="st2" d="M424.3,220l1.5,0.1c-0.2,0.4-0.3,1.4-0.5,3c0,0.2,0,0.3-0.1,0.5l0,0c0-0.1,0-0.1,0.1-0.3s0.1-0.4,0.3-0.7
		c0.3-0.6,0.7-1.1,1.3-1.5c0.5-0.3,0.9-0.5,1.5-0.5s1.2,0.2,1.6,0.6c0.5,0.4,0.8,1,1.1,1.7c0.2,0.5,0.3,1.2,0.3,1.9
		c0,1.1-0.2,2-0.6,2.7c-0.5,1-1.2,1.7-2.2,2.2c-0.7,0.4-1.6,0.6-2.7,0.8c-0.1-0.3-0.2-0.6-0.3-0.8c-0.1-0.2-0.2-0.4-0.4-0.6
		c0.5-0.1,0.9-0.1,1.2-0.2c1.2-0.3,2.1-0.8,2.7-1.6c0.5-0.6,0.7-1.5,0.7-2.6c0-1-0.2-1.7-0.6-2.2c-0.3-0.3-0.6-0.5-1-0.5
		s-0.7,0.1-0.9,0.3c-0.4,0.3-0.8,0.8-1.2,1.5c-0.5,0.8-0.7,1.7-0.7,2.7c0,0.1,0,0.2,0,0.3H424c0-0.1,0-0.1,0-0.2c0-0.1,0-0.1,0-0.2
		c0-0.6,0-1.1,0-1.5c0-0.8,0-1.6,0.1-2.5c0-0.2,0.1-0.8,0.2-1.8C424.3,220.3,424.3,220.1,424.3,220z"/>
</g>
<g>
	<line class="st1" x1="100.2" y1="602" x2="100.2" y2="560.6"/>
</g>
<g>
	<path class="st2" d="M383.4,308.7h1.6v2.3l1.9-2.3h1.8l-2.1,2.4l2.2,3.2h-1.9l-1.4-2.1l-0.6,0.6v1.4h-1.6v-5.5H383.4z"/>
	<path class="st2" d="M388.9,313.1L388.9,313.1c0-0.9,0.7-1.4,1.7-1.4c0.4,0,0.8,0.1,1,0.2v-0.1c0-0.4-0.3-0.7-0.9-0.7
		c-0.5,0-0.8,0.1-1.2,0.2l-0.3-1.1c0.5-0.2,1-0.3,1.8-0.3s1.3,0.2,1.6,0.5c0.3,0.3,0.5,0.8,0.5,1.4v2.5h-1.5v-0.4
		c-0.3,0.3-0.7,0.5-1.3,0.5C389.6,314.4,388.9,313.9,388.9,313.1z M391.7,312.7v-0.2c-0.2-0.1-0.4-0.1-0.6-0.1
		c-0.4,0-0.7,0.2-0.7,0.5l0,0c0,0.3,0.2,0.5,0.5,0.5C391.4,313.4,391.7,313.2,391.7,312.7z"/>
	<path class="st2" d="M393.8,312.2L393.8,312.2c0-1.2,1-2.3,2.3-2.3c0.9,0,1.5,0.4,1.8,1l-1,0.8c-0.2-0.3-0.4-0.5-0.8-0.5
		c-0.5,0-0.8,0.4-0.8,1l0,0c0,0.6,0.4,1,0.9,1c0.4,0,0.6-0.2,0.8-0.4l1,0.7c-0.4,0.6-1,1-1.9,1C394.7,314.4,393.8,313.4,393.8,312.2
		z"/>
	<path class="st2" d="M398.5,308.5h1.5v2.1c0.3-0.4,0.7-0.7,1.3-0.7c0.9,0,1.5,0.6,1.5,1.6v2.8h-1.5V312c0-0.5-0.2-0.7-0.6-0.7
		s-0.6,0.3-0.6,0.7v2.3h-1.5L398.5,308.5L398.5,308.5z"/>
	<path class="st2" d="M403.6,308.5h1.6v1.1h-1.6V308.5z M403.6,310h1.5v4.3h-1.5V310z"/>
	<path class="st2" d="M406,308.5h1.5v3l1.2-1.4h1.7l-1.5,1.7l1.5,2.6h-1.7l-0.9-1.5l-0.4,0.5v1H406V308.5z"/>
	<path class="st2" d="M410.6,312.2L410.6,312.2c0-1.2,1-2.3,2.4-2.3s2.4,1,2.4,2.2l0,0c0,1.2-1,2.3-2.4,2.3
		C411.6,314.4,410.6,313.4,410.6,312.2z M413.9,312.2L413.9,312.2c0-0.5-0.4-1-0.9-1c-0.6,0-0.9,0.4-0.9,1l0,0c0,0.5,0.4,1,0.9,1
		C413.6,313.1,413.9,312.7,413.9,312.2z"/>
	<path class="st2" d="M415.4,315.5v-1c0.1,0,0.1,0,0.2,0c0.3,0,0.4-0.1,0.4-0.5v-4h1.5v4.1c0,1.1-0.6,1.5-1.5,1.5
		C415.8,315.6,415.6,315.6,415.4,315.5z M416,308.5h1.6v1.1H416V308.5z"/>
	<path class="st2" d="M418.5,308.5h1.6v1.1h-1.6V308.5z M418.5,310h1.5v4.3h-1.5V310z"/>
	<path class="st2" d="M422.7,313.5l0.9-1c0.6,0.4,1.2,0.7,1.8,0.7c0.4,0,0.6-0.1,0.6-0.4l0,0c0-0.2-0.2-0.4-0.9-0.5
		c-1.2-0.3-2.1-0.6-2.1-1.8l0,0c0-1,0.8-1.8,2.2-1.8c1,0,1.7,0.3,2.3,0.7l-0.8,1.1c-0.5-0.4-1.1-0.6-1.6-0.6c-0.4,0-0.6,0.2-0.6,0.4
		l0,0c0,0.3,0.2,0.4,1,0.5c1.3,0.3,2.1,0.7,2.1,1.7l0,0c0,1.1-0.9,1.8-2.3,1.8C424.4,314.4,423.4,314.1,422.7,313.5z"/>
	<path class="st2" d="M428.5,313v-1.8H428V310h0.5v-1.1h1.5v1.1h1v1.2h-1v1.5c0,0.3,0.1,0.4,0.4,0.4c0.2,0,0.4-0.1,0.6-0.1v1.2
		c-0.3,0.2-0.6,0.2-1.1,0.2C429.1,314.4,428.5,314,428.5,313z"/>
	<path class="st2" d="M431.7,312.7h1.6v1.6h-1.6V312.7z"/>
</g>
<g>
	<path class="st2" d="M399,298.2c-0.3-0.4-0.6-0.7-0.9-1c0.5-0.3,1.1-0.6,1.5-1.1c0.5-0.5,0.9-0.9,1.2-1.4l1.1,0.6
		c-0.3,0.5-0.7,1-1.2,1.5C400.1,297.4,399.6,297.8,399,298.2z M404.4,293.3h3.2c0.6,0,1,0,1.3-0.1v1.3c-0.3,0-0.8-0.1-1.3-0.1h-3.3
		v2.4c0,0.5-0.2,0.8-0.6,1c-0.2,0.1-0.6,0.1-1.1,0.1c-0.3,0-0.6,0-1,0c-0.1-0.4-0.2-0.9-0.3-1.2c0.4,0.1,0.8,0.1,1.2,0.1
		c0.2,0,0.4,0,0.4-0.1c0,0,0.1-0.1,0.1-0.2v-2.1h-3.5c-0.6,0-1,0-1.4,0.1v-1.3c0.3,0,0.8,0.1,1.4,0.1h0.5v-1.6c0-0.4,0-0.8-0.1-1.1
		h1.4c0,0.3-0.1,0.6-0.1,1.1v1.6h1.7v-2.4c0-0.5,0-0.9-0.1-1.1h1.5c0,0.3-0.1,0.6-0.1,1v0.2h2.4c0.5,0,0.9,0,1.2-0.1v1.3
		c-0.3,0-0.7-0.1-1.2-0.1h-2.4v1.2H404.4z M399.4,300.8c-0.1-0.5-0.3-0.9-0.6-1.4c0.2,0,0.3,0,0.4,0c2,0,3.6-0.4,5-1.2
		c0.6-0.4,1.1-0.8,1.5-1.2c0.1-0.2,0.2-0.3,0.3-0.5l1.1,0.9c-0.1,0.1-0.3,0.3-0.5,0.5c-0.7,0.6-1.3,1.1-1.9,1.4
		C403.2,300.3,401.4,300.8,399.4,300.8z M409.2,296.9c-0.3,0.3-0.6,0.7-0.9,1.1c-0.4-0.2-0.8-0.6-1.3-0.9c-0.7-0.5-1.2-1.1-1.7-1.7
		l1.1-0.6c0.2,0.2,0.4,0.5,0.8,0.8C407.8,296.1,408.5,296.5,409.2,296.9z"/>
	<path class="st2" d="M411.1,298.8c-0.5-0.4-0.9-0.7-1.3-0.9c0.4-0.6,0.8-1.3,1.2-2.1c0.4-0.8,0.6-1.7,0.8-2.6
		c0-0.3,0.1-0.5,0.1-0.8l1.5,0.4c0,0.1,0,0.1,0,0.1c0,0.1-0.1,0.2-0.1,0.3c-0.2,1.1-0.4,1.8-0.6,2.2c-0.2,0.7-0.5,1.3-0.7,1.8
		C411.8,297.7,411.5,298.2,411.1,298.8z M414.8,289.9h1.6c-0.1,0.3-0.1,0.8-0.1,1.5v7.9c0,0.6-0.2,1-0.5,1.1
		c-0.2,0.1-0.6,0.2-1.2,0.2c-0.5,0-1,0-1.5-0.1c-0.1-0.5-0.2-1-0.4-1.4c0.7,0.1,1.3,0.2,1.7,0.2c0.2,0,0.4,0,0.4-0.1
		c0.1,0,0.1-0.1,0.1-0.2v-7.7C414.9,290.7,414.9,290.2,414.8,289.9z M421.4,297.8c-0.2,0.1-0.4,0.3-0.7,0.4
		c-0.2,0.2-0.4,0.3-0.6,0.5c-0.7-1-1.2-2-1.6-3.1c-0.3-0.7-0.5-1.4-0.7-2.2l-0.1-0.3c0-0.2-0.1-0.3-0.1-0.4l1.4-0.4
		c0.1,0.6,0.2,1.3,0.6,2.1C420.1,295.8,420.7,296.9,421.4,297.8z"/>
	<path class="st2" d="M424.4,298.8v-4.7h-0.6c-0.4,0-0.8,0-1.1,0c0-0.3,0.1-0.7,0.1-1.2v-1.7c0-0.5,0-0.9-0.1-1.2
		c0.3,0,0.7,0.1,1.2,0.1h1.7c0.5,0,0.9,0,1.2-0.1c0,0.3,0,0.7,0,1.2v1.3c0.2-0.2,0.5-0.4,0.7-0.6c0.4-0.4,0.8-0.9,1.1-1.5
		c0.2-0.3,0.3-0.6,0.3-0.8l1.3,0.3l-0.1,0.2l-0.2,0.3l-0.2,0.3h1.4c0.5,0,0.8,0,1-0.1l0.6,0.8l-0.2,0.3c-0.4,0.7-0.8,1.2-1,1.6
		c-0.2,0.3-0.5,0.6-0.7,0.8c0.3,0.2,0.7,0.4,1,0.6c0.4,0.2,0.9,0.4,1.5,0.6c-0.2,0.4-0.4,0.9-0.5,1.3l-0.5-0.3c0,0.2,0,0.4,0,0.7
		v2.5c0,0.6,0,1,0.1,1.3h-1.3v-0.6h-2.3v0.6h-1.3c0-0.2,0.1-0.6,0.1-1.2V297c0-0.2,0-0.4,0-0.6l-0.4,0.2c-0.1-0.3-0.2-0.5-0.2-0.6
		s-0.1-0.2-0.2-0.3v0.9c-0.2,0-0.5,0-0.9,0h-0.3v1.9c0.4-0.1,0.8-0.2,1.4-0.4v1.2c-0.6,0.2-1.2,0.4-1.7,0.5
		c-0.8,0.2-1.5,0.4-2.3,0.6c-0.2,0.1-0.4,0.1-0.5,0.2l-0.3-1.3c0.2,0,0.4,0,0.7-0.1v-2.9c0-0.5,0-0.9-0.1-1.2h1.2
		c0,0.3-0.1,0.6-0.1,1.2v2.8c0.1,0,0.3-0.1,0.4-0.1L424.4,298.8z M423.9,291.3v1.7h1.6v-1.7H423.9z M426.6,295.5
		c0.1,0,0.1-0.1,0.3-0.1c0.4-0.1,0.8-0.4,1.4-0.7c0.3-0.2,0.6-0.4,0.8-0.6c-0.4-0.4-0.7-0.8-1-1.2c-0.3,0.3-0.6,0.6-1,0.8
		c-0.1-0.2-0.3-0.5-0.5-0.8c0,0.6,0,0.9,0,1.1c-0.2,0-0.5,0-1,0h-0.2v1.4h0.3C426.2,295.5,426.5,295.5,426.6,295.5L426.6,295.5z
		 M430,294.9c-0.6,0.5-1.3,1-2,1.3c0.1,0,0.2,0,0.4,0h3.1c0.3,0,0.5,0,0.7,0C431.3,295.8,430.6,295.4,430,294.9z M428.8,297.4v1.8
		h2.3v-1.8H428.8z M430,293.3c0.4-0.4,0.8-1,1.2-1.6h-2c-0.1,0.1-0.1,0.2-0.2,0.3C429.2,292.5,429.6,293,430,293.3z"/>
</g>
</svg>
