<svg xmlns="http://www.w3.org/2000/svg" width="438.5" height="587" viewBox="0 0 438.5 587">
  <g id="map" transform="translate(-0.5 -17.5)">
    <g id="グループ_1" data-name="グループ 1">
      <path id="パス_1" data-name="パス 1" d="M3,104.5H311.6A59.7,59.7,0,0,0,354,86.9L368.9,72a59.869,59.869,0,0,1,42.4-17.6h25.1" fill="none" stroke="#fff" stroke-linecap="round" stroke-miterlimit="10" stroke-width="5"/>
    </g>
    <g id="グループ_2" data-name="グループ 2">
      <line id="線_1" data-name="線 1" x2="247" transform="translate(189.5 172.9)" fill="none" stroke="#fff" stroke-linecap="round" stroke-miterlimit="10" stroke-width="1"/>
    </g>
    <g id="グループ_3" data-name="グループ 3">
      <line id="線_2" data-name="線 2" x2="433.5" transform="translate(3 254.9)" fill="none" stroke="#fff" stroke-linecap="round" stroke-miterlimit="10" stroke-width="1"/>
    </g>
    <g id="グループ_4" data-name="グループ 4">
      <path id="パス_2" data-name="パス 2" d="M113.3,23.4v6.7a5.313,5.313,0,0,0,.1,1.4h-1.5c0-.4.1-.8.1-1.4V25.3a6.42,6.42,0,0,1-1,1.3,3.694,3.694,0,0,0-.7-1.4,12.086,12.086,0,0,0,2-3,10.075,10.075,0,0,0,.6-1.9l1.4.4a7.6,7.6,0,0,0-.4,1.1A8.677,8.677,0,0,1,113.3,23.4Zm8.3,7.2c-.4,0-.9-.1-1.5-.1h-4.5a8.083,8.083,0,0,0-1.6.1V29.1a7.115,7.115,0,0,0,1.6.1h4.5a6.622,6.622,0,0,0,1.5-.1Zm-7.1-7.3V21.8c.4,0,.9.1,1.4.1h3.6a5.721,5.721,0,0,0,1.4-.1v1.5c-.4,0-.9-.1-1.4-.1H116A8.636,8.636,0,0,1,114.5,23.3Z" fill="#fff"/>
      <path id="パス_3" data-name="パス 3" d="M115.3,34.4h-2.5a7.115,7.115,0,0,0-1.6.1V33.1a6.22,6.22,0,0,0,1.6.1h6.7a6.66,6.66,0,0,0,1.6-.1v1.4c-.4,0-.9-.1-1.6-.1h-2.7v2.7H119a7.083,7.083,0,0,0,1.5-.1v1.4c-.4,0-.9-.1-1.5-.1h-2.2v3.2H120a6.66,6.66,0,0,0,1.6-.1v1.4a6.66,6.66,0,0,0-1.6-.1h-7.6a7.589,7.589,0,0,0-1.6.1V41.4c.4,0,.9.1,1.6.1h3V38.3h-2a6.622,6.622,0,0,0-1.5.1V37c.3,0,.8.1,1.5.1h2l-.1-2.7Z" fill="#fff"/>
      <path id="パス_4" data-name="パス 4" d="M116,46.8c0-.1-.1-.2-.2-.5l-.3-.6-.1-.3a1.69,1.69,0,0,1-.2-.5l1.6-.2c0,.2.1.3.1.4s.2.5.4,1.1c.1.2.1.3.2.4a13.412,13.412,0,0,0,2.9-.7l.2,1.4a3.091,3.091,0,0,0-.8.2c-.5.1-1.1.2-1.6.3h-.1l-.1.2a19.615,19.615,0,0,0,1.2,2.1c.3.5.6.9.8,1.2l-1.4.6a1.756,1.756,0,0,0-.5-.4,4.744,4.744,0,0,0-2.3-.4,3.524,3.524,0,0,0-2,.4,1,1,0,0,0-.4.5.749.749,0,0,0-.1.5.961.961,0,0,0,.6.9,5.019,5.019,0,0,0,2,.4,8.422,8.422,0,0,0,2.7-.4,3.552,3.552,0,0,0,.9-.4l.2,1.5a4.331,4.331,0,0,1-.5.1c-.8.2-1.4.3-1.8.4a7.569,7.569,0,0,1-1.5.1,6.648,6.648,0,0,1-2.1-.3,2.732,2.732,0,0,1-1.6-1.1,2.663,2.663,0,0,1-.3-1.2,2.271,2.271,0,0,1,.9-1.8,4.479,4.479,0,0,1,3-.9,4.638,4.638,0,0,1,2.1.4,17.224,17.224,0,0,1-1.2-2.1l-.1-.1c-.4.1-1,.1-1.8.2a13.054,13.054,0,0,0-1.7.1h-1.2l-.1-1.4c.3,0,.7.1,1.1.1a23.551,23.551,0,0,0,2.5-.1C115.5,46.9,115.8,46.8,116,46.8Z" fill="#fff"/>
      <path id="パス_5" data-name="パス 5" d="M120.1,62.3c.2.2.5.4.7.6a1.628,1.628,0,0,0,.6.3c-.5,2.5-1.7,3.7-3.5,3.7-1,0-1.6-.3-1.9-1a4.438,4.438,0,0,1-.2-1.3v-1a1.483,1.483,0,0,0-.1-.7.55.55,0,0,0-.5-.3,1.823,1.823,0,0,0-1.1.5,5.6,5.6,0,0,0-1,1.5,16.188,16.188,0,0,0-.6,1.7c-.1.2-.1.5-.2.7l-1.5-.5a4.876,4.876,0,0,0,.3-.7c.1-.3.5-1.3,1.1-3,1-2.7,1.6-4.4,1.8-5.2a2.544,2.544,0,0,0,.2-.7.367.367,0,0,1,.1-.3l1.6.4c-.1.2-.3.7-.6,1.4-.7,1.9-1.2,2.9-1.3,3.3a.367.367,0,0,0-.1.3h0a.769.769,0,0,0,.2-.3,1.756,1.756,0,0,1,.5-.4,1.929,1.929,0,0,1,1-.3,2.353,2.353,0,0,1,.8.2,1.549,1.549,0,0,1,.8,1.2c0,.2.1.7.1,1.5,0,.5,0,.8.1.9a.821.821,0,0,0,.5.5h.3c.7,0,1.2-.4,1.5-1.3a4.672,4.672,0,0,0,.4-1.4C120.1,62.7,120.1,62.5,120.1,62.3Z" fill="#fff"/>
      <path id="パス_6" data-name="パス 6" d="M110.6,74.4V73c.3,0,.6.1.9.1h.8a2.22,2.22,0,0,0,.9-.1c0,.3-.1.7-.1,1.3v2.6a4.349,4.349,0,0,0,.6.7.864.864,0,0,0,.6.3,12.528,12.528,0,0,0,2.4.2A14.172,14.172,0,0,0,119,78c.5-.1,1.5-.1,2.7-.3a6.373,6.373,0,0,0-.2.7,2.2,2.2,0,0,0-.1.8c-1.4.1-3,.1-4.8.1a8.236,8.236,0,0,1-2.7-.3,4.129,4.129,0,0,1-1.1-.7l-.3-.3-.2.2c-.3.3-.8.7-1.3,1.2l-.7-1.3a9.225,9.225,0,0,0,.8-.5,5.716,5.716,0,0,0,.8-.7V74.3h-.6A1.483,1.483,0,0,0,110.6,74.4Zm-.1-4.9,1-.9a11.408,11.408,0,0,1,1.1,1.1c.4.4.7.8,1,1.1l-1,1A11.5,11.5,0,0,0,110.5,69.5Zm5.8,1.5h0c-.5-.3-.8-.5-1-.6l.9-.5H115a4.121,4.121,0,0,0-1.2.1V68.8c.3,0,.8.1,1.4.1h3.9a4.181,4.181,0,0,0,1.4-.1l.6.7a7.364,7.364,0,0,0-.6.5c-.3.2-.6.5-1.1.8-.2.1-.3.2-.5.3h1a3.451,3.451,0,0,0,1.2-.1v5.1a1.719,1.719,0,0,1-.1.8.821.821,0,0,1-.5.5,2.509,2.509,0,0,1-1,.1H119a1.8,1.8,0,0,0-.3-1.1,2.485,2.485,0,0,0,.8.1h.2a.1.1,0,0,1,.1-.1v-.9H118V76a4.512,4.512,0,0,0,.1,1.3h-1.3c0-.3.1-.7.1-1.3v-.5h-1.6v.6a4.153,4.153,0,0,0,.1,1.3H114c0-.3.1-.7.1-1.3V72.3a5.313,5.313,0,0,0-.1-1.4c.3,0,.8.1,1.3.1Zm.6,1.1h-1.6v.8h1.6Zm-1.6,1.7v.8h1.6v-.8Zm1-3.9c.3.2.6.4,1.1.8l.1.1.1-.1c.5-.4.9-.6,1.1-.8Zm1.8,2.2v.8h1.8v-.8Zm1.8,2.5v-.8h-1.8v.8Z" fill="#fff"/>
      <path id="パス_7" data-name="パス 7" d="M112.8,80.7l1.5.1a14.342,14.342,0,0,0-.5,3,.9.9,0,0,1-.1.5h0c0-.1,0-.1.1-.3a3.629,3.629,0,0,1,.3-.7,3.738,3.738,0,0,1,1.3-1.5,2.7,2.7,0,0,1,1.5-.5,2.271,2.271,0,0,1,1.6.6,4.181,4.181,0,0,1,1.1,1.7,6.288,6.288,0,0,1-.3,4.6,4.7,4.7,0,0,1-2.2,2.2,8.648,8.648,0,0,1-2.7.8,6.889,6.889,0,0,0-.3-.8,2.092,2.092,0,0,0-.4-.6c.5-.1.9-.1,1.2-.2a4.583,4.583,0,0,0,2.7-1.6,4.023,4.023,0,0,0,.7-2.6,3.4,3.4,0,0,0-.6-2.2,1.389,1.389,0,0,0-1-.5,1.222,1.222,0,0,0-.9.3,4.9,4.9,0,0,0-1.2,1.5,4.953,4.953,0,0,0-.7,2.7v.3h-1.4V85.6a21.751,21.751,0,0,1,.1-2.5c0-.2.1-.8.2-1.8Z" fill="#fff"/>
    </g>
    <g id="グループ_5" data-name="グループ 5">
      <path id="パス_8" data-name="パス 8" d="M387.5,24v-.5a1.949,1.949,0,0,0-.1-.8h1.5c0,.2-.1.5-.1.8V24H391a4.545,4.545,0,0,0,1.4-.1v1.3c-.3,0-.8-.1-1.4-.1h-2.3V27H392a6.622,6.622,0,0,0,1.5-.1v1.3c-.4,0-.9-.1-1.5-.1h-7.8a6.622,6.622,0,0,0-1.5.1V27c.4,0,.9.1,1.5.1h3.1V25.2h-2.1a5.313,5.313,0,0,0-1.4.1V24c.3,0,.8.1,1.4.1h2.3Zm-1-4.8h-1.9a6.622,6.622,0,0,0-1.5.1V18c.3,0,.8.1,1.5.1H392a6.622,6.622,0,0,0,1.5-.1v1.3c-.4,0-.8-.1-1.4-.1H388a5.972,5.972,0,0,1-.6,1.1,8.794,8.794,0,0,1-.6,1h.4c1,0,1.7-.1,2-.1s.8-.1,1.3-.1c-.3-.3-.7-.6-1.1-1l1-.6a24.566,24.566,0,0,1,2.8,2.8l-1.1.8c-.3-.4-.5-.7-.7-1h-.2c-1.6.2-3.7.3-6.1.4h-1.5l-.2-1.3h1.8A3.7,3.7,0,0,0,386.5,19.2Z" fill="#fff"/>
      <path id="パス_9" data-name="パス 9" d="M400.6,26.1a3.19,3.19,0,0,0-.6-.7,2.1,2.1,0,0,1-.8.6c-.2-.2-.3-.4-.5-.6v2a1.292,1.292,0,0,1-.2.8.6.6,0,0,1-.6.3h-1.4a5.019,5.019,0,0,0-.2-1.2,2.814,2.814,0,0,0,.8.1.367.367,0,0,0,.3-.1.349.349,0,0,0,.1-.2V25.6h-1.2a7.734,7.734,0,0,1-.8,3.1,2.836,2.836,0,0,0-1-.9,5.023,5.023,0,0,0,.5-1.3,21.549,21.549,0,0,0,.4-4.3,10.317,10.317,0,0,0-.1-1.9c.3,0,.7.1,1.2.1h2.2V25a5.121,5.121,0,0,0,1.3-1.2h-1.1V22.7h1.7c.1-.2.2-.5.3-.7h-1.8V20.9h.8a9.011,9.011,0,0,1-.5-.9l.9-.4a3.79,3.79,0,0,1,.6,1.3h.3a6.529,6.529,0,0,0,.2-1.1h1.2a6.374,6.374,0,0,0-.2.9.31.31,0,0,1-.1.2h.7a3.79,3.79,0,0,0,.6-1.3l1,.3a9.011,9.011,0,0,0-.5.9h1.2v1.1h-2a4.872,4.872,0,0,1,.3.7h1.9v1.1h-1.2a4.177,4.177,0,0,0,1.5,1.1,3.592,3.592,0,0,0-.7,1,2.7,2.7,0,0,1-.8-.7l-.7.7a5.223,5.223,0,0,0,1.9,1.4,8.173,8.173,0,0,0-.8.9,8.744,8.744,0,0,1-1-.8l-1-1,.5-.5-.5-.6a3.819,3.819,0,0,0,.9-.9,4.233,4.233,0,0,1-.5-.7h-1.9a5.547,5.547,0,0,1-.6.8c.2.3.5.5.7.8l-.5.4.5.8c-.3.3-.6.5-.9.8a2.485,2.485,0,0,0,.8.1c.1,0,.2,0,.2-.1a.438.438,0,0,0,.1-.3V24.6a1.483,1.483,0,0,0-.1-.7h1.2a1.634,1.634,0,0,0,0,.7V27c0,.4,0,.7-.1.8s-.2.3-.4.3a1.719,1.719,0,0,1-.8.1h-.8a2.958,2.958,0,0,0-.2-1l-.2.2c-.4.3-.6.4-.7.5l-.7-1A3.146,3.146,0,0,0,400.6,26.1Zm-2.9-7.8h0v-.7H399v.7h2.5v-.7h1.3v.7h1.6a4.512,4.512,0,0,0,1.3-.1v1.2c-.3,0-.7-.1-1.3-.1h-1.6v.3h-1.3v-.3H399v.5h-1.3v-.5h-1.5a4.888,4.888,0,0,0-1.3.1V18.2c.3,0,.8.1,1.3.1Zm-1.2,6.3h1.1V23.5h-1.1Zm0-2.1h1.1V21.4h-1.1v1.1Zm5.3.3h.9a4.872,4.872,0,0,1-.3-.7h-.3l-.1.2-.1.2C401.9,22.7,401.9,22.8,401.8,22.8Z" fill="#fff"/>
      <path id="パス_10" data-name="パス 10" d="M417.1,22a1.949,1.949,0,0,0,.8-.1v1.3a2.485,2.485,0,0,1-.8-.1v4.4c0,.5-.1.8-.4.9a.749.749,0,0,1-.5.1h-1.6a2.663,2.663,0,0,0-.3-1.2,4.869,4.869,0,0,0,1.2.1h.4c.1,0,.1-.1.1-.2v-4h-4.7v4.5h-1V27h-2v1h-1.1c0-.4.1-.8.1-1.4V20.7a5.283,5.283,0,0,0-.1-1.3h1.1v6.4h.5V19.1a5.313,5.313,0,0,0-.1-1.4h1.2c0,.3-.1.8-.1,1.4v6.8h.4V19.4h1.1V22h.7c-.2-.3-.4-.7-.6-1a3.386,3.386,0,0,0,1.5-.6,2.337,2.337,0,0,0,.7-.7h-.8a3.75,3.75,0,0,0-1.1.1V18.6c.3,0,.7.1,1.2.1H414v-1h1.3v1h1.3a3.451,3.451,0,0,0,1.2-.1v1.2a4.869,4.869,0,0,1-1.2-.1h-1.1c.3.3.5.6.8.7a5.761,5.761,0,0,0,1.7.5A2.326,2.326,0,0,0,417.1,22Zm-2,5h-2.2v.7h-1.1V23.8h3.3V27Zm1.6-5a6.118,6.118,0,0,1-1.2-.5,5.471,5.471,0,0,1-1.1-1,4.469,4.469,0,0,1-2,1.6h4.3V22Zm-3.8,2.8V26H414V24.8Z" fill="#fff"/>
      <path id="パス_11" data-name="パス 11" d="M423.5,18.6v-.2a2.2,2.2,0,0,0-.1-.8h1.5c0,.2-.1.5-.1.8v.2h4.6v2a2.219,2.219,0,0,0,.1.9h-1.3V19.8h-7.8v1.7h-1.3c0-.3.1-.6.1-.9v-2h4.3Zm0,5h-2.8V20.3h7.1v3.2h-3a3.919,3.919,0,0,1-.4.9h4.2c0,.3-.1.7-.1,1.2v1.8a4.868,4.868,0,0,0,.1,1.2h-1.3v-.5h-6.2v.5h-1.3c0-.4.1-.8.1-1.2V25.6a3.11,3.11,0,0,0-.1-1.1H423A1.347,1.347,0,0,0,423.5,23.6Zm-2.3,2.1V27h6.2V25.7Zm.9-4.2v1h4.4v-1Z" fill="#fff"/>
    </g>
    <g id="グループ_7" data-name="グループ 7">
      <g id="グループ_6" data-name="グループ 6">
        <path id="パス_12" data-name="パス 12" d="M103.9,22v1.4l-3,2.3h3v1.5H98.3V25.8l3.1-2.4H98.3V22Z" fill="#fff"/>
        <path id="パス_13" data-name="パス 13" d="M102.6,28.2v1.5H98.3V28.2Zm1.5,0v1.6H103V28.2Z" fill="#fff"/>
        <path id="パス_14" data-name="パス 14" d="M100.5,30.4h0a2.349,2.349,0,0,1,2.3,2.4,2.27,2.27,0,0,1-2.2,2.4h0a2.349,2.349,0,0,1-2.3-2.4A2.157,2.157,0,0,1,100.5,30.4Zm0,3.3h0a.987.987,0,0,0,1-.9c0-.6-.4-.9-1-.9h0a.987.987,0,0,0-1,.9C99.5,33.4,99.9,33.7,100.5,33.7Z" fill="#fff"/>
        <path id="パス_15" data-name="パス 15" d="M104.1,35.8v1.5H102a1.561,1.561,0,0,1,.7,1.3,1.446,1.446,0,0,1-1.6,1.5H98.3V38.6h2.3c.5,0,.7-.2.7-.6s-.3-.6-.7-.6H98.3V35.9h5.8Z" fill="#fff"/>
        <path id="パス_16" data-name="パス 16" d="M98.9,40.6l.9.6a2.976,2.976,0,0,0-.5,1.5c0,.3.1.4.2.4h0c.2,0,.2-.2.4-.7.2-.9.5-1.5,1.4-1.5h0c.9,0,1.4.7,1.4,1.7a3.743,3.743,0,0,1-.5,1.8l-1-.5a3.259,3.259,0,0,0,.4-1.3c0-.2-.1-.4-.2-.4h0c-.2,0-.2.2-.4.7-.2.9-.5,1.5-1.4,1.5h0c-1,0-1.4-.7-1.4-1.8A3.057,3.057,0,0,1,98.9,40.6Z" fill="#fff"/>
        <path id="パス_17" data-name="パス 17" d="M99.5,44.8h0c.9,0,1.4.7,1.4,1.7a2.509,2.509,0,0,1-.2,1h.1c.4,0,.7-.3.7-.9a4.3,4.3,0,0,0-.2-1.2l1.1-.3a4.5,4.5,0,0,1,.3,1.8,2.173,2.173,0,0,1-.5,1.6,1.978,1.978,0,0,1-1.4.5H98.3V47.5h.4a1.727,1.727,0,0,1-.5-1.3A1.288,1.288,0,0,1,99.5,44.8Zm.4,2.8h.2a1.268,1.268,0,0,0,.1-.6c0-.4-.2-.7-.5-.7h0a.472.472,0,0,0-.5.5A.709.709,0,0,0,99.9,47.6Z" fill="#fff"/>
        <path id="パス_18" data-name="パス 18" d="M102.6,49.8v1.5H102a1.561,1.561,0,0,1,.7,1.3,1.446,1.446,0,0,1-1.6,1.5H98.3V52.6h2.3c.5,0,.7-.2.7-.6s-.3-.6-.7-.6H98.3V49.9h4.3Z" fill="#fff"/>
        <path id="パス_19" data-name="パス 19" d="M99.1,56.8l1,.9a3.4,3.4,0,0,0-.7,1.8c0,.4.1.6.4.6h0c.2,0,.4-.2.5-.9.3-1.2.6-2.1,1.8-2.1h0c1,0,1.8.8,1.8,2.2a3.928,3.928,0,0,1-.7,2.3l-1.1-.8a2.66,2.66,0,0,0,.6-1.6c0-.4-.2-.6-.4-.6h0c-.3,0-.4.2-.5,1-.3,1.3-.7,2.1-1.7,2.1h0c-1.1,0-1.8-.9-1.8-2.3A3.4,3.4,0,0,1,99.1,56.8Z" fill="#fff"/>
        <path id="パス_20" data-name="パス 20" d="M99.7,62.6h1.8v-.5h1.2v.5h1.1v1.5h-1.1v1h-1.2v-1H100c-.3,0-.4.1-.4.4,0,.2.1.4.1.6H98.5a1.815,1.815,0,0,1-.2-1.1C98.2,63.1,98.6,62.6,99.7,62.6Z" fill="#fff"/>
        <path id="パス_21" data-name="パス 21" d="M99.9,65.7v1.6H98.3V65.7Z" fill="#fff"/>
      </g>
    </g>
    <g id="グループ_8" data-name="グループ 8">
      <path id="パス_22" data-name="パス 22" d="M169.2,269.3a5.674,5.674,0,0,0-1.2-1.8l1.2-.5a14.02,14.02,0,0,1,1.2,1.8l-1.2.5H172a8.045,8.045,0,0,0,1.1-2.3l1.4.4c-.4.7-.7,1.2-.8,1.4-.1.1-.2.3-.3.4h1.8a5.313,5.313,0,0,0,1.4-.1v1.4c-.3,0-.8-.1-1.4-.1h-2v5.8h2.2a5.313,5.313,0,0,0,1.4-.1v1.4c-.3,0-.8-.1-1.4-.1h-8a5.313,5.313,0,0,0-1.4.1v-1.4c.3,0,.8.1,1.4.1h2.1v-5.8h-1.9a5.721,5.721,0,0,0-1.4.1v-1.4c.3,0,.8.1,1.4.1h1.6v.1Zm-2.7,2.4,1.2-.4A20.142,20.142,0,0,1,169,275l-1.2.5c-.2-.8-.3-1.4-.5-2C167,272.9,166.8,272.3,166.5,271.7Zm4.2,4.6h1.2v-5.8h-1.2Zm4.3-5,1.3.5a25.679,25.679,0,0,1-1.6,3.7l-1.2-.5A15.845,15.845,0,0,0,175,271.3Z" fill="#fff"/>
      <path id="パス_23" data-name="パス 23" d="M172.4,282.6c.2.4.5.8.8,1.3a7.472,7.472,0,0,0,1.1,1.3,10.481,10.481,0,0,0,1.7,1.4c.4.2.7.5,1.1.7a2.652,2.652,0,0,0-.5.6,4.347,4.347,0,0,0-.4.7,12.182,12.182,0,0,1-2.3-1.9,17.409,17.409,0,0,1-1.2-1.4c-.2-.4-.5-.8-.8-1.3a6.15,6.15,0,0,1,.1,1.3v3.4a6.621,6.621,0,0,0,.1,1.5h-1.6a6.621,6.621,0,0,0,.1-1.5v-3.3a5.282,5.282,0,0,1,.1-1.3c-.2.5-.5.9-.7,1.3a13.723,13.723,0,0,1-3.4,3.4,6.234,6.234,0,0,0-.9-1.2,10.913,10.913,0,0,0,2.9-2.3,7.033,7.033,0,0,0,1.3-1.9c.1-.2.2-.3.3-.5h-2.6a5.313,5.313,0,0,0-1.4.1v-1.4a6.149,6.149,0,0,0,1.4.1h3.1v-1.1a3.749,3.749,0,0,0-.1-1.1h1.5a3.749,3.749,0,0,0-.1,1.1v1.1h3.2a6.621,6.621,0,0,0,1.5-.1V283a6.621,6.621,0,0,0-1.5-.1h-2.8v-.3Z" fill="#fff"/>
      <path id="パス_24" data-name="パス 24" d="M167.4,294.2v-1.7a5.282,5.282,0,0,0-.1-1.3h1.4c0,.3-.1.7-.1,1.3v1.8h1.2v1.3h-1.2v2.8a9.248,9.248,0,0,0,1-.5v1.3a12.028,12.028,0,0,1-2.9,1.2c-.3.1-.4.2-.5.2l-.3-1.4c.4-.1.9-.2,1.5-.4v-3.3h-.5a2.219,2.219,0,0,0-.9.1v-1.3c.2,0,.5.1.9.1h.5v-.2Zm4.1.2h3.4a2.508,2.508,0,0,0,1-.1l.6.7c0,.1-.1.2-.1.3a8.389,8.389,0,0,1-.7,1.9,8.623,8.623,0,0,1-1.1,1.9,5.716,5.716,0,0,0,.8.7,15.055,15.055,0,0,0,1.7,1,5.669,5.669,0,0,0-.8,1.3,10.268,10.268,0,0,1-2.6-1.9,7.721,7.721,0,0,1-2.7,1.9,4.44,4.44,0,0,0-.8-1.1,7.5,7.5,0,0,0,2.8-1.8,10.345,10.345,0,0,1-1.1-2.1,8.33,8.33,0,0,1-.4-1.5,13.1,13.1,0,0,1-.7,4,11.938,11.938,0,0,1-.8,1.6,3.039,3.039,0,0,1-.5.7,5.305,5.305,0,0,0-1.1-.9c.3-.4.6-.7.8-1a6.391,6.391,0,0,0,.8-1.9,21.333,21.333,0,0,0,.4-4.9v-1.8c.3,0,.8.1,1.3.1h4a4.512,4.512,0,0,0,1.3-.1v1.4c-.3,0-.8-.1-1.3-.1h-4V294C171.5,294.2,171.5,294.3,171.5,294.4Zm1.2,1.2a12.131,12.131,0,0,0,.5,1.4,6.658,6.658,0,0,0,.6,1.2,7.564,7.564,0,0,0,1.1-2.6Z" fill="#fff"/>
    </g>
    <g id="グループ_10" data-name="グループ 10">
      <g id="グループ_9" data-name="グループ 9">
        <path id="パス_25" data-name="パス 25" d="M159.2,268.5v1.4l-3,2.3h3v1.5h-5.6v-1.4l3.1-2.4h-3.1v-1.5h5.6Z" fill="#fff"/>
        <path id="パス_26" data-name="パス 26" d="M154.8,274.5h0c.9,0,1.4.7,1.4,1.7a2.51,2.51,0,0,1-.2,1h.1c.4,0,.7-.3.7-.9a4.3,4.3,0,0,0-.2-1.2l1.1-.3a4.5,4.5,0,0,1,.3,1.8,2.173,2.173,0,0,1-.5,1.6,1.978,1.978,0,0,1-1.4.5h-2.5v-1.5h.4a1.727,1.727,0,0,1-.5-1.3A1.288,1.288,0,0,1,154.8,274.5Zm.4,2.8h.2a1.268,1.268,0,0,0,.1-.6c0-.4-.2-.7-.5-.7h0a.472.472,0,0,0-.5.5A.709.709,0,0,0,155.2,277.3Z" fill="#fff"/>
        <path id="パス_27" data-name="パス 27" d="M157.9,279.5V281h-.6a1.561,1.561,0,0,1,.7,1.3,1.273,1.273,0,0,1-.7,1.2,1.91,1.91,0,0,1,.7,1.4,1.446,1.446,0,0,1-1.6,1.5h-2.8V285H156c.5,0,.7-.2.7-.6s-.2-.6-.7-.6h-2.4v-1.5H156c.5,0,.7-.2.7-.6s-.2-.6-.7-.6h-2.4v-1.5l4.3-.1Z" fill="#fff"/>
        <path id="パス_28" data-name="パス 28" d="M157.9,287.3v1.5h-4.3v-1.5Zm1.5,0v1.6h-1.1v-1.6Z" fill="#fff"/>
        <path id="パス_29" data-name="パス 29" d="M159.4,289.7v1.5h-3l1.4,1.2v1.7l-1.7-1.5-2.6,1.5v-1.7l1.5-.9-.5-.4h-1v-1.5l5.9.1Z" fill="#fff"/>
        <path id="パス_30" data-name="パス 30" d="M157.9,294.5V296h-4.3v-1.5Zm1.5,0v1.6h-1.1v-1.6Z" fill="#fff"/>
        <path id="パス_31" data-name="パス 31" d="M156.8,296.8v2.6h-1.3v-2.6Z" fill="#fff"/>
        <path id="パス_32" data-name="パス 32" d="M154.6,300l2.1,2v-1.9h1.2V304h-1l-2.1-2v2h-1.2v-4Z" fill="#fff"/>
        <path id="パス_33" data-name="パス 33" d="M154.8,304.5h0c.9,0,1.4.7,1.4,1.7a2.51,2.51,0,0,1-.2,1h.1c.4,0,.7-.3.7-.9a4.3,4.3,0,0,0-.2-1.2l1.1-.3a4.5,4.5,0,0,1,.3,1.8,2.173,2.173,0,0,1-.5,1.6,1.978,1.978,0,0,1-1.4.5h-2.5v-1.5h.4a1.727,1.727,0,0,1-.5-1.3A1.288,1.288,0,0,1,154.8,304.5Zm.4,2.7h.2a1.268,1.268,0,0,0,.1-.6c0-.4-.2-.7-.5-.7h0a.472.472,0,0,0-.5.5C154.5,306.9,154.7,307.2,155.2,307.2Z" fill="#fff"/>
        <path id="パス_34" data-name="パス 34" d="M159.4,309.5V311h-3l1.4,1.2v1.7l-1.7-1.5-2.6,1.5v-1.7l1.5-.9-.5-.4h-1v-1.5l5.9.1Z" fill="#fff"/>
        <path id="パス_35" data-name="パス 35" d="M154.8,314.1h0c.9,0,1.4.7,1.4,1.7a2.51,2.51,0,0,1-.2,1h.1c.4,0,.7-.3.7-.9a4.3,4.3,0,0,0-.2-1.2l1.1-.3a4.5,4.5,0,0,1,.3,1.8,2.173,2.173,0,0,1-.5,1.6,1.978,1.978,0,0,1-1.4.5h-2.5v-1.5h.4a1.727,1.727,0,0,1-.5-1.3A1.288,1.288,0,0,1,154.8,314.1Zm.4,2.7h.2a1.268,1.268,0,0,0,.1-.6c0-.4-.2-.7-.5-.7h0a.472.472,0,0,0-.5.5C154.5,316.5,154.7,316.8,155.2,316.8Z" fill="#fff"/>
      </g>
    </g>
    <g id="グループ_11" data-name="グループ 11">
      <path id="パス_36" data-name="パス 36" d="M171.8,518.3v4.4h3.5a7.117,7.117,0,0,0,1.6-.1V524a7.117,7.117,0,0,0-1.6-.1h-7.6a9.152,9.152,0,0,0-1.7.1v-1.4a7.63,7.63,0,0,0,1.7.1h2.7V515a6.15,6.15,0,0,0-.1-1.4h1.6a5.721,5.721,0,0,0-.1,1.4v2h2.8a6.151,6.151,0,0,0,1.4-.1v1.4c-.4,0-.8-.1-1.4-.1l-2.8.1Z" fill="#fff"/>
      <path id="パス_37" data-name="パス 37" d="M165.9,531.3V530c.3,0,.6.1.9.1h.8a2.22,2.22,0,0,0,.9-.1c0,.3-.1.7-.1,1.3v2.6a4.35,4.35,0,0,0,.6.7.864.864,0,0,0,.6.3,12.529,12.529,0,0,0,2.4.2,14.175,14.175,0,0,0,2.3-.1c.5-.1,1.5-.1,2.7-.3a6.371,6.371,0,0,0-.2.7,2.2,2.2,0,0,0-.1.8c-1.4.1-3,.1-4.8.1a8.236,8.236,0,0,1-2.7-.3,4.13,4.13,0,0,1-1.1-.7l-.3-.3-.2.2c-.3.3-.8.7-1.3,1.2l-.7-1.3a9.215,9.215,0,0,0,.8-.5,5.716,5.716,0,0,0,.8-.7v-2.6h-.6A1.633,1.633,0,0,0,165.9,531.3Zm-.1-4.8,1-.9a11.412,11.412,0,0,1,1.1,1.1c.4.4.7.8,1,1.1l-1,1A9.3,9.3,0,0,0,165.8,526.5Zm5.8,1.5h0c-.5-.3-.8-.5-1-.6l.9-.5h-1.2a4.122,4.122,0,0,0-1.2.1v-1.2c.3,0,.8.1,1.4.1h3.9a4.182,4.182,0,0,0,1.4-.1l.6.7a7.361,7.361,0,0,0-.6.5c-.3.2-.6.5-1.1.8-.2.1-.3.2-.5.3h1a3.451,3.451,0,0,0,1.2-.1v5.1a1.719,1.719,0,0,1-.1.8.821.821,0,0,1-.5.5,2.509,2.509,0,0,1-1,.1h-.5a1.8,1.8,0,0,0-.3-1.1,2.486,2.486,0,0,0,.8.1h.2a.1.1,0,0,1,.1-.1v-.9h-1.8v.5a4.512,4.512,0,0,0,.1,1.3h-1.3c0-.3.1-.7.1-1.3v-.5h-1.6v.6a4.153,4.153,0,0,0,.1,1.3h-1.4c0-.3.1-.7.1-1.3v-3.8a5.314,5.314,0,0,0-.1-1.4c.3,0,.8.1,1.3.1Zm.6,1h-1.6v.8h1.6Zm-1.6,1.7v.8h1.6v-.8Zm1-3.9c.3.2.6.4,1.1.8l.1.1.1-.1c.5-.4.9-.6,1.1-.8Zm1.8,2.2v.8h1.8V529Zm1.8,2.5v-.8h-1.8v.8Z" fill="#fff"/>
    </g>
    <g id="グループ_13" data-name="グループ 13">
      <g id="グループ_12" data-name="グループ 12">
        <path id="パス_38" data-name="パス 38" d="M159.2,514.9v1.6h-2.3l2.3,1.9v1.8l-2.4-2.1-3.2,2.2v-1.9l2.1-1.4-.6-.6h-1.4v-1.6l5.5.1Z" fill="#fff"/>
        <path id="パス_39" data-name="パス 39" d="M154.8,520.5h0c.9,0,1.4.7,1.4,1.7a2.509,2.509,0,0,1-.2,1h.1c.4,0,.7-.3.7-.9a4.3,4.3,0,0,0-.2-1.2l1.1-.3a4.5,4.5,0,0,1,.3,1.8,2.173,2.173,0,0,1-.5,1.6,1.978,1.978,0,0,1-1.4.5h-2.5v-1.5h.4a1.727,1.727,0,0,1-.5-1.3A1.288,1.288,0,0,1,154.8,520.5Zm.4,2.7h.2a1.268,1.268,0,0,0,.1-.6c0-.4-.2-.7-.5-.7h0a.472.472,0,0,0-.5.5C154.5,522.9,154.7,523.2,155.2,523.2Z" fill="#fff"/>
        <path id="パス_40" data-name="パス 40" d="M157.9,525.5V527h-.6a1.561,1.561,0,0,1,.7,1.3,1.273,1.273,0,0,1-.7,1.2,1.91,1.91,0,0,1,.7,1.4,1.446,1.446,0,0,1-1.6,1.5h-2.8v-1.5H156c.5,0,.7-.2.7-.6s-.2-.6-.7-.6h-2.4v-1.5H156c.5,0,.7-.2.7-.6s-.2-.6-.7-.6h-2.4v-1.5Z" fill="#fff"/>
        <path id="パス_41" data-name="パス 41" d="M157.9,533.3v1.5h-4.3v-1.5Zm1.5,0v1.6h-1.1v-1.6Z" fill="#fff"/>
        <path id="パス_42" data-name="パス 42" d="M154.9,535.9h1.8v-.5h1.2v.5H159v1.5h-1.1v1h-1.2v-1h-1.5c-.3,0-.4.1-.4.4,0,.2.1.4.1.6h-1.2a1.815,1.815,0,0,1-.2-1.1A1.263,1.263,0,0,1,154.9,535.9Z" fill="#fff"/>
        <path id="パス_43" data-name="パス 43" d="M155.7,538.9h0a2.349,2.349,0,0,1,2.3,2.4,2.27,2.27,0,0,1-2.2,2.4h0a2.349,2.349,0,0,1-2.3-2.4A2.27,2.27,0,0,1,155.7,538.9Zm0,3.3h0a.987.987,0,0,0,1-.9c0-.6-.4-.9-1-.9h0a.905.905,0,1,0,0,1.8Z" fill="#fff"/>
        <path id="パス_44" data-name="パス 44" d="M157.9,544.3v1.5H157a1.18,1.18,0,0,1,.9,1.4h-1.6v-.1q0-1.2-1.5-1.2h-1.3v-1.5h4.4v-.1Z" fill="#fff"/>
        <path id="パス_45" data-name="パス 45" d="M157.9,547.8v1.5h-4.3v-1.5Zm1.5,0v1.6h-1.1v-1.6Z" fill="#fff"/>
      </g>
    </g>
    <g id="グループ_14" data-name="グループ 14">
      <path id="パス_46" data-name="パス 46" d="M377.7,36.4H376V35h4.9v1.4h-1.7v4.2h-1.6V36.4Z" fill="#fff"/>
      <path id="パス_47" data-name="パス 47" d="M381.4,38.5h0a2.349,2.349,0,0,1,2.4-2.3,2.27,2.27,0,0,1,2.4,2.2h0a2.349,2.349,0,0,1-2.4,2.3A2.157,2.157,0,0,1,381.4,38.5Zm3.3,0h0a.987.987,0,0,0-.9-1c-.6,0-.9.4-.9,1h0a.987.987,0,0,0,.9,1A.923.923,0,0,0,384.7,38.5Z" fill="#fff"/>
      <path id="パス_48" data-name="パス 48" d="M389.1,35.1h4.5v1.4h-2.9v1h2.6v1.3h-2.6v2h-1.6Z" fill="#fff"/>
      <path id="パス_49" data-name="パス 49" d="M394.2,39.2V36.4h1.5v2.3c0,.5.2.7.6.7s.6-.3.6-.7V36.4h1.5v4.3h-1.5v-.6a1.561,1.561,0,0,1-1.3.7C394.7,40.8,394.2,40.2,394.2,39.2Z" fill="#fff"/>
      <path id="パス_50" data-name="パス 50" d="M398.7,41.9v-1h.2c.3,0,.4-.1.4-.5V36.3h1.5v4.1a1.324,1.324,0,0,1-1.5,1.5A1.146,1.146,0,0,1,398.7,41.9Zm.6-7.1h1.6V36h-1.6Z" fill="#fff"/>
      <path id="パス_51" data-name="パス 51" d="M401.7,34.8h1.6V36h-1.6Zm0,1.5h1.5v4.3h-1.5Z" fill="#fff"/>
      <path id="パス_52" data-name="パス 52" d="M403.8,40.1l.6-.9a2.976,2.976,0,0,0,1.5.5c.3,0,.4-.1.4-.2h0c0-.2-.2-.2-.7-.4-.9-.2-1.5-.5-1.5-1.4h0c0-.9.7-1.4,1.7-1.4a3.743,3.743,0,0,1,1.8.5l-.5,1a3.258,3.258,0,0,0-1.3-.4c-.2,0-.4.1-.4.2h0c0,.2.2.2.7.4.9.2,1.5.5,1.5,1.4h0c0,1-.7,1.4-1.8,1.4A3.057,3.057,0,0,1,403.8,40.1Z" fill="#fff"/>
      <path id="パス_53" data-name="パス 53" d="M408,39.4h0c0-.9.7-1.4,1.7-1.4a2.509,2.509,0,0,1,1,.2v-.1c0-.4-.3-.7-.9-.7a4.3,4.3,0,0,0-1.2.2l-.3-1.1a4.5,4.5,0,0,1,1.8-.3,2.173,2.173,0,0,1,1.6.5,1.978,1.978,0,0,1,.5,1.4v2.5h-1.5v-.4a1.728,1.728,0,0,1-1.3.5A1.191,1.191,0,0,1,408,39.4Zm2.7-.3v-.2a1.268,1.268,0,0,0-.6-.1c-.4,0-.7.2-.7.5h0a.472.472,0,0,0,.5.5A.713.713,0,0,0,410.7,39.1Z" fill="#fff"/>
      <path id="パス_54" data-name="パス 54" d="M413,34.8h1.5v3l1.2-1.4h1.7l-1.5,1.7,1.5,2.6h-1.7l-.9-1.5-.4.5v1H413Z" fill="#fff"/>
      <path id="パス_55" data-name="パス 55" d="M417.8,34.8h1.6V36h-1.6Zm.1,1.5h1.5v4.3h-1.5Z" fill="#fff"/>
      <path id="パス_56" data-name="パス 56" d="M420.2,41.5l.5-1a2.6,2.6,0,0,0,1.5.4.959.959,0,0,0,1.1-1.1v-.2a1.486,1.486,0,0,1-1.3.6,1.865,1.865,0,0,1-1.9-2h0a1.923,1.923,0,0,1,1.9-2,2.246,2.246,0,0,1,1.4.6v-.5h1.5v3.3a2.2,2.2,0,0,1-.6,1.7,2.546,2.546,0,0,1-1.9.6A3.791,3.791,0,0,1,420.2,41.5Zm3.1-3.2h0a.817.817,0,0,0-.9-.8.882.882,0,0,0-.9.8h0a.906.906,0,0,0,1.8,0Z" fill="#fff"/>
      <path id="パス_57" data-name="パス 57" d="M425.6,39.2V36.4h1.5v2.3c0,.5.2.7.6.7s.6-.3.6-.7V36.4h1.5v4.3h-1.5v-.6a1.561,1.561,0,0,1-1.3.7C426.1,40.8,425.6,40.2,425.6,39.2Z" fill="#fff"/>
    </g>
    <g id="グループ_15" data-name="グループ 15">
      <path id="パス_58" data-name="パス 58" d="M224,440.8h-1.2c0,.7-.1,1.1-.1,1.3a6.073,6.073,0,0,1-.4,1.7c-.1.2-.2.5-.4.9-.1-.1-.2-.2-.2-.3-.2-.2-.3-.4-.5-.5a1.38,1.38,0,0,0-.4-.3,3.7,3.7,0,0,0,.5-1.1,6.648,6.648,0,0,0,.3-2.1c.1-1.1.1-2.5.1-4.3a12.219,12.219,0,0,0-.1-2.2c.3,0,.7.1,1.1.1h1.5a2.219,2.219,0,0,0,.9-.1v9.3a1.719,1.719,0,0,1-.1.8.918.918,0,0,1-.6.4c-.2,0-.5.1-.8.1H223c0-.2-.1-.4-.1-.7-.1-.2-.1-.5-.2-.7a2.814,2.814,0,0,0,.8.1c.2,0,.3,0,.3-.1.1,0,.1-.1.1-.3l.1-2Zm0-2.8h-1.1v1.7h1.2L224,438Zm0-1.1v-1.7h-1.1v1.7Zm8,4.6a15.245,15.245,0,0,1-.3,1.9,1.234,1.234,0,0,1-.5.8,2.676,2.676,0,0,1-1.1.2h-1.6a9.1,9.1,0,0,1-2.1-.2c-.2-.1-.4-.2-.4-.4-.1-.1-.1-.3-.1-.6v-9.1h5.6c0,.3-.1.7-.1,1.1v3.3a3.11,3.11,0,0,0,.1,1.1h-4.4v3.1c0,.2,0,.3.1.3.1.1.3.1.6.2h1a4.953,4.953,0,0,0,1.5-.1l.3-.3a10.85,10.85,0,0,0,.2-1.7c.2.1.5.2.7.3A4.336,4.336,0,0,1,232,441.5Zm-3.9-3v-3.2h-.9v3.2Zm1.2-3.2v3.2h1v-3.2Z" fill="#fff"/>
      <path id="パス_59" data-name="パス 59" d="M234.2,439.6l-.9.9c-.2-.5-.4-.9-.6-1.3a10.591,10.591,0,0,0,1.2-1,10.1,10.1,0,0,0,1.3-1.6,2.186,2.186,0,0,1,.3-.5l1.1.7c-.1.1-.2.3-.4.5l-.1.2-.2.3c-.2.2-.3.4-.4.5v4.9a5.313,5.313,0,0,0,.1,1.4h-1.4a4.512,4.512,0,0,0,.1-1.3v-2.7A2.508,2.508,0,0,1,234.2,439.6Zm-.6-2.7a4.13,4.13,0,0,0-.7-1.1,5.085,5.085,0,0,0,1.3-.9,7.887,7.887,0,0,0,1.2-1.5l1.1.8-.1.1A11.253,11.253,0,0,1,233.6,436.9Zm5.8-.3a10.31,10.31,0,0,0,1.8-2.3l1.2.7c0,.1-.1.1-.2.2l-.1.1c-.2.3-.6.7-1.1,1.3a15.93,15.93,0,0,1-1.3,1.3l-.1.1c.7,0,1.3-.1,1.9-.1h.4c-.1-.2-.4-.5-.6-.8l1-.6c.6.7,1.2,1.6,1.9,2.6l-1.1.7c-.2-.4-.4-.7-.5-.9l-.5.1a18.319,18.319,0,0,1-2.1.2h-.2a2.092,2.092,0,0,1-.4.6h2.9l.7.7c-.1.1-.1.2-.2.3a10.708,10.708,0,0,1-1.8,1.9,16.188,16.188,0,0,0,1.7.6l1.5.3c-.2.4-.4.8-.6,1.3a10.883,10.883,0,0,1-2.4-.7,3.991,3.991,0,0,1-1.3-.7,11.938,11.938,0,0,1-1.6.8,8.93,8.93,0,0,1-2,.6,1.628,1.628,0,0,0-.3-.6l-.3-.6a10.888,10.888,0,0,0,3.2-1,9.323,9.323,0,0,1-1-1,16.964,16.964,0,0,1-1.4,1,5.926,5.926,0,0,0-.4-.6c-.1-.1-.2-.3-.4-.5a9.5,9.5,0,0,0,1.7-1,3.543,3.543,0,0,0,1-1.2h-1a7.967,7.967,0,0,0-1.1.1L236,438h1.9l.2-.2.2-.2.1-.1-.6-.6c-.4-.3-.9-.7-1.6-1.2l.8-.9c.3.2.5.3.6.5a10.625,10.625,0,0,0,.9-1.1,5.733,5.733,0,0,0,.4-.7l1.2.6a1.381,1.381,0,0,0-.3.4c-.2.2-.5.6-.9,1.1l-.4.4A3.491,3.491,0,0,1,239.4,436.6Zm-.7,4.1a5.731,5.731,0,0,0,1.1,1.1,6.532,6.532,0,0,0,1.2-1.1Z" fill="#fff"/>
      <path id="パス_60" data-name="パス 60" d="M253.4,439.3a5.415,5.415,0,0,0,.4,1.5,4.478,4.478,0,0,0,1.4-1.3l.8.9c-.1.1-.4.3-.7.6a8.65,8.65,0,0,1-1,.7,5.346,5.346,0,0,0,1.9,1.7,6.224,6.224,0,0,0-.8,1.2,8.649,8.649,0,0,1-2.1-2.2v1.1a31.04,31.04,0,0,1-3.6,1c-.1,0-.3.1-.4.1l-.2-1a22.139,22.139,0,0,1-3,.7l-.4.1a2.034,2.034,0,0,0-.5.1l-.2-1.3c.4,0,1-.1,1.9-.2h.1v-3.4h-.7a4.121,4.121,0,0,0-1.2.1v-1.2c.3,0,.7.1,1.2.1h.7v-.9h-1v-.5c-.2.2-.4.3-.6.5a6.722,6.722,0,0,0-.6-1.2,5.435,5.435,0,0,0,2.2-2.6h1.3a3.6,3.6,0,0,0,.5.9,7.688,7.688,0,0,0,1.3,1.2v-.5a4.512,4.512,0,0,0-.1-1.3h4.2a3.11,3.11,0,0,0,1.1-.1v5.1h-.9l-1,.1Zm-6.7,3-1,.3a16.949,16.949,0,0,0-.5-2.4l1-.3A7.92,7.92,0,0,1,246.7,442.3Zm-.1-5.7h2.5a5.155,5.155,0,0,1-1.3-1.7A12.492,12.492,0,0,1,246.6,436.6Zm1.6,6.1c.4-.1.9-.2,1.5-.4v1a4.331,4.331,0,0,0,.5-.1V436a4.616,4.616,0,0,0-.7,1l-.2-.1v.8h-1.1v.9h.6a2.508,2.508,0,0,0,1-.1v1.2c-.2,0-.6-.1-1-.1h-.6v3.1Zm1-.5-.8-.3c.2-.6.4-1.2.6-2l.9.3A7.711,7.711,0,0,1,249.2,442.2Zm2.3-6.9v.9h2.8v-.9Zm0,2v.9h2.8v-.9Zm.7,2h-.7v3.6a12.09,12.09,0,0,0,1.8-.5,9.143,9.143,0,0,1-.7-1.4A14.576,14.576,0,0,1,252.2,439.3Z" fill="#fff"/>
      <path id="パス_61" data-name="パス 61" d="M258.6,439.6a2.651,2.651,0,0,1-.5.6c-.2.2-.4.3-.6.5-.2-.5-.4-.9-.6-1.3a6.885,6.885,0,0,0,1.3-1.1,8.312,8.312,0,0,0,1.6-2.1l1.1.7c-.1.1-.2.3-.4.5-.2.3-.5.6-.7.9V443a5.757,5.757,0,0,0,.1,1.5h-1.5c0-.3.1-.8.1-1.5v-2A5.313,5.313,0,0,0,258.6,439.6Zm-.9-2.5a4.441,4.441,0,0,0-.8-1.1,8.341,8.341,0,0,0,2.1-1.6,3.279,3.279,0,0,0,.6-.8l1.1.8-.4.4A8.29,8.29,0,0,1,257.7,437.1Zm7.1,1.3h-2.3a6.621,6.621,0,0,0-1.5.1v-1.3a6.181,6.181,0,0,0,1.5.1h4.1a5.757,5.757,0,0,0,1.5-.1v1.3a6.149,6.149,0,0,0-1.4-.1h-.5v4.8a1.549,1.549,0,0,1-.2.8.918.918,0,0,1-.6.4,2.787,2.787,0,0,1-1,.1h-1.3a4.962,4.962,0,0,0-.3-1.3,10.364,10.364,0,0,0,1.6.1c.3,0,.4,0,.5-.1.1,0,.1-.1.1-.2v-4.6h-.2Zm-3.3-2.9v-1.3c.3,0,.7.1,1.4.1h3.2a5.313,5.313,0,0,0,1.4-.1v1.3c-.4,0-.8-.1-1.3-.1h-3.3A5.313,5.313,0,0,0,261.5,435.5Z" fill="#fff"/>
    </g>
    <g id="グループ_16" data-name="グループ 16">
      <path id="パス_62" data-name="パス 62" d="M221.9,452.5h1.6v2.1h2v-2.1h1.6v5.6h-1.6V456h-2v2.1h-1.6Z" fill="#fff"/>
      <path id="パス_63" data-name="パス 63" d="M227.9,452.3h1.6v1.1h-1.6Zm.1,1.5h1.5v4.3H228Z" fill="#fff"/>
      <path id="パス_64" data-name="パス 64" d="M230.3,458.9l.5-1a2.6,2.6,0,0,0,1.5.4.959.959,0,0,0,1.1-1.1V457a1.486,1.486,0,0,1-1.3.6,1.865,1.865,0,0,1-1.9-2h0a1.923,1.923,0,0,1,1.9-2,2.245,2.245,0,0,1,1.4.6v-.5H235V457a2.2,2.2,0,0,1-.6,1.7,2.546,2.546,0,0,1-1.9.6A3.791,3.791,0,0,1,230.3,458.9Zm3.1-3.2h0a.817.817,0,0,0-.9-.8.882.882,0,0,0-.9.8h0a.817.817,0,0,0,.9.8A.729.729,0,0,0,233.4,455.7Z" fill="#fff"/>
      <path id="パス_65" data-name="パス 65" d="M235.6,456h0a2.349,2.349,0,0,1,2.4-2.3,2.27,2.27,0,0,1,2.4,2.2h0a2.349,2.349,0,0,1-2.4,2.3A2.27,2.27,0,0,1,235.6,456Zm3.3,0h0a.987.987,0,0,0-.9-1c-.6,0-.9.4-.9,1h0a.987.987,0,0,0,.9,1A1.063,1.063,0,0,0,238.9,456Z" fill="#fff"/>
      <path id="パス_66" data-name="パス 66" d="M243.3,452.5h2.9a2.07,2.07,0,0,1,1.5.5,1.268,1.268,0,0,1,.4.9h0a1.292,1.292,0,0,1-.9,1.2,1.32,1.32,0,0,1,1.1,1.4h0c0,1-.8,1.5-2.1,1.5h-2.9Zm2.5,2.3c.5,0,.7-.2.7-.5h0c0-.3-.2-.5-.7-.5h-1v1Zm.2,2.1c.5,0,.7-.2.7-.5h0c0-.3-.2-.5-.8-.5h-1.2v1Z" fill="#fff"/>
      <path id="パス_67" data-name="パス 67" d="M248.7,456.9h0c0-.9.7-1.4,1.7-1.4a2.509,2.509,0,0,1,1,.2v-.1c0-.4-.3-.7-.9-.7a4.3,4.3,0,0,0-1.2.2L249,454a4.5,4.5,0,0,1,1.8-.3,2.173,2.173,0,0,1,1.6.5,1.978,1.978,0,0,1,.5,1.4v2.5h-1.5v-.4a1.728,1.728,0,0,1-1.3.5A1.283,1.283,0,0,1,248.7,456.9Zm2.8-.3v-.2a1.268,1.268,0,0,0-.6-.1c-.4,0-.7.2-.7.5h0a.472.472,0,0,0,.5.5A.713.713,0,0,0,251.5,456.6Z" fill="#fff"/>
      <path id="パス_68" data-name="パス 68" d="M253.7,453.8h1.5v.6a1.561,1.561,0,0,1,1.3-.7,1.446,1.446,0,0,1,1.5,1.6v2.8h-1.5v-2.3c0-.5-.2-.7-.6-.7s-.6.3-.6.7v2.3h-1.5l-.1-4.3Z" fill="#fff"/>
      <path id="パス_69" data-name="パス 69" d="M258.8,452.3h1.5v3l1.2-1.4h1.7l-1.5,1.7,1.5,2.6h-1.7l-.9-1.5-.4.5v1h-1.5l.1-5.9Z" fill="#fff"/>
    </g>
    <g id="グループ_17" data-name="グループ 17">
      <line id="線_3" data-name="線 3" x2="433.5" transform="translate(3 325.6)" fill="none" stroke="#fff" stroke-linecap="round" stroke-miterlimit="10" stroke-width="1"/>
    </g>
    <g id="グループ_18" data-name="グループ 18">
      <path id="パス_70" data-name="パス 70" d="M436.5,470H202.3a12.825,12.825,0,0,1-12.8-12.8V104.4" fill="none" stroke="#fff" stroke-linecap="round" stroke-linejoin="round" stroke-miterlimit="10" stroke-width="5"/>
    </g>
    <path id="パス_71" data-name="パス 71" d="M189.5,602V477.8" fill="none" stroke="#fff" stroke-linecap="round" stroke-linejoin="round" stroke-miterlimit="10" stroke-width="5"/>
    <circle id="楕円形_1" data-name="楕円形 1" cx="5.2" cy="5.2" r="5.2" transform="translate(201.9 449.4)" fill="#fff"/>
    <g id="グループ_19" data-name="グループ 19">
      <path id="パス_72" data-name="パス 72" d="M171.4,185.8a4.1,4.1,0,0,1-3.1-1.4c-5.1-6.2-13.7-18-13.7-27.1a16.8,16.8,0,1,1,33.6,0c0,8.4-7.7,19.4-12.2,25.2l-1.5,1.9A4.683,4.683,0,0,1,171.4,185.8Z" fill="#fff"/>
      <path id="パス_73" data-name="パス 73" d="M171.4,142a15.364,15.364,0,0,1,15.3,15.3c0,8-7.4,18.6-11.9,24.3l-1.5,1.8a2.456,2.456,0,0,1-3.8,0c-4.1-5-13.4-17.2-13.4-26.1A15.3,15.3,0,0,1,171.4,142m0-3a18.309,18.309,0,0,0-18.3,18.3c0,9.6,8.8,21.7,14,28a5.41,5.41,0,0,0,8.4,0l1.5-1.8h0c5.7-7.3,12.5-17.7,12.5-26.2A18.013,18.013,0,0,0,171.4,139Z" fill="#fff"/>
    </g>
    <circle id="楕円形_2" data-name="楕円形 2" cx="5.7" cy="5.7" r="5.7" transform="translate(165.6 151.7)" fill="#fff"/>
    <g id="グループ_20" data-name="グループ 20">
      <path id="パス_74" data-name="パス 74" d="M134.5,104.5V20" fill="none" stroke="#fff" stroke-linecap="round" stroke-linejoin="round" stroke-miterlimit="10" stroke-width="5"/>
    </g>
    <g id="グループ_21" data-name="グループ 21">
      <path id="パス_75" data-name="パス 75" d="M221.4,220.3h2.3v6.4h4.1v2h-6.4v-8.4Z" fill="#fff"/>
      <path id="パス_76" data-name="パス 76" d="M231.9,220.3h2.2l3.6,8.5h-2.5l-.6-1.5h-3.2l-.6,1.5h-2.4Zm2.1,5.1-1-2.4-.9,2.4Z" fill="#fff"/>
      <path id="パス_77" data-name="パス 77" d="M237.3,220.3h2.5l1.5,4.9,1.6-4.9h2l1.6,4.9,1.5-4.9h2.4l-2.8,8.5h-2l-1.7-4.8-1.7,4.8h-2Z" fill="#fff"/>
      <path id="パス_78" data-name="パス 78" d="M250.5,227.5l1.3-1.5a4.122,4.122,0,0,0,2.7,1c.6,0,1-.2,1-.6h0c0-.3-.3-.5-1.4-.8-1.8-.4-3.2-.9-3.2-2.6h0c0-1.6,1.2-2.7,3.3-2.7a5.837,5.837,0,0,1,3.5,1.1l-1.2,1.6a4.577,4.577,0,0,0-2.4-.8c-.6,0-.8.2-.8.5h0c0,.4.3.6,1.5.8,1.9.4,3.1,1,3.1,2.6h0c0,1.7-1.4,2.7-3.4,2.7A5.391,5.391,0,0,1,250.5,227.5Z" fill="#fff"/>
      <path id="パス_79" data-name="パス 79" d="M258.6,224.6h0a4.4,4.4,0,0,1,4.5-4.4,4.317,4.317,0,0,1,4.5,4.3h0a4.4,4.4,0,0,1-4.5,4.4A4.317,4.317,0,0,1,258.6,224.6Zm6.7,0h0a2.241,2.241,0,0,0-2.2-2.3,2.075,2.075,0,0,0-2.1,2.2h0a2.225,2.225,0,0,0,2.1,2.3A2.156,2.156,0,0,0,265.3,224.6Z" fill="#fff"/>
      <path id="パス_80" data-name="パス 80" d="M269,220.3h2.2l3.5,4.4v-4.4H277v8.4h-2l-3.6-4.6v4.6H269Z" fill="#fff"/>
    </g>
    <circle id="楕円形_3" data-name="楕円形 3" cx="5.2" cy="5.2" r="5.2" transform="translate(201.9 219.4)" fill="#fff"/>
    <g id="グループ_22" data-name="グループ 22">
      <path id="パス_81" data-name="パス 81" d="M220.7,551.3l1.3-1.5a4.122,4.122,0,0,0,2.7,1c.6,0,1-.2,1-.6h0c0-.3-.3-.5-1.4-.8-1.8-.4-3.2-.9-3.2-2.6h0c0-1.6,1.2-2.7,3.3-2.7a5.837,5.837,0,0,1,3.5,1.1l-1.2,1.6a4.577,4.577,0,0,0-2.4-.8c-.6,0-.8.2-.8.5h0c0,.4.3.6,1.5.8,1.9.4,3.1,1,3.1,2.6h0c0,1.7-1.4,2.7-3.4,2.7A6.2,6.2,0,0,1,220.7,551.3Z" fill="#fff"/>
      <path id="パス_82" data-name="パス 82" d="M229.3,544.1h6.8v2h-4.5v1.3h4v1.8h-4v1.3h4.5v2h-6.8Z" fill="#fff"/>
      <path id="パス_83" data-name="パス 83" d="M236.8,544.1h2.6l1.9,5.3,1.9-5.3h2.6l-3.4,8.5h-2.2Z" fill="#fff"/>
      <path id="パス_84" data-name="パス 84" d="M246.7,544.1h6.8v2H249v1.3h4v1.8h-4v1.3h4.5v2h-6.8Z" fill="#fff"/>
      <path id="パス_85" data-name="パス 85" d="M255,544.1h2.2l3.5,4.4v-4.4H263v8.4h-2l-3.6-4.6v4.6H255Z" fill="#fff"/>
      <path id="パス_86" data-name="パス 86" d="M264.5,547.8h3.9v2h-3.9Z" fill="#fff"/>
      <path id="パス_87" data-name="パス 87" d="M270,544.1h6.8v2h-4.5v1.3h4v1.8h-4v1.3h4.5v2H270Z" fill="#fff"/>
      <path id="パス_88" data-name="パス 88" d="M278.3,544.1h2.3v6.4h4.1v2h-6.4Z" fill="#fff"/>
      <path id="パス_89" data-name="パス 89" d="M285.6,544.1h6.8v2h-4.5v1.3h4v1.8h-4v1.3h4.5v2h-6.8Z" fill="#fff"/>
      <path id="パス_90" data-name="パス 90" d="M293.1,544.1h2.6l1.9,5.3,1.9-5.3h2.6l-3.4,8.5h-2.2Z" fill="#fff"/>
      <path id="パス_91" data-name="パス 91" d="M303,544.1h6.8v2h-4.5v1.3h4v1.8h-4v1.3h4.5v2H303Z" fill="#fff"/>
      <path id="パス_92" data-name="パス 92" d="M311.2,544.1h2.2l3.5,4.4v-4.4h2.3v8.4h-2l-3.6-4.6v4.6h-2.3v-8.4Z" fill="#fff"/>
    </g>
    <circle id="楕円形_4" data-name="楕円形 4" cx="5.2" cy="5.2" r="5.2" transform="translate(201.9 542.2)" fill="#fff"/>
    <g id="グループ_23" data-name="グループ 23">
      <path id="パス_93" data-name="パス 93" d="M100.2,560.6l17.3-153.7a12.691,12.691,0,0,1,12.7-11.3H436.6" fill="none" stroke="#fff" stroke-linecap="round" stroke-miterlimit="10" stroke-width="1"/>
    </g>
    <g id="グループ_24" data-name="グループ 24">
      <path id="パス_94" data-name="パス 94" d="M221.9,183.4a9.467,9.467,0,0,0,.9-1.7l1.3.2c0,.1-.1.2-.2.3-.2.4-.5.8-.7,1.2.6,0,1.1-.1,1.5-.1h.2c-.1-.2-.3-.4-.5-.7l.9-.5a4.615,4.615,0,0,1,.7,1,5.355,5.355,0,0,1,.7,1.2l-1,.6-.3-.6c-.9.1-2.2.2-3.7.3a1.483,1.483,0,0,0-.7.1l-.1-1.2A2.509,2.509,0,0,1,221.9,183.4Zm.1,9.4-1.1-.8a3.819,3.819,0,0,0,.9-.9,8.8,8.8,0,0,0,.6-1l1.2.5A8.234,8.234,0,0,1,222,192.8Zm.7-4.4v1.5h-1.3c0-.3.1-.7.1-1.3v-3.8H226v4.4a1,1,0,0,1-.4.5,2.219,2.219,0,0,1-.9.1h-.9a2.959,2.959,0,0,0-.2-1,3.751,3.751,0,0,0,1,.1h.3a.349.349,0,0,0,.1-.2v-.2h-2.3v-.1Zm0-2.2h2.2v-.5h-2.2Zm0,1.3h2.2V187h-2.2Zm3.1,5.1-1.3.1v-.5a12.368,12.368,0,0,0-.2-1.8l1.2-.1A8.524,8.524,0,0,1,225.8,192.6Zm2.8-.2-1.3.3a8.648,8.648,0,0,0-.6-2.3l1.2-.3c.2.4.3.8.4,1A7.9,7.9,0,0,0,228.6,192.4Zm-.6-5.6a10.549,10.549,0,0,0,1.9-.5c.2-.1.5-.2.7-.3l.9,1c-.1,0-.2.1-.3.1h-.1a22.623,22.623,0,0,1-3,.8v.4c0,.1,0,.2.1.2.1.1.4.1,1.1.1.6,0,.9,0,1-.1a.215.215,0,0,0,.2-.2,3.784,3.784,0,0,0,.1-.8,2.663,2.663,0,0,0,1.2.3,7.074,7.074,0,0,1-.2,1.2c-.1.3-.4.4-.7.5a7.669,7.669,0,0,1-1.8.1,3.563,3.563,0,0,1-1.9-.3l-.3-.3c0-.1-.1-.2-.1-.4v-1.8a3.083,3.083,0,0,0-.1-1h1.4A3.752,3.752,0,0,0,228,186.8Zm.1-4a14.621,14.621,0,0,0,2-.5c.2-.1.5-.2.7-.3l.9.9c-.1,0-.3.1-.4.1a15.666,15.666,0,0,1-3.1.8v.3c0,.1,0,.2.1.2.1.1.4.1,1,.1a2.508,2.508,0,0,0,1-.1c.2,0,.2-.1.3-.3a1.483,1.483,0,0,0,.1-.7,1.421,1.421,0,0,0,.6.2,1.268,1.268,0,0,0,.6.1,2.151,2.151,0,0,1-.2,1,.988.988,0,0,1-.7.7,6.219,6.219,0,0,1-1.6.1,5.757,5.757,0,0,1-1.5-.1,2.192,2.192,0,0,1-.8-.3.845.845,0,0,1-.2-.6v-1.9a2.219,2.219,0,0,0-.1-.9h1.4c0,.2-.1.5-.1.8Zm3.8,9.3-1.2.7a6.348,6.348,0,0,0-.7-1.2c-.2-.3-.5-.7-.8-1.1l1.1-.6C230.9,190.6,231.4,191.4,231.9,192.1Z" fill="#fff"/>
      <path id="パス_95" data-name="パス 95" d="M237,185h-2.3a6.149,6.149,0,0,0-1.4.1v-1.5a6.149,6.149,0,0,0,1.4.1h3.1v-.9a3.749,3.749,0,0,0-.1-1.1h1.5a3.749,3.749,0,0,0-.1,1.1v.9h3.2a4.922,4.922,0,0,0,1.4-.1v1.5c-.4,0-.9-.1-1.4-.1h-2.6a9.425,9.425,0,0,0,1.8,2.5,6.39,6.39,0,0,0,1.5,1.3,4.129,4.129,0,0,0,1.1.7,5.669,5.669,0,0,0-.8,1.3,13.966,13.966,0,0,1-2-1.7v1.3c-.3,0-.7-.1-1.2-.1H239v.8a6.621,6.621,0,0,0,.1,1.5h-1.5a6.621,6.621,0,0,0,.1-1.5v-.8h-1a4.121,4.121,0,0,0-1.2.1v-1.3c-.7.7-1.3,1.2-1.9,1.7a5.67,5.67,0,0,0-.8-1.3,7.551,7.551,0,0,0,1.4-1.1,11.027,11.027,0,0,0,2-2.3A4.44,4.44,0,0,0,237,185Zm.7,4.2v-1.9a5.7,5.7,0,0,1,.1-1.3,13.076,13.076,0,0,1-2.2,3.2h2.1Zm3.5,0a8.7,8.7,0,0,1-1.2-1.4c-.3-.5-.7-1.1-1.1-1.8a5.7,5.7,0,0,1,.1,1.3v1.9h2.2Z" fill="#fff"/>
      <path id="パス_96" data-name="パス 96" d="M249.8,190.2a10.487,10.487,0,0,1-1.9,1.5,7.663,7.663,0,0,1-2.3,1,4.44,4.44,0,0,0-.8-1.1,15.545,15.545,0,0,0,2.3-.8,5.675,5.675,0,0,0,1.8-1.2h-2.1a1.422,1.422,0,0,1-.2.6h-1.4a14.16,14.16,0,0,0,.7-2.2c.1-.7.2-1.1.2-1.3h3.6v-.8h-3.8v-1.1a1.381,1.381,0,0,1-.4.3,1,1,0,0,0-.4-.5c-.1-.2-.3-.3-.4-.4a4.747,4.747,0,0,0,1.9-2.4l1.3.2a1.612,1.612,0,0,1-.4.7H249a4.121,4.121,0,0,0,1.2-.1v1a4,4,0,0,0,1-1.8l1.3.2a4.875,4.875,0,0,0-.3.7h2.3a4.512,4.512,0,0,0,1.3-.1v1.2c-.3,0-.7-.1-1.3-.1h-.9a9.226,9.226,0,0,1,.5.8l-1,.3h1.7v2.9h-3.9v.8h4.4c0,.2-.1.4-.1.8-.1,1-.2,1.6-.2,1.7a2.389,2.389,0,0,1-.3.7.779.779,0,0,1-.7.3h-1.8l-.3-1.2a6.637,6.637,0,0,0,1.3.1.845.845,0,0,0,.6-.2,4.359,4.359,0,0,0,.2-1.2h-3.1v2a4.512,4.512,0,0,0,.1,1.3h-1.4c0-.3.1-.7.1-1.1v-.2Zm-1.7-5.4a9.746,9.746,0,0,0-.5-1.1h-.7c-.3.4-.6.7-.9,1.1.2,0,.6.1,1.1.1h1v-.1Zm1.7,3.7v-.8h-2.5a3.092,3.092,0,0,1-.2.8Zm-1.5-3.7h2.2a2.853,2.853,0,0,0-.8-.7c.2-.1.3-.3.4-.4h-1.4c.1.2.3.4.5.8Zm4.7,0a6.4,6.4,0,0,0-.6-1.1h-.7a5.242,5.242,0,0,1-1,1.1Zm-2,1v.8h2.6v-.8Z" fill="#fff"/>
      <path id="パス_97" data-name="パス 97" d="M267.8,187.9a9.722,9.722,0,0,0-1.8-.1h-7.1a8.663,8.663,0,0,0-1.8.1v-1.6a8.663,8.663,0,0,0,1.8.1H266a7.669,7.669,0,0,0,1.8-.1Z" fill="#fff"/>
      <path id="パス_98" data-name="パス 98" d="M271.4,184.6v6.9a6.149,6.149,0,0,0,.1,1.4H270c0-.4.1-.9.1-1.4v-4.9a4.348,4.348,0,0,1-.4.7c-.1.2-.3.3-.4.6a5.782,5.782,0,0,0-.5-1.4,7.271,7.271,0,0,0,1.8-3.1,5.928,5.928,0,0,0,.4-1.7l1.3.5a3.932,3.932,0,0,1-.2.6C271.9,183.4,271.6,184,271.4,184.6Zm.6-.8c.3,0,.6.1,1,.1h5.8a3.42,3.42,0,0,0,1.1-.1V185c-.3,0-.7-.1-1.1-.1H273a3.083,3.083,0,0,0-1,.1Zm1.9,8.5v.6h-1.3c0-.3.1-.6.1-1.1V189h6.5v2.7a3.749,3.749,0,0,0,.1,1.1H278v-.6h-4.1Zm5.2-5.6h-6.4v-1.1h6.4Zm0,1.7h-6.4v-1.1h6.4Zm0-5.1h-6.3v-1.1c.3,0,.7.1,1.2.1h3.8a4.512,4.512,0,0,0,1.3-.1v1.1Zm-5.2,7.8h3.9v-1h-3.9Z" fill="#fff"/>
      <path id="パス_99" data-name="パス 99" d="M285.9,189.1h-2.8a8.524,8.524,0,0,1-1.2,3.8,4.7,4.7,0,0,0-1.2-.9,7.218,7.218,0,0,0,.9-2,11.018,11.018,0,0,0,.2-1.8c.1-1.1.1-2.5.1-4.2a8.622,8.622,0,0,0-.1-1.7h9.5c0,.3-.1.8-.1,1.4v7.9a1.949,1.949,0,0,1-.1.8.918.918,0,0,1-.6.4,2.787,2.787,0,0,1-1,.1h-1.3a7.9,7.9,0,0,0-.3-1.3,8.636,8.636,0,0,0,1.5.1.749.749,0,0,0,.5-.1c.1,0,.1-.1.1-.3v-2.1h-2.9v2a4.545,4.545,0,0,0,.1,1.4h-1.4c0-.3.1-.8.1-1.4v-2.1Zm0-1.2v-1.6h-2.6V188l2.6-.1Zm0-2.8v-1.6h-2.6V185h2.6Zm1.3,0h2.9v-1.6h-2.9Zm0,2.8h2.9v-1.6h-2.9Z" fill="#fff"/>
      <path id="パス_100" data-name="パス 100" d="M297.7,186.2h-1.1a4.121,4.121,0,0,0-1.2.1v-.6a12.445,12.445,0,0,1-2,1c-.1-.3-.3-.5-.3-.7a6.13,6.13,0,0,0-.4-.6c.6-.2,1.2-.5,1.9-.8a9.8,9.8,0,0,0,2.3-1.7,5.5,5.5,0,0,0,.7-.9h1.5a8.444,8.444,0,0,0,1.9,1.9,11.992,11.992,0,0,0,3.2,1.6,8.266,8.266,0,0,0-.7,1.3,10.345,10.345,0,0,1-2.1-1.1v.6c-.3,0-.7-.1-1.2-.1H299v1.2h3a4.512,4.512,0,0,0,1.3-.1v1.3c-.3,0-.7-.1-1.3-.1h-3v2.7h3.3a5.313,5.313,0,0,0,1.4-.1v1.4c-.4,0-.9-.1-1.4-.1h-7.6a6.621,6.621,0,0,0-1.5.1v-1.4c.4,0,.9.1,1.5.1h3v-2.7h-2.8a4.512,4.512,0,0,0-1.3.1v-1.3c.3,0,.7.1,1.3.1h2.8v-1.2Zm-3.1,2.9,1.2-.5a12.445,12.445,0,0,1,1,2l-1.2.5a3.553,3.553,0,0,0-.4-.9A10.912,10.912,0,0,0,294.6,189.1Zm1.7-4h4.2a14.6,14.6,0,0,1-2.2-2A9.363,9.363,0,0,1,296.3,185.1Zm4.7,3.6,1.3.5-.6,1.2a2.8,2.8,0,0,1-.5.8l-1.1-.4c.2-.3.3-.6.5-.9C300.8,189.4,300.9,189,301,188.7Z" fill="#fff"/>
      <path id="パス_101" data-name="パス 101" d="M310.8,183.7H307c0,1.9,0,3.4-.1,4.5a13.035,13.035,0,0,1-.6,3.2,8.1,8.1,0,0,1-.6,1.3,3.644,3.644,0,0,0-1-1.1,5.359,5.359,0,0,0,.5-1.1,16.366,16.366,0,0,0,.5-2.7c.1-.9.1-2.3.1-4a4.868,4.868,0,0,0-.1-1.2c.4,0,.9.1,1.5.1h2.9v-.2a1.483,1.483,0,0,0-.1-.7h1.4c0,.2-.1.4-.1.7v.2h3.1a5.313,5.313,0,0,0,1.4-.1v1.2c-.3,0-.7-.1-1.3-.1H312v.6h2.6a3.42,3.42,0,0,0,1.1-.1v1.1c-.3,0-.6-.1-1.1-.1H312v.6h3.1v3.9H312v.7h2.6a4.153,4.153,0,0,0,1.3-.1v1.2c-.3,0-.8-.1-1.4-.1H312v.2a4.121,4.121,0,0,0,.1,1.2h-1.4c0-.3.1-.7.1-1.2v-.1h-2.3a5.721,5.721,0,0,0-1.4.1v-1.2c.3,0,.7.1,1.2.1h2.5v-.7h-3v-3.9h3v-.6h-2.2a3.42,3.42,0,0,0-1.1.1v-1.1c.3,0,.6.1,1.1.1h2.2v-.7Zm0,3.2H309v.5h1.8Zm0,1.4H309v.6h1.8Zm1.2-1.4v.5h1.9v-.5Zm0,1.4v.6h1.9v-.6Z" fill="#fff"/>
    </g>
    <g id="グループ_25" data-name="グループ 25">
      <path id="パス_102" data-name="パス 102" d="M222.4,199.8H224v2.3l1.9-2.3h1.8l-2.1,2.4,2.2,3.2H226l-1.4-2.1-.6.6v1.4h-1.6Z" fill="#fff"/>
      <path id="パス_103" data-name="パス 103" d="M228.2,203.9V201h1.5v2.3c0,.5.2.7.6.7s.6-.3.6-.7V201h1.5v4.3h-1.5v-.6a1.561,1.561,0,0,1-1.3.7A1.342,1.342,0,0,1,228.2,203.9Z" fill="#fff"/>
      <path id="パス_104" data-name="パス 104" d="M233.3,201h1.5v.6a1.561,1.561,0,0,1,1.3-.7,1.273,1.273,0,0,1,1.2.7,1.91,1.91,0,0,1,1.4-.7,1.446,1.446,0,0,1,1.5,1.6v2.8h-1.5V203c0-.5-.2-.7-.6-.7s-.6.2-.6.7v2.4H236V203c0-.5-.2-.7-.6-.7s-.6.2-.6.7v2.4h-1.5V201Z" fill="#fff"/>
      <path id="パス_105" data-name="パス 105" d="M240.8,204.1h0c0-.9.7-1.4,1.7-1.4a2.509,2.509,0,0,1,1,.2v-.1c0-.4-.3-.7-.9-.7a4.3,4.3,0,0,0-1.2.2l-.3-1.1a4.5,4.5,0,0,1,1.8-.3,2.173,2.173,0,0,1,1.6.5,1.978,1.978,0,0,1,.5,1.4v2.5h-1.5v-.4a1.728,1.728,0,0,1-1.3.5A1.283,1.283,0,0,1,240.8,204.1Zm2.8-.3v-.2a1.268,1.268,0,0,0-.6-.1c-.4,0-.7.2-.7.5h0a.472.472,0,0,0,.5.5A.713.713,0,0,0,243.6,203.8Z" fill="#fff"/>
      <path id="パス_106" data-name="パス 106" d="M245.8,201h1.5v.6a1.561,1.561,0,0,1,1.3-.7,1.273,1.273,0,0,1,1.2.7,1.91,1.91,0,0,1,1.4-.7,1.446,1.446,0,0,1,1.5,1.6v2.8h-1.5V203c0-.5-.2-.7-.6-.7s-.6.2-.6.7v2.4h-1.5V203c0-.5-.2-.7-.6-.7s-.6.2-.6.7v2.4h-1.5V201Z" fill="#fff"/>
      <path id="パス_107" data-name="パス 107" d="M253.4,203.2h0a2.349,2.349,0,0,1,2.4-2.3,2.27,2.27,0,0,1,2.4,2.2h0a2.349,2.349,0,0,1-2.4,2.3A2.211,2.211,0,0,1,253.4,203.2Zm3.3,0h0a.987.987,0,0,0-.9-1c-.6,0-.9.4-.9,1h0a.987.987,0,0,0,.9,1A.919.919,0,0,0,256.7,203.2Z" fill="#fff"/>
      <path id="パス_108" data-name="パス 108" d="M259.1,204v-1.8h-.5V201h.5v-1.1h1.5V201h1v1.2h-1v1.5c0,.3.1.4.4.4.2,0,.4-.1.6-.1v1.2a1.815,1.815,0,0,1-1.1.2A1.263,1.263,0,0,1,259.1,204Z" fill="#fff"/>
      <path id="パス_109" data-name="パス 109" d="M262.1,203.2h0a2.349,2.349,0,0,1,2.4-2.3,2.27,2.27,0,0,1,2.4,2.2h0a2.349,2.349,0,0,1-2.4,2.3A2.211,2.211,0,0,1,262.1,203.2Zm3.3,0h0a.987.987,0,0,0-.9-1c-.6,0-.9.4-.9,1h0a.987.987,0,0,0,.9,1A.919.919,0,0,0,265.4,203.2Z" fill="#fff"/>
      <path id="パス_110" data-name="パス 110" d="M269.8,199.8H272c2,0,3.2,1.2,3.2,2.8h0c0,1.6-1.2,2.8-3.2,2.8h-2.1v-5.6ZM272,204a1.342,1.342,0,0,0,1.5-1.4h0a1.342,1.342,0,0,0-1.5-1.4h-.6V204Z" fill="#fff"/>
      <path id="パス_111" data-name="パス 111" d="M275.7,204.1h0c0-.9.7-1.4,1.7-1.4a2.51,2.51,0,0,1,1,.2v-.1c0-.4-.3-.7-.9-.7a4.3,4.3,0,0,0-1.2.2l-.3-1.1a4.5,4.5,0,0,1,1.8-.3,2.173,2.173,0,0,1,1.6.5,1.978,1.978,0,0,1,.5,1.4v2.5h-1.5v-.4a1.727,1.727,0,0,1-1.3.5A1.236,1.236,0,0,1,275.7,204.1Zm2.7-.3v-.2a1.268,1.268,0,0,0-.6-.1c-.4,0-.7.2-.7.5h0a.472.472,0,0,0,.5.5A.713.713,0,0,0,278.4,203.8Z" fill="#fff"/>
      <path id="パス_112" data-name="パス 112" d="M280.7,199.5h1.6v1.1h-1.6Zm0,1.5h1.5v4.3h-1.5Z" fill="#fff"/>
      <path id="パス_113" data-name="パス 113" d="M283,202.2h2.6v1.3H283Z" fill="#fff"/>
      <path id="パス_114" data-name="パス 114" d="M286.3,199.5h1.6v1.1h-1.6Zm.1,1.5h1.5v4.3h-1.5Z" fill="#fff"/>
      <path id="パス_115" data-name="パス 115" d="M288.6,203.2h0a2.326,2.326,0,0,1,2.3-2.3,1.875,1.875,0,0,1,1.8,1l-1,.8a.891.891,0,0,0-.8-.5c-.5,0-.8.4-.8,1h0a.923.923,0,0,0,.9,1,1.039,1.039,0,0,0,.8-.4l1,.7a2.149,2.149,0,0,1-1.9,1A2.262,2.262,0,0,1,288.6,203.2Z" fill="#fff"/>
      <path id="パス_116" data-name="パス 116" d="M293.3,199.5h1.5v2.1a1.561,1.561,0,0,1,1.3-.7,1.446,1.446,0,0,1,1.5,1.6v2.8h-1.5V203c0-.5-.2-.7-.6-.7s-.6.3-.6.7v2.3h-1.5l-.1-5.8Z" fill="#fff"/>
      <path id="パス_117" data-name="パス 117" d="M298.4,199.5H300v1.1h-1.6Zm0,1.5h1.5v4.3h-1.5Z" fill="#fff"/>
      <path id="パス_118" data-name="パス 118" d="M302.6,204.5l.9-1a3.4,3.4,0,0,0,1.8.7c.4,0,.6-.1.6-.4h0c0-.2-.2-.4-.9-.5-1.2-.3-2.1-.6-2.1-1.8h0c0-1,.8-1.8,2.2-1.8a3.928,3.928,0,0,1,2.3.7l-.8,1.1a2.66,2.66,0,0,0-1.6-.6c-.4,0-.6.2-.6.4h0c0,.3.2.4,1,.5,1.3.3,2.1.7,2.1,1.7h0c0,1.1-.9,1.8-2.3,1.8A3.525,3.525,0,0,1,302.6,204.5Z" fill="#fff"/>
      <path id="パス_119" data-name="パス 119" d="M308.2,199.5h1.5v2.1a1.561,1.561,0,0,1,1.3-.7,1.446,1.446,0,0,1,1.5,1.6v2.8H311V203c0-.5-.2-.7-.6-.7s-.6.3-.6.7v2.3h-1.5l-.1-5.8Z" fill="#fff"/>
      <path id="パス_120" data-name="パス 120" d="M313.3,199.5h1.6v1.1h-1.6Zm0,1.5h1.5v4.3h-1.5Z" fill="#fff"/>
      <path id="パス_121" data-name="パス 121" d="M315.7,201h1.5v.6a1.561,1.561,0,0,1,1.3-.7,1.446,1.446,0,0,1,1.5,1.6v2.8h-1.5V203c0-.5-.2-.7-.6-.7s-.6.3-.6.7v2.3h-1.5l-.1-4.3Z" fill="#fff"/>
      <path id="パス_122" data-name="パス 122" d="M320.7,199.5h1.5v3l1.2-1.4h1.7l-1.5,1.7,1.5,2.6h-1.7l-.9-1.5-.4.5v1h-1.5l.1-5.9Z" fill="#fff"/>
      <path id="パス_123" data-name="パス 123" d="M325.6,199.5h1.6v1.1h-1.6Zm0,1.5h1.5v4.3h-1.5Z" fill="#fff"/>
      <path id="パス_124" data-name="パス 124" d="M328,201h1.5v.6a1.561,1.561,0,0,1,1.3-.7,1.446,1.446,0,0,1,1.5,1.6v2.8h-1.5V203c0-.5-.2-.7-.6-.7s-.6.3-.6.7v2.3H328Z" fill="#fff"/>
      <path id="パス_125" data-name="パス 125" d="M335.3,199.8h2.9a2.07,2.07,0,0,1,1.5.5,1.267,1.267,0,0,1,.4.9h0a1.292,1.292,0,0,1-.9,1.2,1.32,1.32,0,0,1,1.1,1.4h0c0,1-.8,1.5-2.1,1.5h-2.9Zm2.5,2.2c.5,0,.7-.2.7-.5h0c0-.3-.2-.5-.7-.5h-1v1Zm.2,2.1c.5,0,.7-.2.7-.5h0c0-.3-.2-.5-.8-.5h-1.2v1Z" fill="#fff"/>
      <path id="パス_126" data-name="パス 126" d="M340.8,204.1h0c0-.9.7-1.4,1.7-1.4a2.51,2.51,0,0,1,1,.2v-.1c0-.4-.3-.7-.9-.7a4.3,4.3,0,0,0-1.2.2l-.3-1.1a4.5,4.5,0,0,1,1.8-.3,2.173,2.173,0,0,1,1.6.5,1.978,1.978,0,0,1,.5,1.4v2.5h-1.5v-.4a1.727,1.727,0,0,1-1.3.5A1.236,1.236,0,0,1,340.8,204.1Zm2.7-.3v-.2a1.268,1.268,0,0,0-.6-.1c-.4,0-.7.2-.7.5h0a.472.472,0,0,0,.5.5A.713.713,0,0,0,343.5,203.8Z" fill="#fff"/>
      <path id="パス_127" data-name="パス 127" d="M345.8,201h1.5v.6a1.561,1.561,0,0,1,1.3-.7,1.446,1.446,0,0,1,1.5,1.6v2.8h-1.5V203c0-.5-.2-.7-.6-.7s-.6.3-.6.7v2.3h-1.5l-.1-4.3Z" fill="#fff"/>
      <path id="パス_128" data-name="パス 128" d="M350.8,199.5h1.5v3l1.2-1.4h1.7l-1.5,1.7,1.5,2.6h-1.7l-.9-1.5-.4.5v1h-1.5l.1-5.9Z" fill="#fff"/>
    </g>
    <circle id="楕円形_5" data-name="楕円形 5" cx="5.2" cy="5.2" r="5.2" transform="translate(201.9 182.9)" fill="#fff"/>
    <g id="グループ_26" data-name="グループ 26">
      <line id="線_4" data-name="線 4" x2="433.5" transform="translate(3 560.6)" fill="none" stroke="#fff" stroke-linecap="round" stroke-miterlimit="10" stroke-width="1"/>
    </g>
    <g id="グループ_27" data-name="グループ 27">
      <path id="パス_129" data-name="パス 129" d="M359.6,452.5h1.6v2.3l1.9-2.3h1.8l-2.1,2.4,2.2,3.2h-1.9l-1.4-2.1-.6.6V458h-1.6v-5.5Z" fill="#fff"/>
      <path id="パス_130" data-name="パス 130" d="M365.3,456.6v-2.8h1.5v2.3c0,.5.2.7.6.7s.6-.3.6-.7v-2.3h1.5v4.3H368v-.6a1.561,1.561,0,0,1-1.3.7C365.8,458.2,365.3,457.6,365.3,456.6Z" fill="#fff"/>
      <path id="パス_131" data-name="パス 131" d="M370.1,457.6l.6-.9a2.976,2.976,0,0,0,1.5.5c.3,0,.4-.1.4-.2h0c0-.2-.2-.2-.7-.4-.9-.2-1.5-.5-1.5-1.4h0c0-.9.7-1.4,1.7-1.4a3.743,3.743,0,0,1,1.8.5l-.5,1a3.258,3.258,0,0,0-1.3-.4c-.2,0-.4.1-.4.2h0c0,.2.2.2.7.4.9.2,1.5.5,1.5,1.4h0c0,1-.7,1.4-1.8,1.4A4.793,4.793,0,0,1,370.1,457.6Z" fill="#fff"/>
      <path id="パス_132" data-name="パス 132" d="M374.3,456.9h0c0-.9.7-1.4,1.7-1.4a2.509,2.509,0,0,1,1,.2v-.1c0-.4-.3-.7-.9-.7a4.3,4.3,0,0,0-1.2.2l-.3-1.1a4.5,4.5,0,0,1,1.8-.3,2.173,2.173,0,0,1,1.6.5,1.978,1.978,0,0,1,.5,1.4v2.5H377v-.4a1.728,1.728,0,0,1-1.3.5A1.236,1.236,0,0,1,374.3,456.9Zm2.7-.3v-.2a1.268,1.268,0,0,0-.6-.1c-.4,0-.7.2-.7.5h0a.472.472,0,0,0,.5.5A.713.713,0,0,0,377,456.6Z" fill="#fff"/>
      <path id="パス_133" data-name="パス 133" d="M380.8,457.6v.5h-1.5v-5.8h1.5v2.1a1.561,1.561,0,0,1,1.3-.7,2.046,2.046,0,0,1,1.9,2.2h0a2.081,2.081,0,0,1-1.9,2.3A1.782,1.782,0,0,1,380.8,457.6Zm1.8-1.6h0a.9.9,0,1,0-1.8,0h0a.9.9,0,1,0,1.8,0Z" fill="#fff"/>
      <path id="パス_134" data-name="パス 134" d="M384.5,456.9h0c0-.9.7-1.4,1.7-1.4a2.509,2.509,0,0,1,1,.2v-.1c0-.4-.3-.7-.9-.7a4.3,4.3,0,0,0-1.2.2l-.3-1.1a4.5,4.5,0,0,1,1.8-.3,2.173,2.173,0,0,1,1.6.5,1.978,1.978,0,0,1,.5,1.4v2.5h-1.5v-.4a1.728,1.728,0,0,1-1.3.5A1.236,1.236,0,0,1,384.5,456.9Zm2.7-.3v-.2a1.268,1.268,0,0,0-.6-.1c-.4,0-.7.2-.7.5h0a.472.472,0,0,0,.5.5A.713.713,0,0,0,387.2,456.6Z" fill="#fff"/>
      <path id="パス_135" data-name="パス 135" d="M389.3,456h0a2.326,2.326,0,0,1,2.3-2.3,1.875,1.875,0,0,1,1.8,1l-1,.8a.891.891,0,0,0-.8-.5c-.5,0-.8.4-.8,1h0a.923.923,0,0,0,.9,1,1.039,1.039,0,0,0,.8-.4l1,.7a2.149,2.149,0,0,1-1.9,1A2.4,2.4,0,0,1,389.3,456Z" fill="#fff"/>
      <path id="パス_136" data-name="パス 136" d="M394.1,452.3h1.5v2.1a1.561,1.561,0,0,1,1.3-.7,1.446,1.446,0,0,1,1.5,1.6v2.8h-1.5v-2.3c0-.5-.2-.7-.6-.7s-.6.3-.6.7v2.3h-1.5l-.1-5.8Z" fill="#fff"/>
      <path id="パス_137" data-name="パス 137" d="M398.9,456h0a2.349,2.349,0,0,1,2.4-2.3,2.27,2.27,0,0,1,2.4,2.2h0a2.349,2.349,0,0,1-2.4,2.3A2.27,2.27,0,0,1,398.9,456Zm3.4,0h0a.987.987,0,0,0-.9-1c-.6,0-.9.4-.9,1h0a.987.987,0,0,0,.9,1A1.063,1.063,0,0,0,402.3,456Z" fill="#fff"/>
      <path id="パス_138" data-name="パス 138" d="M404.2,456h0a2.081,2.081,0,0,1,1.9-2.3,1.614,1.614,0,0,1,1.3.6v-2h1.5v5.8h-1.5v-.6a1.561,1.561,0,0,1-1.3.7A1.986,1.986,0,0,1,404.2,456Zm3.3,0h0a.9.9,0,1,0-1.8,0h0a.923.923,0,0,0,.9,1A.987.987,0,0,0,407.5,456Z" fill="#fff"/>
      <path id="パス_139" data-name="パス 139" d="M409.6,456h0a2.349,2.349,0,0,1,2.4-2.3,2.27,2.27,0,0,1,2.4,2.2h0a2.349,2.349,0,0,1-2.4,2.3A2.27,2.27,0,0,1,409.6,456Zm3.3,0h0a.987.987,0,0,0-.9-1c-.6,0-.9.4-.9,1h0a.9.9,0,1,0,1.8,0Z" fill="#fff"/>
      <path id="パス_140" data-name="パス 140" d="M415,453.8h1.5v.9a1.18,1.18,0,0,1,1.4-.9v1.6h-.1q-1.2,0-1.2,1.5v1.3H415Z" fill="#fff"/>
      <path id="パス_141" data-name="パス 141" d="M418.5,452.3h1.6v1.1h-1.6Zm0,1.5H420v4.3h-1.5Z" fill="#fff"/>
      <path id="パス_142" data-name="パス 142" d="M422.7,457.3l.9-1a3.4,3.4,0,0,0,1.8.7c.4,0,.6-.1.6-.4h0c0-.2-.2-.4-.9-.5-1.2-.3-2.1-.6-2.1-1.8h0c0-1,.8-1.8,2.2-1.8a3.928,3.928,0,0,1,2.3.7l-.8,1.1a2.66,2.66,0,0,0-1.6-.6c-.4,0-.6.2-.6.4h0c0,.3.2.4,1,.5,1.3.3,2.1.7,2.1,1.7h0c0,1.1-.9,1.8-2.3,1.8A3.525,3.525,0,0,1,422.7,457.3Z" fill="#fff"/>
      <path id="パス_143" data-name="パス 143" d="M428.5,456.8V455H428v-1.2h.5v-1.1H430v1.1h1V455h-1v1.5c0,.3.1.4.4.4.2,0,.4-.1.6-.1V458a1.815,1.815,0,0,1-1.1.2A1.263,1.263,0,0,1,428.5,456.8Z" fill="#fff"/>
      <path id="パス_144" data-name="パス 144" d="M431.7,456.6h1.6v1.6h-1.6Z" fill="#fff"/>
    </g>
    <g id="グループ_28" data-name="グループ 28">
      <path id="パス_145" data-name="パス 145" d="M377,434.5v-.2a1.952,1.952,0,0,0-.1-.7h1.4a1.952,1.952,0,0,1-.1.7v.2h2.5v-.2a1.952,1.952,0,0,0-.1-.7H382c0,.2-.1.4-.1.7v.2h1.6a5.313,5.313,0,0,0,1.4-.1v1.3c-.3,0-.8-.1-1.3-.1H382v.6h-1.3v-.6h-2.5v.6H377v-.6h-1.5a4.512,4.512,0,0,0-1.3.1v-1.3c.3,0,.8.1,1.4.1Zm1.8,6.4h-3.3v-4.4h8.2v4.4h-3.5v.7h3.4a5.313,5.313,0,0,0,1.4-.1v1.4c-.3,0-.8-.1-1.4-.1h-3.4v.5a5.282,5.282,0,0,0,.1,1.3h-1.5a5.282,5.282,0,0,0,.1-1.3v-.5h-3.2a5.313,5.313,0,0,0-1.4.1v-1.4c.3,0,.8.1,1.4.1h3.2v-.7Zm-2-3.3v.6h5.5v-.6Zm0,1.7v.6h5.5v-.6Z" fill="#fff"/>
      <path id="パス_146" data-name="パス 146" d="M392.2,440.3v.6h3.5a5.313,5.313,0,0,0,1.4-.1V442c-.3,0-.8-.1-1.4-.1h-2.4a9.33,9.33,0,0,0,4.1,1.4,3.458,3.458,0,0,0-.7,1.2,21.9,21.9,0,0,1-2.3-.7,6.923,6.923,0,0,1-2.2-1.4v1.1a2.787,2.787,0,0,0,.1,1h-1.4c0-.3.1-.6.1-1v-1.2a6.078,6.078,0,0,1-1.4,1,13.579,13.579,0,0,1-2.9,1.1,4.13,4.13,0,0,0-.7-1.1,11.2,11.2,0,0,0,2.3-.6,5.559,5.559,0,0,0,1.7-.9h-2.3a5.313,5.313,0,0,0-1.4.1v-1.2c.3,0,.8.1,1.4.1H391v-.6h-3.1v-2.8h-.3a5.721,5.721,0,0,0-1.4.1v-1.2c.3,0,.7.1,1.2.1h.5a1.483,1.483,0,0,0-.1-.7H389v-.5h-1.5a5.313,5.313,0,0,0-1.4.1v-1.2c.4,0,.8.1,1.4.1H389v-.1a1.952,1.952,0,0,0-.1-.7h1.3v.8h2.4v-.8h1.3c0,.2-.1.4-.1.7v.1h1.6a5.313,5.313,0,0,0,1.4-.1v1.2c-.3,0-.8-.1-1.4-.1H394v.6h1.3c0,.2-.1.4-.1.7h.4a5.313,5.313,0,0,0,1.4-.1v1.2c-.3,0-.8-.1-1.4-.1h-.4v1.4h-4.5v-1.4H389v1.8h6a4.153,4.153,0,0,0,1.3-.1v1.1c-.3,0-.7-.1-1.3-.1h-2.8Zm-3.1-4.3v.6h1.7v-.7h1.3v.7h2.1V436h-1.3v-.6h-2.4v.6Zm2.9,1.6v.4h2.1v-.4Z" fill="#fff"/>
      <path id="パス_147" data-name="パス 147" d="M404.2,436.2v5.6a3.42,3.42,0,0,0,.1,1.1H403v-.6h-3.1v1h-1.3c0-.4.1-1,.1-1.6V434h5.7v1h3.5a5.757,5.757,0,0,0,1.5-.1v1.4c-.3,0-.8-.1-1.4-.1v6.9a1.483,1.483,0,0,1-.1.7c-.1.3-.3.5-.5.5a2.787,2.787,0,0,1-1,.1h-1.3a3.079,3.079,0,0,0-.3-1.3,7.568,7.568,0,0,0,1.5.1h.3a.1.1,0,0,0,.1-.1v-6.9Zm-4.4-1v2.3h1v-2.3Zm0,3.5v2.4h1v-2.4Zm2.1-3.5v2.3h1v-2.3Zm0,3.5v2.4h1v-2.4Z" fill="#fff"/>
      <path id="パス_148" data-name="パス 148" d="M410.1,439.5v-1.3c.3,0,.6.1.9.1h.8a2.219,2.219,0,0,0,.9-.1c0,.3-.1.7-.1,1.3v2.6a4.351,4.351,0,0,0,.6.7.864.864,0,0,0,.6.3,12.527,12.527,0,0,0,2.4.2,14.171,14.171,0,0,0,2.3-.1c.5-.1,1.5-.1,2.7-.3a6.373,6.373,0,0,0-.2.7,2.2,2.2,0,0,0-.1.8c-1.4.1-3,.1-4.8.1a8.237,8.237,0,0,1-2.7-.3,4.13,4.13,0,0,1-1.1-.7l-.3-.3-.2.2c-.3.3-.8.7-1.3,1.2l-.7-1.3a9.218,9.218,0,0,0,.8-.5,5.716,5.716,0,0,0,.8-.7v-2.6h-.6A.845.845,0,0,0,410.1,439.5Zm-.1-4.9,1-.9a11.407,11.407,0,0,1,1.1,1.1c.4.4.7.8,1,1.1l-1,1A11.5,11.5,0,0,0,410,434.6Zm5.8,1.6h0c-.5-.3-.8-.5-1-.6l.9-.5h-1.2a4.121,4.121,0,0,0-1.2.1V434c.3,0,.8.1,1.4.1h3.9a4.181,4.181,0,0,0,1.4-.1l.6.7a7.371,7.371,0,0,0-.6.5c-.3.2-.6.5-1.1.8-.2.1-.3.2-.5.3h1a3.451,3.451,0,0,0,1.2-.1v5.1a1.719,1.719,0,0,1-.1.8.821.821,0,0,1-.5.5,2.508,2.508,0,0,1-1,.1h-.5a1.8,1.8,0,0,0-.3-1.1,2.485,2.485,0,0,0,.8.1h.2a.1.1,0,0,1,.1-.1v-.7h-1.8v.5a4.512,4.512,0,0,0,.1,1.3h-1.3c0-.3.1-.7.1-1.3v-.5h-1.6v.6a4.153,4.153,0,0,0,.1,1.3h-1.4c0-.3.1-.7.1-1.3v-3.8a5.313,5.313,0,0,0-.1-1.4c.3,0,.8.1,1.3.1h1Zm.6,1h-1.6v.8h1.6Zm-1.6,1.7v.8h1.6v-.8Zm1-3.9c.3.2.6.4,1.1.8l.1.1.1-.1c.5-.4.9-.6,1.1-.8Zm1.8,2.2v.8h1.8v-.8Zm1.8,2.5v-.8h-1.8v.8Z" fill="#fff"/>
      <path id="パス_149" data-name="パス 149" d="M424.3,433.8l1.5.1a14.341,14.341,0,0,0-.5,3,.9.9,0,0,1-.1.5h0c0-.1,0-.1.1-.3a3.631,3.631,0,0,1,.3-.7,3.738,3.738,0,0,1,1.3-1.5,2.7,2.7,0,0,1,1.5-.5,2.271,2.271,0,0,1,1.6.6,4.181,4.181,0,0,1,1.1,1.7,6.289,6.289,0,0,1-.3,4.6,4.7,4.7,0,0,1-2.2,2.2,8.648,8.648,0,0,1-2.7.8,6.9,6.9,0,0,0-.3-.8,2.092,2.092,0,0,0-.4-.6c.5-.1.9-.1,1.2-.2a4.582,4.582,0,0,0,2.7-1.6,4.023,4.023,0,0,0,.7-2.6,3.4,3.4,0,0,0-.6-2.2,1.389,1.389,0,0,0-1-.5,1.222,1.222,0,0,0-.9.3,4.9,4.9,0,0,0-1.2,1.5,4.953,4.953,0,0,0-.7,2.7v.3H424v-1.9a21.749,21.749,0,0,1,.1-2.5c0-.2.1-.8.2-1.8C424.3,434.2,424.3,433.9,424.3,433.8Z" fill="#fff"/>
    </g>
    <g id="グループ_29" data-name="グループ 29">
      <path id="パス_150" data-name="パス 150" d="M374.2,243.5l.9-1a3.4,3.4,0,0,0,1.8.7c.4,0,.6-.1.6-.4h0c0-.2-.2-.4-.9-.5-1.2-.3-2.1-.6-2.1-1.8h0c0-1,.8-1.8,2.2-1.8a3.928,3.928,0,0,1,2.3.7l-.8,1.1a2.66,2.66,0,0,0-1.6-.6c-.4,0-.6.2-.6.4h0c0,.3.2.4,1,.5,1.3.3,2.1.7,2.1,1.7h0c0,1.1-.9,1.8-2.3,1.8A3.276,3.276,0,0,1,374.2,243.5Z" fill="#fff"/>
      <path id="パス_151" data-name="パス 151" d="M379.5,242.2h0a2.182,2.182,0,0,1,2.2-2.3,2.153,2.153,0,0,1,2.2,2.4v.3H381a.856.856,0,0,0,.9.7,1.433,1.433,0,0,0,1-.4l.8.7a2.351,2.351,0,0,1-4.2-1.4Zm3-.4c-.1-.5-.3-.8-.8-.8-.4,0-.7.3-.8.8Z" fill="#fff"/>
      <path id="パス_152" data-name="パス 152" d="M384.5,238.5H386v3l1.2-1.4h1.7l-1.5,1.7,1.5,2.6h-1.7l-.9-1.5-.4.5v1h-1.5l.1-5.9Z" fill="#fff"/>
      <path id="パス_153" data-name="パス 153" d="M389.4,238.5H391v1.1h-1.6Zm0,1.5h1.5v4.3h-1.5Z" fill="#fff"/>
      <path id="パス_154" data-name="パス 154" d="M391.6,242.2h0a2.081,2.081,0,0,1,1.9-2.3,1.614,1.614,0,0,1,1.3.6v-2h1.5v5.8h-1.5v-.6a1.561,1.561,0,0,1-1.3.7A2.046,2.046,0,0,1,391.6,242.2Zm3.3-.1h0a.9.9,0,1,0-1.8,0h0a.9.9,0,1,0,1.8,0Z" fill="#fff"/>
      <path id="パス_155" data-name="パス 155" d="M397,243.1h0c0-.9.7-1.4,1.7-1.4a2.51,2.51,0,0,1,1,.2v-.1c0-.4-.3-.7-.9-.7a4.3,4.3,0,0,0-1.2.2l-.3-1.1a4.5,4.5,0,0,1,1.8-.3,2.173,2.173,0,0,1,1.6.5,1.978,1.978,0,0,1,.5,1.4v2.5h-1.5v-.4a1.727,1.727,0,0,1-1.3.5A1.288,1.288,0,0,1,397,243.1Zm2.7-.4v-.2a1.268,1.268,0,0,0-.6-.1c-.4,0-.7.2-.7.5h0a.472.472,0,0,0,.5.5C399.4,243.4,399.7,243.2,399.7,242.7Z" fill="#fff"/>
      <path id="パス_156" data-name="パス 156" d="M402,238.5h1.6v1.1H402Zm0,1.5h1.5v4.3H402Z" fill="#fff"/>
      <path id="パス_157" data-name="パス 157" d="M404.2,242.2h0a2.081,2.081,0,0,1,1.9-2.3,1.614,1.614,0,0,1,1.3.6v-2h1.5v5.8h-1.5v-.6a1.561,1.561,0,0,1-1.3.7A2.046,2.046,0,0,1,404.2,242.2Zm3.3-.1h0a.9.9,0,1,0-1.8,0h0a.9.9,0,1,0,1.8,0Z" fill="#fff"/>
      <path id="パス_158" data-name="パス 158" d="M409.6,242.2h0a2.349,2.349,0,0,1,2.4-2.3,2.27,2.27,0,0,1,2.4,2.2h0a2.349,2.349,0,0,1-2.4,2.3A2.27,2.27,0,0,1,409.6,242.2Zm3.3,0h0a.987.987,0,0,0-.9-1c-.6,0-.9.4-.9,1h0a.9.9,0,1,0,1.8,0Z" fill="#fff"/>
      <path id="パス_159" data-name="パス 159" d="M415,240h1.5v.9a1.18,1.18,0,0,1,1.4-.9v1.6h-.1q-1.2,0-1.2,1.5v1.3H415Z" fill="#fff"/>
      <path id="パス_160" data-name="パス 160" d="M418.5,238.5h1.6v1.1h-1.6Zm0,1.5H420v4.3h-1.5Z" fill="#fff"/>
      <path id="パス_161" data-name="パス 161" d="M422.7,243.5l.9-1a3.4,3.4,0,0,0,1.8.7c.4,0,.6-.1.6-.4h0c0-.2-.2-.4-.9-.5-1.2-.3-2.1-.6-2.1-1.8h0c0-1,.8-1.8,2.2-1.8a3.928,3.928,0,0,1,2.3.7l-.8,1.1a2.66,2.66,0,0,0-1.6-.6c-.4,0-.6.2-.6.4h0c0,.3.2.4,1,.5,1.3.3,2.1.7,2.1,1.7h0c0,1.1-.9,1.8-2.3,1.8A3.525,3.525,0,0,1,422.7,243.5Z" fill="#fff"/>
      <path id="パス_162" data-name="パス 162" d="M428.5,243v-1.8H428V240h.5v-1.1H430V240h1v1.2h-1v1.5c0,.3.1.4.4.4.2,0,.4-.1.6-.1v1.2a1.815,1.815,0,0,1-1.1.2A1.263,1.263,0,0,1,428.5,243Z" fill="#fff"/>
      <path id="パス_163" data-name="パス 163" d="M431.7,242.7h1.6v1.6h-1.6Z" fill="#fff"/>
    </g>
    <g id="グループ_30" data-name="グループ 30">
      <path id="パス_164" data-name="パス 164" d="M390.1,230h-.9v-.5h-1.1v1.1h-1.3c0-.3.1-.7.1-1.2V227h0v-.9c-.2.3-.3.6-.4.7a2.735,2.735,0,0,0-.4.5,8.662,8.662,0,0,0-.2-1,1.689,1.689,0,0,0-.2-.5,6.024,6.024,0,0,0,1.3-2.4,10.548,10.548,0,0,0,.5-1.9h-.4a3.083,3.083,0,0,0-1,.1v-1.3c.3,0,.7.1,1.2.1h2a3.749,3.749,0,0,0,1.1-.1v1.3c-.3,0-.7-.1-1-.1h-.6a9.192,9.192,0,0,1-.7,2.6h2.2v5.8a4.677,4.677,0,0,0,1.4-.8,2.181,2.181,0,0,1,.5-.4h-1.1v-5.4a4.1,4.1,0,0,0-.1-1.1h1.7a6.9,6.9,0,0,1,.3-.8h-1a4.512,4.512,0,0,0-1.3.1v-1.3c.3,0,.8.1,1.3.1h3.7a4.887,4.887,0,0,0,1.3-.1v1.3a7.173,7.173,0,0,1-1.3-.1h-1.5a6.9,6.9,0,0,1-.3.8h2.5v6.5h-1.5c.2.2.4.3.6.5a4.771,4.771,0,0,0,1.6.8,4.363,4.363,0,0,0-.8,1,14.8,14.8,0,0,1-1.3-.8c-.4-.3-.7-.6-1.2-1l.8-.6h-2.3l.9.5a7.992,7.992,0,0,1-2.7,1.8C390.6,230.6,390.3,230.2,390.1,230Zm-1.9-4.9v3.2h1.1v-3.2Zm4.1-1.9v.8h3v-.8Zm0,1.7v.8h3v-.8Zm0,1.8v.8h3v-.8Z" fill="#fff"/>
      <path id="パス_165" data-name="パス 165" d="M400,223.4c.3-.4.6-.9,1-1.5a16.178,16.178,0,0,0,1-1.8.6.6,0,0,0,.1-.4l1.5.4c-.1.1-.1.2-.3.5-.3.5-.6,1-.9,1.6a10.476,10.476,0,0,1-.8,1.1c1.9,0,3.4-.1,4.6-.2a13.649,13.649,0,0,0-1.7-1.7l1.2-.7a31.6,31.6,0,0,1,3.4,3.8l-1.2.8c-.3-.5-.6-.9-.8-1.2h-.3c-.6.1-1.5.1-2.6.2s-2.2.1-3.5.2h-.5c-.8,0-1.3.1-1.6.1l-.2-1.4C398.6,223.4,399.2,223.4,400,223.4Zm-.5,7.4c0-.4.1-.8.1-1.4v-2.7a3.42,3.42,0,0,0-.1-1.1h8.3c0,.3-.1.6-.1,1.1v2.7a5.721,5.721,0,0,0,.1,1.4h-1.4v-.6h-5.5v.6Zm1.3-4V229h5.6v-2.2Z" fill="#fff"/>
      <path id="パス_166" data-name="パス 166" d="M410.1,225.6v-1.3c.3,0,.6.1.9.1h.8a2.219,2.219,0,0,0,.9-.1c0,.3-.1.7-.1,1.3v2.6a4.349,4.349,0,0,0,.6.7.864.864,0,0,0,.6.3,12.527,12.527,0,0,0,2.4.2,14.171,14.171,0,0,0,2.3-.1c.5-.1,1.5-.1,2.7-.3a6.372,6.372,0,0,0-.2.7,2.2,2.2,0,0,0-.1.8c-1.4.1-3,.1-4.8.1a8.237,8.237,0,0,1-2.7-.3,4.13,4.13,0,0,1-1.1-.7l-.3-.3-.2.2c-.3.3-.8.7-1.3,1.2l-.7-1.3a9.222,9.222,0,0,0,.8-.5,5.716,5.716,0,0,0,.8-.7v-2.6h-1.3Zm-.1-4.8,1-.9a11.407,11.407,0,0,1,1.1,1.1c.4.4.7.8,1,1.1l-1,1A9.3,9.3,0,0,0,410,220.8Zm5.8,1.5h0c-.5-.3-.8-.5-1-.6l.9-.5h-1.2a4.121,4.121,0,0,0-1.2.1V220c.3,0,.8.1,1.4.1h3.9a4.181,4.181,0,0,0,1.4-.1l.6.7a7.368,7.368,0,0,0-.6.5c-.3.2-.6.5-1.1.8-.2.1-.3.2-.5.3h1a3.451,3.451,0,0,0,1.2-.1v5.1a1.719,1.719,0,0,1-.1.8.822.822,0,0,1-.5.5,2.508,2.508,0,0,1-1,.1h-.5a1.8,1.8,0,0,0-.3-1.1,2.485,2.485,0,0,0,.8.1h.2a.1.1,0,0,1,.1-.1v-.7h-1.8v.5a4.512,4.512,0,0,0,.1,1.3h-1.3c0-.3.1-.7.1-1.3v-.5h-1.6v.6a4.153,4.153,0,0,0,.1,1.3h-1.4c0-.3.1-.7.1-1.3v-3.8a5.313,5.313,0,0,0-.1-1.4c.3,0,.8.1,1.3.1h1Zm.6,1.1h-1.6v.8h1.6Zm-1.6,1.7v.8h1.6v-.8Zm1-3.9c.3.2.6.4,1.1.8l.1.1.1-.1c.5-.4.9-.6,1.1-.8Zm1.8,2.2v.8h1.8v-.8Zm1.8,2.5v-.8h-1.8v.8Z" fill="#fff"/>
      <path id="パス_167" data-name="パス 167" d="M424.3,220l1.5.1a14.341,14.341,0,0,0-.5,3,.9.9,0,0,1-.1.5h0c0-.1,0-.1.1-.3a3.631,3.631,0,0,1,.3-.7,3.738,3.738,0,0,1,1.3-1.5,2.694,2.694,0,0,1,1.5-.5,2.271,2.271,0,0,1,1.6.6,4.181,4.181,0,0,1,1.1,1.7,6.289,6.289,0,0,1-.3,4.6,4.7,4.7,0,0,1-2.2,2.2,8.648,8.648,0,0,1-2.7.8,6.9,6.9,0,0,0-.3-.8,2.093,2.093,0,0,0-.4-.6c.5-.1.9-.1,1.2-.2a4.583,4.583,0,0,0,2.7-1.6,4.023,4.023,0,0,0,.7-2.6,3.4,3.4,0,0,0-.6-2.2,1.389,1.389,0,0,0-1-.5,1.222,1.222,0,0,0-.9.3,4.9,4.9,0,0,0-1.2,1.5,4.953,4.953,0,0,0-.7,2.7v.3H424v-1.9a21.749,21.749,0,0,1,.1-2.5c0-.2.1-.8.2-1.8Q424.3,220.15,424.3,220Z" fill="#fff"/>
    </g>
    <g id="グループ_31" data-name="グループ 31">
      <line id="線_5" data-name="線 5" y1="41.4" transform="translate(100.2 560.6)" fill="none" stroke="#fff" stroke-linecap="round" stroke-miterlimit="10" stroke-width="1"/>
    </g>
    <g id="グループ_32" data-name="グループ 32">
      <path id="パス_168" data-name="パス 168" d="M383.4,308.7H385V311l1.9-2.3h1.8l-2.1,2.4,2.2,3.2h-1.9l-1.4-2.1-.6.6v1.4h-1.6v-5.5Z" fill="#fff"/>
      <path id="パス_169" data-name="パス 169" d="M388.9,313.1h0c0-.9.7-1.4,1.7-1.4a2.509,2.509,0,0,1,1,.2v-.1c0-.4-.3-.7-.9-.7a4.3,4.3,0,0,0-1.2.2l-.3-1.1a4.5,4.5,0,0,1,1.8-.3,2.173,2.173,0,0,1,1.6.5,1.978,1.978,0,0,1,.5,1.4v2.5h-1.5v-.4a1.728,1.728,0,0,1-1.3.5A1.344,1.344,0,0,1,388.9,313.1Zm2.8-.4v-.2a1.268,1.268,0,0,0-.6-.1c-.4,0-.7.2-.7.5h0a.472.472,0,0,0,.5.5C391.4,313.4,391.7,313.2,391.7,312.7Z" fill="#fff"/>
      <path id="パス_170" data-name="パス 170" d="M393.8,312.2h0a2.326,2.326,0,0,1,2.3-2.3,1.875,1.875,0,0,1,1.8,1l-1,.8a.891.891,0,0,0-.8-.5c-.5,0-.8.4-.8,1h0a.923.923,0,0,0,.9,1,1.039,1.039,0,0,0,.8-.4l1,.7a2.149,2.149,0,0,1-1.9,1A2.323,2.323,0,0,1,393.8,312.2Z" fill="#fff"/>
      <path id="パス_171" data-name="パス 171" d="M398.5,308.5H400v2.1a1.561,1.561,0,0,1,1.3-.7,1.446,1.446,0,0,1,1.5,1.6v2.8h-1.5V312c0-.5-.2-.7-.6-.7s-.6.3-.6.7v2.3h-1.5l-.1-5.8Z" fill="#fff"/>
      <path id="パス_172" data-name="パス 172" d="M403.6,308.5h1.6v1.1h-1.6Zm0,1.5h1.5v4.3h-1.5Z" fill="#fff"/>
      <path id="パス_173" data-name="パス 173" d="M406,308.5h1.5v3l1.2-1.4h1.7l-1.5,1.7,1.5,2.6h-1.7l-.9-1.5-.4.5v1H406Z" fill="#fff"/>
      <path id="パス_174" data-name="パス 174" d="M410.6,312.2h0a2.349,2.349,0,0,1,2.4-2.3,2.27,2.27,0,0,1,2.4,2.2h0a2.349,2.349,0,0,1-2.4,2.3A2.27,2.27,0,0,1,410.6,312.2Zm3.3,0h0a.987.987,0,0,0-.9-1c-.6,0-.9.4-.9,1h0a.9.9,0,1,0,1.8,0Z" fill="#fff"/>
      <path id="パス_175" data-name="パス 175" d="M415.4,315.5v-1h.2c.3,0,.4-.1.4-.5v-4h1.5v4.1a1.324,1.324,0,0,1-1.5,1.5A1.268,1.268,0,0,1,415.4,315.5Zm.6-7h1.6v1.1H416Z" fill="#fff"/>
      <path id="パス_176" data-name="パス 176" d="M418.5,308.5h1.6v1.1h-1.6Zm0,1.5H420v4.3h-1.5Z" fill="#fff"/>
      <path id="パス_177" data-name="パス 177" d="M422.7,313.5l.9-1a3.4,3.4,0,0,0,1.8.7c.4,0,.6-.1.6-.4h0c0-.2-.2-.4-.9-.5-1.2-.3-2.1-.6-2.1-1.8h0c0-1,.8-1.8,2.2-1.8a3.928,3.928,0,0,1,2.3.7l-.8,1.1a2.66,2.66,0,0,0-1.6-.6c-.4,0-.6.2-.6.4h0c0,.3.2.4,1,.5,1.3.3,2.1.7,2.1,1.7h0c0,1.1-.9,1.8-2.3,1.8A3.526,3.526,0,0,1,422.7,313.5Z" fill="#fff"/>
      <path id="パス_178" data-name="パス 178" d="M428.5,313v-1.8H428V310h.5v-1.1H430V310h1v1.2h-1v1.5c0,.3.1.4.4.4.2,0,.4-.1.6-.1v1.2a1.815,1.815,0,0,1-1.1.2A1.263,1.263,0,0,1,428.5,313Z" fill="#fff"/>
      <path id="パス_179" data-name="パス 179" d="M431.7,312.7h1.6v1.6h-1.6Z" fill="#fff"/>
    </g>
    <g id="グループ_33" data-name="グループ 33">
      <path id="パス_180" data-name="パス 180" d="M399,298.2a9.015,9.015,0,0,0-.9-1,5.272,5.272,0,0,0,1.5-1.1,7.472,7.472,0,0,0,1.2-1.4l1.1.6a7.886,7.886,0,0,1-1.2,1.5A10.484,10.484,0,0,1,399,298.2Zm5.4-4.9h3.2a4.512,4.512,0,0,0,1.3-.1v1.3c-.3,0-.8-.1-1.3-.1h-3.3v2.4a1,1,0,0,1-.6,1,3.11,3.11,0,0,1-1.1.1h-1c-.1-.4-.2-.9-.3-1.2a4.868,4.868,0,0,0,1.2.1c.2,0,.4,0,.4-.1a.349.349,0,0,0,.1-.2v-2.1h-3.5a5.721,5.721,0,0,0-1.4.1v-1.3c.3,0,.8.1,1.4.1h.5v-1.6a3.749,3.749,0,0,0-.1-1.1h1.4c0,.3-.1.6-.1,1.1v1.6h1.7v-2.4a3.11,3.11,0,0,0-.1-1.1h1.5c0,.3-.1.6-.1,1v.2h2.4a4.121,4.121,0,0,0,1.2-.1v1.3c-.3,0-.7-.1-1.2-.1h-2.4v1.2h.2Zm-5,7.5a4.235,4.235,0,0,0-.6-1.4h.4a8.148,8.148,0,0,0,6.5-2.4c.1-.2.2-.3.3-.5l1.1.9-.5.5a10.156,10.156,0,0,1-1.9,1.4A9.406,9.406,0,0,1,399.4,300.8Zm9.8-3.9a10.627,10.627,0,0,0-.9,1.1c-.4-.2-.8-.6-1.3-.9a9.117,9.117,0,0,1-1.7-1.7l1.1-.6a5.928,5.928,0,0,0,.8.8A13.73,13.73,0,0,0,409.2,296.9Z" fill="#fff"/>
      <path id="パス_181" data-name="パス 181" d="M411.1,298.8a7.7,7.7,0,0,0-1.3-.9,19.618,19.618,0,0,0,1.2-2.1,11.223,11.223,0,0,0,.8-2.6c0-.3.1-.5.1-.8l1.5.4v.1c0,.1-.1.2-.1.3a8.985,8.985,0,0,1-.6,2.2,17.074,17.074,0,0,1-.7,1.8A8.938,8.938,0,0,1,411.1,298.8Zm3.7-8.9h1.6a5.757,5.757,0,0,0-.1,1.5v7.9c0,.6-.2,1-.5,1.1a2.872,2.872,0,0,1-1.2.2,7.568,7.568,0,0,1-1.5-.1,5.733,5.733,0,0,0-.4-1.4,14.93,14.93,0,0,0,1.7.2c.2,0,.4,0,.4-.1.1,0,.1-.1.1-.2v-7.7A5.313,5.313,0,0,0,414.8,289.9Zm6.6,7.9a4.348,4.348,0,0,1-.7.4c-.2.2-.4.3-.6.5a13.04,13.04,0,0,1-1.6-3.1,14.164,14.164,0,0,1-.7-2.2l-.1-.3c0-.2-.1-.3-.1-.4l1.4-.4a6.794,6.794,0,0,0,.6,2.1A12.036,12.036,0,0,0,421.4,297.8Z" fill="#fff"/>
      <path id="パス_182" data-name="パス 182" d="M424.4,298.8v-4.7h-1.7c0-.3.1-.7.1-1.2v-1.7a4.121,4.121,0,0,0-.1-1.2c.3,0,.7.1,1.2.1h1.7a4.121,4.121,0,0,0,1.2-.1v2.5c.2-.2.5-.4.7-.6a5.826,5.826,0,0,0,1.1-1.5,1.6,1.6,0,0,0,.3-.8l1.3.3-.1.2-.2.3-.2.3h1.4a2.508,2.508,0,0,0,1-.1l.6.8-.2.3c-.4.7-.8,1.2-1,1.6a5.716,5.716,0,0,1-.7.8c.3.2.7.4,1,.6a11.639,11.639,0,0,0,1.5.6,6.943,6.943,0,0,0-.5,1.3l-.5-.3v3.2a4.512,4.512,0,0,0,.1,1.3h-1.3v-.6h-2.3v.6h-1.3c0-.2.1-.6.1-1.2v-3.2l-.4.2a3.932,3.932,0,0,1-.2-.6c0-.1-.1-.2-.2-.3v.9h-1.2v1.9c.4-.1.8-.2,1.4-.4v1.2a15.425,15.425,0,0,1-1.7.5c-.8.2-1.5.4-2.3.6-.2.1-.4.1-.5.2l-.3-1.3a1.952,1.952,0,0,0,.7-.1v-2.9a4.121,4.121,0,0,0-.1-1.2H424c0,.3-.1.6-.1,1.2v2.8c.1,0,.3-.1.4-.1Zm-.5-7.5V293h1.6v-1.7Zm2.7,4.2c.1,0,.1-.1.3-.1a9,9,0,0,0,1.4-.7,5.546,5.546,0,0,0,.8-.6,10.588,10.588,0,0,1-1-1.2,3.915,3.915,0,0,1-1,.8,9.218,9.218,0,0,0-.5-.8V294h-1.2v1.4h.3a4.4,4.4,0,0,0,.9.1Zm3.4-.6a8.577,8.577,0,0,1-2,1.3h4.2A9.129,9.129,0,0,1,430,294.9Zm-1.2,2.5v1.8h2.3v-1.8Zm1.2-4.1a11.1,11.1,0,0,0,1.2-1.6h-2c-.1.1-.1.2-.2.3A3.249,3.249,0,0,0,430,293.3Z" fill="#fff"/>
    </g>
  </g>
</svg>
